<?xml version="1.0" encoding="UTF-8" standalone="no"?>
<!-- Created with Inkscape (http://www.inkscape.org/) -->

<svg
   xmlns:ns0="http://www.iki.fi/pav/software/textext/"
   xmlns:dc="http://purl.org/dc/elements/1.1/"
   xmlns:cc="http://creativecommons.org/ns#"
   xmlns:rdf="http://www.w3.org/1999/02/22-rdf-syntax-ns#"
   xmlns:svg="http://www.w3.org/2000/svg"
   xmlns="http://www.w3.org/2000/svg"
   xmlns:sodipodi="http://sodipodi.sourceforge.net/DTD/sodipodi-0.dtd"
   xmlns:inkscape="http://www.inkscape.org/namespaces/inkscape"
   id="svg12494"
   version="1.1"
   inkscape:version="0.91 r13725"
   xml:space="preserve"
   width="315"
   height="263.1908"
   viewBox="0 0 315 263.1908"
   sodipodi:docname="bigger_particles.svg"><sodipodi:namedview
     pagecolor="#ffffff"
     bordercolor="#666666"
     borderopacity="1"
     objecttolerance="10"
     gridtolerance="10"
     guidetolerance="10"
     inkscape:pageopacity="0"
     inkscape:pageshadow="2"
     inkscape:window-width="1064"
     inkscape:window-height="654"
     id="namedview12496"
     showgrid="false"
     inkscape:zoom="0.88167161"
     inkscape:cx="150.37938"
     inkscape:cy="258.36654"
     inkscape:window-x="65"
     inkscape:window-y="24"
     inkscape:window-maximized="0"
     inkscape:current-layer="g12502"
     fit-margin-top="0"
     fit-margin-left="0"
     fit-margin-right="0"
     fit-margin-bottom="0" /><metadata
     id="metadata12500"><rdf:RDF><cc:Work
         rdf:about=""><dc:format>image/svg+xml</dc:format><dc:type
           rdf:resource="http://purl.org/dc/dcmitype/StillImage" /><dc:title></dc:title></cc:Work></rdf:RDF></metadata><defs
     id="defs12498"><clipPath
       id="clipPath12510"
       clipPathUnits="userSpaceOnUse"><path
         inkscape:connector-curvature="0"
         id="path12512"
         d="M 0,0 456,0 456,381 0,381 0,0 Z" /></clipPath><clipPath
       id="clipPath12520"
       clipPathUnits="userSpaceOnUse"><path
         inkscape:connector-curvature="0"
         id="path12522"
         d="m 0.828504,0.7563797 454.342896,0 0,380.1186003 -454.342896,0 0,-380.1186003 z" /></clipPath><clipPath
       id="clipPath12552"
       clipPathUnits="userSpaceOnUse"><path
         inkscape:connector-curvature="0"
         id="path12554"
         d="m 377.9612,74.32329 7.86673,0 0,7.874619 -7.86673,0 0,-7.874619 z" /></clipPath><clipPath
       id="clipPath12564"
       clipPathUnits="userSpaceOnUse"><path
         inkscape:connector-curvature="0"
         id="path12566"
         d="m 429.3983,48.95015 7.86673,0 0,7.874615 -7.86673,0 0,-7.874615 z" /></clipPath><clipPath
       id="clipPath12576"
       clipPathUnits="userSpaceOnUse"><path
         inkscape:connector-curvature="0"
         id="path12578"
         d="m 0.828504,0.7563797 454.342896,0 0,380.1186003 -454.342896,0 0,-380.1186003 z" /></clipPath><clipPath
       id="clipPath12608"
       clipPathUnits="userSpaceOnUse"><path
         inkscape:connector-curvature="0"
         id="path12610"
         d="m 377.9612,79.41592 7.86673,0 0,7.874611 -7.86673,0 0,-7.874611 z" /></clipPath><clipPath
       id="clipPath12620"
       clipPathUnits="userSpaceOnUse"><path
         inkscape:connector-curvature="0"
         id="path12622"
         d="m 429.3983,53.73567 7.86673,0 0,7.874615 -7.86673,0 0,-7.874615 z" /></clipPath><clipPath
       id="clipPath12632"
       clipPathUnits="userSpaceOnUse"><path
         inkscape:connector-curvature="0"
         id="path12634"
         d="m 0.828504,0.7563797 454.342896,0 0,380.1186003 -454.342896,0 0,-380.1186003 z" /></clipPath></defs><g
     transform="matrix(1.25,0,0,-1.25,0,263.19079)"
     inkscape:label="bigger_particles"
     inkscape:groupmode="layer"
     id="g12502"><g
       id="g12504" /><g
       id="g12506"
       transform="scale(0.55263158,0.55263158)"><g
         clip-path="url(#clipPath12510)"
         id="g12508"><path
           inkscape:connector-curvature="0"
           id="path12514"
           style="fill:#ffffff;fill-opacity:0;fill-rule:evenodd;stroke:none"
           d="M 0,0 456,0 456,381 0,381 0,0 Z" /></g></g><g
       id="g12516"
       transform="scale(0.55263158,0.55263158)"><g
         clip-path="url(#clipPath12520)"
         id="g12518"><g
           transform="matrix(1.123817,0,0,-1.124945,0.828504,380.875)"
           id="g12524"><path
             inkscape:connector-curvature="0"
             id="path12526"
             style="fill:#1f77b4;fill-opacity:1;fill-rule:nonzero;stroke:#1f77b4;stroke-width:1;stroke-linecap:butt;stroke-linejoin:round;stroke-miterlimit:10;stroke-dasharray:none;stroke-opacity:1"
             d="m 64.46101,54.90204 c 0.79699,0 1.55899,-0.31602 2.12099,-0.87901 0.563,-0.56201 0.87901,-1.32401 0.87901,-2.121 0,-0.797 -0.31601,-1.55799 -0.87901,-2.12101 -0.562,-0.56198 -1.324,-0.879 -2.12099,-0.879 -0.79301,0 -1.55901,0.31702 -2.12101,0.879 -0.563,0.56302 -0.879,1.32401 -0.879,2.12101 0,0.79699 0.316,1.55899 0.879,2.121 0.562,0.56299 1.328,0.87901 2.12101,0.87901 z" /></g><g
           transform="matrix(1.123817,0,0,-1.124945,0.828504,380.875)"
           id="g12528"><path
             inkscape:connector-curvature="0"
             id="path12530"
             style="fill:#1f77b4;fill-opacity:1;fill-rule:nonzero;stroke:#1f77b4;stroke-width:1;stroke-linecap:butt;stroke-linejoin:round;stroke-miterlimit:10;stroke-dasharray:none;stroke-opacity:1"
             d="m 110.234,80.56203 c 0.793,0 1.559,-0.316 2.121,-0.87799 0.563,-0.56302 0.879,-1.32502 0.879,-2.12201 0,-0.79201 -0.316,-1.55799 -0.879,-2.12101 -0.562,-0.56198 -1.328,-0.87901 -2.121,-0.87901 -0.796,0 -1.562,0.31703 -2.125,0.87901 -0.562,0.56302 -0.875,1.329 -0.875,2.12101 0,0.79699 0.313,1.55899 0.875,2.12201 0.563,0.56199 1.329,0.87799 2.125,0.87799 z" /></g><g
           transform="matrix(1.123817,0,0,-1.124945,0.828504,380.875)"
           id="g12532"><path
             inkscape:connector-curvature="0"
             id="path12534"
             style="fill:#1f77b4;fill-opacity:1;fill-rule:nonzero;stroke:#1f77b4;stroke-width:1;stroke-linecap:butt;stroke-linejoin:round;stroke-miterlimit:10;stroke-dasharray:none;stroke-opacity:1"
             d="m 156.004,117.684 c 0.793,0 1.558,-0.313 2.121,-0.875 0.563,-0.563 0.879,-1.329 0.879,-2.125 0,-0.793 -0.316,-1.559 -0.879,-2.122 -0.563,-0.562 -1.328,-0.878 -2.121,-0.878 -0.797,0 -1.559,0.316 -2.121,0.878 -0.563,0.563 -0.879,1.329 -0.879,2.122 0,0.796 0.316,1.562 0.879,2.125 0.562,0.562 1.324,0.875 2.121,0.875 z" /></g><g
           transform="matrix(1.123817,0,0,-1.124945,0.828504,380.875)"
           id="g12536"><path
             inkscape:connector-curvature="0"
             id="path12538"
             style="fill:#1f77b4;fill-opacity:1;fill-rule:nonzero;stroke:#1f77b4;stroke-width:1;stroke-linecap:butt;stroke-linejoin:round;stroke-miterlimit:10;stroke-dasharray:none;stroke-opacity:1"
             d="m 201.773,162.336 c 0.793,0 1.559,-0.316 2.122,-0.879 0.562,-0.562 0.878,-1.324 0.878,-2.121 0,-0.793 -0.316,-1.559 -0.878,-2.121 -0.563,-0.563 -1.329,-0.879 -2.122,-0.879 -0.796,0 -1.558,0.316 -2.121,0.879 -0.562,0.562 -0.879,1.328 -0.879,2.121 0,0.797 0.317,1.559 0.879,2.121 0.563,0.563 1.325,0.879 2.121,0.879 z" /></g><g
           transform="matrix(1.123817,0,0,-1.124945,0.828504,380.875)"
           id="g12540"><path
             inkscape:connector-curvature="0"
             id="path12542"
             style="fill:#1f77b4;fill-opacity:1;fill-rule:nonzero;stroke:#1f77b4;stroke-width:1;stroke-linecap:butt;stroke-linejoin:round;stroke-miterlimit:10;stroke-dasharray:none;stroke-opacity:1"
             d="m 247.543,205.926 c 0.797,0 1.559,-0.317 2.121,-0.879 0.563,-0.563 0.879,-1.324 0.879,-2.121 0,-0.797 -0.316,-1.559 -0.879,-2.121 -0.562,-0.563 -1.324,-0.879 -2.121,-0.879 -0.797,0 -1.559,0.316 -2.121,0.879 -0.563,0.562 -0.879,1.324 -0.879,2.121 0,0.797 0.316,1.558 0.879,2.121 0.562,0.562 1.324,0.879 2.121,0.879 z" /></g><g
           transform="matrix(1.123817,0,0,-1.124945,0.828504,380.875)"
           id="g12544"><path
             inkscape:connector-curvature="0"
             id="path12546"
             style="fill:#1f77b4;fill-opacity:1;fill-rule:nonzero;stroke:#1f77b4;stroke-width:1;stroke-linecap:butt;stroke-linejoin:round;stroke-miterlimit:10;stroke-dasharray:none;stroke-opacity:1"
             d="m 293.312,243.289 c 0.797,0 1.559,-0.316 2.122,-0.879 0.562,-0.562 0.878,-1.324 0.878,-2.121 0,-0.797 -0.316,-1.559 -0.878,-2.121 -0.563,-0.563 -1.325,-0.879 -2.122,-0.879 -0.796,0 -1.558,0.316 -2.121,0.879 -0.562,0.562 -0.879,1.324 -0.879,2.121 0,0.797 0.317,1.559 0.879,2.121 0.563,0.563 1.325,0.879 2.121,0.879 z" /></g></g></g><g
       id="g12548"
       transform="scale(0.55263158,0.55263158)"><g
         clip-path="url(#clipPath12552)"
         id="g12550"><g
           transform="matrix(1.123817,0,0,1.124945,0.828504,380.875)"
           id="g12556"><path
             inkscape:connector-curvature="0"
             id="path12558"
             style="fill:#1f77b4;fill-opacity:1;fill-rule:nonzero;stroke:#1f77b4;stroke-width:1;stroke-linecap:butt;stroke-linejoin:round;stroke-miterlimit:10;stroke-dasharray:none;stroke-opacity:1"
             d="m 339.082,-272.004 c 0.797,0 1.559,0.316 2.121,0.879 0.563,0.563 0.879,1.3279 0.879,2.121 0,0.797 -0.316,1.559 -0.879,2.1209 -0.562,0.5631 -1.324,0.8791 -2.121,0.8791 -0.793,0 -1.559,-0.316 -2.121,-0.8791 -0.563,-0.5619 -0.879,-1.3239 -0.879,-2.1209 0,-0.7931 0.316,-1.558 0.879,-2.121 0.562,-0.563 1.328,-0.879 2.121,-0.879 z" /></g></g></g><g
       id="g12560"
       transform="scale(0.55263158,0.55263158)"><g
         clip-path="url(#clipPath12564)"
         id="g12562"><g
           transform="matrix(1.123817,0,0,1.124945,0.828504,380.875)"
           id="g12568"><path
             inkscape:connector-curvature="0"
             id="path12570"
             style="fill:#1f77b4;fill-opacity:1;fill-rule:nonzero;stroke:#1f77b4;stroke-width:1;stroke-linecap:butt;stroke-linejoin:round;stroke-miterlimit:10;stroke-dasharray:none;stroke-opacity:1"
             d="m 384.852,-294.5591 c 0.796,0 1.558,0.3171 2.121,0.8791 0.562,0.563 0.879,1.3279 0.879,2.1209 0,0.797 -0.317,1.5591 -0.879,2.1211 -0.563,0.563 -1.325,0.8789 -2.121,0.8789 -0.793,0 -1.559,-0.3159 -2.122,-0.8789 -0.562,-0.562 -0.878,-1.3241 -0.878,-2.1211 0,-0.793 0.316,-1.5579 0.878,-2.1209 0.563,-0.562 1.329,-0.8791 2.122,-0.8791 z" /></g></g></g><g
       id="g12572"
       transform="scale(0.55263158,0.55263158)"><g
         clip-path="url(#clipPath12576)"
         id="g12574"><g
           transform="matrix(1.123817,0,0,-1.124945,0.828504,380.875)"
           id="g12580"><path
             inkscape:connector-curvature="0"
             id="path12582"
             style="fill:#ff7f0e;fill-opacity:1;fill-rule:nonzero;stroke:#ff7f0e;stroke-width:1;stroke-linecap:butt;stroke-linejoin:round;stroke-miterlimit:10;stroke-dasharray:none;stroke-opacity:1"
             d="m 64.46101,62.52003 c 0.79699,0 1.55899,-0.31702 2.12099,-0.879 0.563,-0.56299 0.87901,-1.32502 0.87901,-2.12101 0,-0.79301 -0.31601,-1.55899 -0.87901,-2.12198 -0.562,-0.56201 -1.324,-0.87801 -2.12099,-0.87801 -0.79301,0 -1.55901,0.316 -2.12101,0.87801 -0.563,0.56299 -0.879,1.32897 -0.879,2.12198 0,0.79599 0.316,1.55802 0.879,2.12101 0.562,0.56198 1.328,0.879 2.12101,0.879 z" /></g><g
           transform="matrix(1.123817,0,0,-1.124945,0.828504,380.875)"
           id="g12584"><path
             inkscape:connector-curvature="0"
             id="path12586"
             style="fill:#ff7f0e;fill-opacity:1;fill-rule:nonzero;stroke:#ff7f0e;stroke-width:1;stroke-linecap:butt;stroke-linejoin:round;stroke-miterlimit:10;stroke-dasharray:none;stroke-opacity:1"
             d="m 110.234,96.54304 c 0.793,0 1.559,-0.31303 2.121,-0.87502 0.563,-0.56599 0.879,-1.32799 0.879,-2.12499 0,-0.79301 -0.316,-1.559 -0.879,-2.12101 -0.562,-0.56299 -1.328,-0.879 -2.121,-0.879 -0.796,0 -1.562,0.31601 -2.125,0.879 -0.562,0.56201 -0.875,1.328 -0.875,2.12101 0,0.797 0.313,1.559 0.875,2.12499 0.563,0.56199 1.329,0.87502 2.125,0.87502 z" /></g><g
           transform="matrix(1.123817,0,0,-1.124945,0.828504,380.875)"
           id="g12588"><path
             inkscape:connector-curvature="0"
             id="path12590"
             style="fill:#ff7f0e;fill-opacity:1;fill-rule:nonzero;stroke:#ff7f0e;stroke-width:1;stroke-linecap:butt;stroke-linejoin:round;stroke-miterlimit:10;stroke-dasharray:none;stroke-opacity:1"
             d="m 156.004,124.195 c 0.793,0 1.558,-0.316 2.121,-0.879 0.563,-0.562 0.879,-1.324 0.879,-2.121 0,-0.793 -0.316,-1.558 -0.879,-2.121 -0.563,-0.562 -1.328,-0.879 -2.121,-0.879 -0.797,0 -1.559,0.317 -2.121,0.879 -0.563,0.563 -0.879,1.328 -0.879,2.121 0,0.797 0.316,1.559 0.879,2.121 0.562,0.563 1.324,0.879 2.121,0.879 z" /></g><g
           transform="matrix(1.123817,0,0,-1.124945,0.828504,380.875)"
           id="g12592"><path
             inkscape:connector-curvature="0"
             id="path12594"
             style="fill:#ff7f0e;fill-opacity:1;fill-rule:nonzero;stroke:#ff7f0e;stroke-width:1;stroke-linecap:butt;stroke-linejoin:round;stroke-miterlimit:10;stroke-dasharray:none;stroke-opacity:1"
             d="m 201.773,158.012 c 0.793,0 1.559,-0.317 2.122,-0.879 0.562,-0.563 0.878,-1.324 0.878,-2.121 0,-0.797 -0.316,-1.559 -0.878,-2.121 -0.563,-0.563 -1.329,-0.879 -2.122,-0.879 -0.796,0 -1.558,0.316 -2.121,0.879 -0.562,0.562 -0.879,1.324 -0.879,2.121 0,0.797 0.317,1.558 0.879,2.121 0.563,0.562 1.325,0.879 2.121,0.879 z" /></g><g
           transform="matrix(1.123817,0,0,-1.124945,0.828504,380.875)"
           id="g12596"><path
             inkscape:connector-curvature="0"
             id="path12598"
             style="fill:#ff7f0e;fill-opacity:1;fill-rule:nonzero;stroke:#ff7f0e;stroke-width:1;stroke-linecap:butt;stroke-linejoin:round;stroke-miterlimit:10;stroke-dasharray:none;stroke-opacity:1"
             d="m 247.543,200.289 c 0.797,0 1.559,-0.316 2.121,-0.879 0.563,-0.562 0.879,-1.324 0.879,-2.121 0,-0.793 -0.316,-1.559 -0.879,-2.121 -0.562,-0.563 -1.324,-0.879 -2.121,-0.879 -0.797,0 -1.559,0.316 -2.121,0.879 -0.563,0.562 -0.879,1.328 -0.879,2.121 0,0.797 0.316,1.559 0.879,2.121 0.562,0.563 1.324,0.879 2.121,0.879 z" /></g><g
           transform="matrix(1.123817,0,0,-1.124945,0.828504,380.875)"
           id="g12600"><path
             inkscape:connector-curvature="0"
             id="path12602"
             style="fill:#ff7f0e;fill-opacity:1;fill-rule:nonzero;stroke:#ff7f0e;stroke-width:1;stroke-linecap:butt;stroke-linejoin:round;stroke-miterlimit:10;stroke-dasharray:none;stroke-opacity:1"
             d="m 293.312,238.324 c 0.797,0 1.559,-0.316 2.122,-0.879 0.562,-0.562 0.878,-1.324 0.878,-2.121 0,-0.797 -0.316,-1.558 -0.878,-2.121 -0.563,-0.562 -1.325,-0.879 -2.122,-0.879 -0.796,0 -1.558,0.317 -2.121,0.879 -0.562,0.563 -0.879,1.324 -0.879,2.121 0,0.797 0.317,1.559 0.879,2.121 0.563,0.563 1.325,0.879 2.121,0.879 z" /></g></g></g><g
       id="g12604"
       transform="scale(0.55263158,0.55263158)"><g
         clip-path="url(#clipPath12608)"
         id="g12606"><g
           transform="matrix(1.123817,0,0,1.124945,0.828504,380.875)"
           id="g12612"><path
             inkscape:connector-curvature="0"
             id="path12614"
             style="fill:#ff7f0e;fill-opacity:1;fill-rule:nonzero;stroke:#ff7f0e;stroke-width:1;stroke-linecap:butt;stroke-linejoin:round;stroke-miterlimit:10;stroke-dasharray:none;stroke-opacity:1"
             d="m 339.082,-267.4771 c 0.797,0 1.559,0.3171 2.121,0.879 0.563,0.5631 0.879,1.3251 0.879,2.1211 0,0.797 -0.316,1.559 -0.879,2.122 -0.562,0.562 -1.324,0.8779 -2.121,0.8779 -0.793,0 -1.559,-0.3159 -2.121,-0.8779 -0.563,-0.563 -0.879,-1.325 -0.879,-2.122 0,-0.796 0.316,-1.558 0.879,-2.1211 0.562,-0.5619 1.328,-0.879 2.121,-0.879 z" /></g></g></g><g
       id="g12616"
       transform="scale(0.55263158,0.55263158)"><g
         clip-path="url(#clipPath12620)"
         id="g12618"><g
           transform="matrix(1.123817,0,0,1.124945,0.828504,380.875)"
           id="g12624"><path
             inkscape:connector-curvature="0"
             id="path12626"
             style="fill:#ff7f0e;fill-opacity:1;fill-rule:nonzero;stroke:#ff7f0e;stroke-width:1;stroke-linecap:butt;stroke-linejoin:round;stroke-miterlimit:10;stroke-dasharray:none;stroke-opacity:1"
             d="m 384.852,-290.3051 c 0.796,0 1.558,0.3171 2.121,0.8791 0.562,0.563 0.879,1.3279 0.879,2.1209 0,0.7971 -0.317,1.5591 -0.879,2.121 -0.563,0.5631 -1.325,0.879 -2.121,0.879 -0.793,0 -1.559,-0.3159 -2.122,-0.879 -0.562,-0.5619 -0.878,-1.3239 -0.878,-2.121 0,-0.793 0.316,-1.5579 0.878,-2.1209 0.563,-0.562 1.329,-0.8791 2.122,-0.8791 z" /></g></g></g><g
       transform="matrix(0.62105676,0,0,-0.62168013,0.45785747,210.48355)"
       id="g12636"><path
         inkscape:connector-curvature="0"
         id="path12638"
         style="fill:none;stroke:#000000;stroke-width:0.80000001;stroke-linecap:butt;stroke-linejoin:round;stroke-miterlimit:10;stroke-dasharray:none;stroke-opacity:1"
         d="m 64.46101,304.785 0,3.5" /></g><g
       transform="matrix(0.62105676,0,0,-0.62168013,0.45785747,210.48355)"
       id="g12640"><path
         inkscape:connector-curvature="0"
         id="path12642"
         style="fill:none;stroke:#000000;stroke-width:0.80000001;stroke-linecap:butt;stroke-linejoin:round;stroke-miterlimit:10;stroke-dasharray:none;stroke-opacity:1"
         d="m 156.004,304.785 0,3.5" /></g><g
       transform="matrix(0.62105676,0,0,-0.62168013,0.45785747,210.48355)"
       id="g12644"><path
         inkscape:connector-curvature="0"
         id="path12646"
         style="fill:none;stroke:#000000;stroke-width:0.80000001;stroke-linecap:butt;stroke-linejoin:round;stroke-miterlimit:10;stroke-dasharray:none;stroke-opacity:1"
         d="m 293.312,304.785 0,3.5" /></g><g
       transform="matrix(0.62105676,0,0,-0.62168013,0.45785747,210.48355)"
       id="g12648"><path
         inkscape:connector-curvature="0"
         id="path12650"
         style="fill:none;stroke:#000000;stroke-width:0.80000001;stroke-linecap:butt;stroke-linejoin:round;stroke-miterlimit:10;stroke-dasharray:none;stroke-opacity:1"
         d="m 384.852,304.785 0,3.5" /></g><g
       transform="matrix(0.62105676,0,0,-0.62168013,0.45785747,210.48355)"
       id="g12652"><path
         inkscape:connector-curvature="0"
         id="path12654"
         style="fill:none;stroke:#000000;stroke-width:0.80000001;stroke-linecap:butt;stroke-linejoin:round;stroke-miterlimit:10;stroke-dasharray:none;stroke-opacity:1"
         d="m 46.098,293.59 -3.5,0" /></g><g
       transform="matrix(0.62105676,0,0,-0.62168013,0.45785747,210.48355)"
       id="g12656"><path
         inkscape:connector-curvature="0"
         id="path12658"
         style="fill:none;stroke:#000000;stroke-width:0.80000001;stroke-linecap:butt;stroke-linejoin:round;stroke-miterlimit:10;stroke-dasharray:none;stroke-opacity:1"
         d="m 46.098,223.836 -3.5,0" /></g><g
       transform="matrix(0.62105676,0,0,-0.62168013,0.45785747,210.48355)"
       id="g12660"><path
         inkscape:connector-curvature="0"
         id="path12662"
         style="fill:none;stroke:#000000;stroke-width:0.80000001;stroke-linecap:butt;stroke-linejoin:round;stroke-miterlimit:10;stroke-dasharray:none;stroke-opacity:1"
         d="m 46.098,119.203 -3.5,0" /></g><g
       transform="matrix(0.62105676,0,0,-0.62168013,0.45785747,210.48355)"
       id="g12664"><path
         inkscape:connector-curvature="0"
         id="path12666"
         style="fill:none;stroke:#000000;stroke-width:0.80000001;stroke-linecap:butt;stroke-linejoin:round;stroke-miterlimit:10;stroke-dasharray:none;stroke-opacity:1"
         d="m 46.098,49.44903 -3.5,0" /></g><g
       transform="matrix(0.62105676,0,0,-0.62168013,0.45785747,210.48355)"
       id="g12668"><path
         inkscape:connector-curvature="0"
         id="path12670"
         style="fill:none;stroke:#000000;stroke-width:0.80000001;stroke-linecap:square;stroke-linejoin:miter;stroke-miterlimit:10;stroke-dasharray:none;stroke-opacity:1"
         d="m 46.098,304.785 0,-266.10896" /></g><g
       transform="matrix(0.62105676,0,0,-0.62168013,0.45785747,210.48355)"
       id="g12672"><path
         inkscape:connector-curvature="0"
         id="path12674"
         style="fill:none;stroke:#000000;stroke-width:0.80000001;stroke-linecap:square;stroke-linejoin:miter;stroke-miterlimit:10;stroke-dasharray:none;stroke-opacity:1"
         d="m 46.098,304.785 357.121,0" /></g><g
       transform="matrix(0.62105676,0,0,-0.62168013,0.45785747,210.48355)"
       id="g12676"><path
         inkscape:connector-curvature="0"
         id="path12678"
         style="fill:#1f77b4;fill-opacity:1;fill-rule:nonzero;stroke:#1f77b4;stroke-width:1;stroke-linecap:butt;stroke-linejoin:round;stroke-miterlimit:10;stroke-dasharray:none;stroke-opacity:1"
         d="m 309.258,60.05504 c 0.793,0 1.558,-0.31702 2.121,-0.879 0.562,-0.56302 0.879,-1.328 0.879,-2.12101 0,-0.797 -0.317,-1.559 -0.879,-2.12101 -0.563,-0.56299 -1.328,-0.879 -2.121,-0.879 -0.797,0 -1.559,0.31601 -2.121,0.879 -0.563,0.56201 -0.879,1.32401 -0.879,2.12101 0,0.79301 0.316,1.55799 0.879,2.12101 0.562,0.56198 1.324,0.879 2.121,0.879 z" /></g><g
       transform="matrix(0.62105676,0,0,-0.62168013,0.45785747,210.48355)"
       id="g12680"><path
         inkscape:connector-curvature="0"
         id="path12682"
         style="fill:#ff7f0e;fill-opacity:1;fill-rule:nonzero;stroke:#ff7f0e;stroke-width:1;stroke-linecap:butt;stroke-linejoin:round;stroke-miterlimit:10;stroke-dasharray:none;stroke-opacity:1"
         d="m 309.258,76.03501 c 0.793,0 1.558,-0.31599 2.121,-0.87897 0.562,-0.56202 0.879,-1.32402 0.879,-2.12101 0,-0.79699 -0.317,-1.55799 -0.879,-2.12101 -0.563,-0.56198 -1.328,-0.879 -2.121,-0.879 -0.797,0 -1.559,0.31702 -2.121,0.879 -0.563,0.56302 -0.879,1.32402 -0.879,2.12101 0,0.79699 0.316,1.55899 0.879,2.12101 0.562,0.56298 1.324,0.87897 2.121,0.87897 z" /></g><g
       transform="matrix(0.62105676,0,0,0.62168013,0.45785747,0.41799931)"
       id="g12684"><text
         id="text12686"
         style="font-variant:normal;font-weight:normal;font-size:16px;font-family:LMRoman10;-inkscape-font-specification:LMRoman10-Regular;writing-mode:lr-tb;fill:#000000;fill-opacity:1;fill-rule:nonzero;stroke:none"
         transform="matrix(1,0,0,-1,316.5694,277.019)"><tspan
           id="tspan12688"
           sodipodi:role="line"
           y="0"
           x="0">aN</tspan></text>
</g><g
       transform="matrix(0.62105676,0,0,0.62168013,0.45785747,0.41799931)"
       id="g12690"><text
         id="text12692"
         style="font-variant:normal;font-weight:normal;font-size:16px;font-family:LMRoman10;-inkscape-font-specification:LMRoman10-Regular;writing-mode:lr-tb;fill:#000000;fill-opacity:1;fill-rule:nonzero;stroke:none"
         transform="matrix(1,0,0,-1,316.5694,259.6282)"><tspan
           y="0"
           id="tspan12694"
           sodipodi:role="line"
           x="0">NS</tspan></text>
</g><g
       transform="matrix(0.62105676,0,0,0.62168013,0.45785747,0.41799931)"
       id="g12696"><text
         id="text12698"
         style="font-variant:normal;font-weight:normal;font-size:16px;font-family:LMRoman10;-inkscape-font-specification:LMRoman10-Regular;writing-mode:lr-tb;fill:#000000;fill-opacity:1;fill-rule:nonzero;stroke:none"
         transform="matrix(0,1,1,0,12.00001,123.9666)"><tspan
           id="tspan12700"
           sodipodi:role="line"
           y="0"
           x="0 10.896 19.743999 26.848 33.119999 41.119999 54.880001 61.104 66.912003 78.912003">Energy(eV)</tspan></text>
</g><g
       transform="matrix(0.62105676,0,0,0.62168013,0.45785747,0.41799931)"
       id="g12714"><text
         id="text12716"
         style="font-variant:normal;font-weight:normal;font-size:16px;font-family:LMRoman10;-inkscape-font-specification:LMRoman10-Regular;writing-mode:lr-tb;fill:#000000;fill-opacity:1;fill-rule:nonzero;stroke:none"
         transform="matrix(1,0,0,-1,13.76029,283.1409)"><tspan
           id="tspan12718"
           sodipodi:role="line"
           y="0"
           x="0 8 12.448 20.448">3.25</tspan></text>
</g><g
       transform="matrix(0.62105676,0,0,0.62168013,0.45785747,0.41799931)"
       id="g12720"><text
         id="text12722"
         style="font-variant:normal;font-weight:normal;font-size:16px;font-family:LMRoman10;-inkscape-font-specification:LMRoman10-Regular;writing-mode:lr-tb;fill:#000000;fill-opacity:1;fill-rule:nonzero;stroke:none"
         transform="matrix(1,0,0,-1,13.68164,213.3063)"><tspan
           id="tspan12724"
           sodipodi:role="line"
           y="0"
           x="0 8 12.448 20.448">2.75</tspan></text>
</g><g
       transform="matrix(0.62105676,0,0,0.62168013,0.45785747,0.41799931)"
       id="g12726"><text
         id="text12728"
         style="font-variant:normal;font-weight:normal;font-size:16px;font-family:LMRoman10;-inkscape-font-specification:LMRoman10-Regular;writing-mode:lr-tb;fill:#000000;fill-opacity:1;fill-rule:nonzero;stroke:none"
         transform="matrix(1,0,0,-1,13.69861,108.7543)"><tspan
           id="tspan12730"
           sodipodi:role="line"
           y="0"
           x="0 8 12.448 20.448">2.00</tspan></text>
</g><g
       transform="matrix(0.62105676,0,0,0.62168013,0.45785747,0.41799931)"
       id="g12732"><text
         id="text12734"
         style="font-variant:normal;font-weight:normal;font-size:16px;font-family:LMRoman10;-inkscape-font-specification:LMRoman10-Regular;writing-mode:lr-tb;fill:#000000;fill-opacity:1;fill-rule:nonzero;stroke:none"
         transform="matrix(1,0,0,-1,13.56973,38.99974)"><tspan
           id="tspan12736"
           sodipodi:role="line"
           y="0"
           x="0 8 12.448 20.448">1.50</tspan></text>
</g><g
       transform="matrix(0.62105676,0,0,0.62168013,0.45785747,0.41799931)"
       id="g12738"><text
         id="text12740"
         style="font-variant:normal;font-weight:normal;font-size:16px;font-family:LMRoman10;-inkscape-font-specification:LMRoman10-Regular;writing-mode:lr-tb;fill:#000000;fill-opacity:1;fill-rule:nonzero;stroke:none"
         transform="matrix(1,0,0,-1,56.497,17.00785)"><tspan
           id="tspan12742"
           sodipodi:role="line"
           y="0"
           x="0 8 91.487999 99.487999">3050</tspan></text>
</g><g
       transform="matrix(0.62105676,0,0,0.62168013,0.45785747,0.41799931)"
       id="g12744"><text
         id="text12746"
         style="font-variant:normal;font-weight:normal;font-size:16px;font-family:LMRoman10;-inkscape-font-specification:LMRoman10-Regular;writing-mode:lr-tb;fill:#000000;fill-opacity:1;fill-rule:nonzero;stroke:none"
         transform="matrix(1,0,0,-1,285.3059,17.00785)"><tspan
           id="tspan12748"
           sodipodi:role="line"
           y="0"
           x="0 8 87.375999 95.375999 103.376">80100</tspan></text>
</g><g
       ns0:preamble="/home/nick/tt_preamble.ini"
       ns0:text="$a$ (nm)"
       word-spacing="normal"
       letter-spacing="normal"
       font-size-adjust="none"
       font-stretch="normal"
       font-weight="normal"
       font-variant="normal"
       font-style="normal"
       stroke-miterlimit="10.433"
       xml:space="preserve"
       transform="matrix(0.89454689,0,0,0.89454689,-72.572618,-579.13562)"
       id="content"
       style="font-style:normal;font-variant:normal;font-weight:normal;font-stretch:normal;letter-spacing:normal;word-spacing:normal;text-anchor:start;fill:none;fill-opacity:1;fill-rule:evenodd;stroke:#000000;stroke-linecap:butt;stroke-linejoin:miter;stroke-miterlimit:10.43299961;stroke-dasharray:none;stroke-dashoffset:0;stroke-opacity:1"><path
         id="path13538"
         d="m 227.15,661 -0.02,0.03 -0.02,0.04 -0.01,0.03 -0.02,0.03 -0.02,0.03 -0.02,0.03 -0.03,0.03 -0.02,0.03 -0.02,0.03 -0.02,0.03 -0.03,0.03 -0.02,0.02 -0.03,0.03 -0.02,0.02 -0.03,0.02 -0.03,0.03 -0.03,0.02 -0.03,0.02 -0.03,0.01 -0.03,0.02 -0.03,0.02 -0.03,0.01 -0.04,0.02 -0.03,0.01 -0.04,0.01 -0.03,0.01 -0.04,0.01 -0.04,0 -0.04,0.01 -0.04,0 -0.04,0.01 -0.04,0 0.01,-0.22 c 0.65,0 0.79,-0.82 0.79,-0.88 0,-0.06 -0.02,-0.12 -0.03,-0.17 l -0.5,-1.95 c -0.05,-0.18 -0.05,-0.2 -0.2,-0.37 -0.44,-0.55 -0.84,-0.71 -1.12,-0.71 -0.5,0 -0.64,0.55 -0.64,0.94 0,0.5 0.32,1.72 0.55,2.18 0.31,0.59 0.75,0.96 1.15,0.96 l -0.01,0.22 c -1.16,0 -2.4,-1.47 -2.4,-2.92 0,-0.94 0.55,-1.6 1.33,-1.6 0.19,0 0.69,0.04 1.29,0.75 0.08,-0.42 0.43,-0.75 0.91,-0.75 0.35,0 0.58,0.23 0.74,0.55 0.16,0.36 0.29,0.97 0.29,0.99 0,0.1 -0.09,0.1 -0.12,0.1 -0.09,0 -0.11,-0.04 -0.14,-0.18 -0.17,-0.65 -0.34,-1.24 -0.75,-1.24 -0.27,0 -0.3,0.26 -0.3,0.46 0,0.22 0.02,0.3 0.13,0.74 0.11,0.42 0.13,0.52 0.22,0.89 l 0.36,1.4 c 0.07,0.28 0.07,0.3 0.07,0.34 0,0.17 -0.12,0.27 -0.29,0.27 -0.24,0 -0.39,-0.22 -0.42,-0.44 z"
         inkscape:connector-curvature="0"
         style="fill:#000000;stroke-width:0" /><path
         id="path13540"
         d="m 235.32,654.84 0,0.01 0,0 0,0 0,0.01 0,0 0,0 -0.01,0.01 0,0 0,0 0,0.01 0,0 -0.01,0.01 0,0 0,0.01 -0.01,0 0,0.01 -0.01,0.01 0,0 -0.01,0.01 0,0 0,0.01 -0.01,0 0,0.01 -0.01,0 0,0 0,0.01 -0.01,0 0,0.01 -0.01,0 0,0.01 -0.01,0.01 0,0 -0.01,0.01 -0.01,0 0,0.01 -0.01,0.01 -0.01,0 0,0.01 -0.01,0.01 -0.01,0.01 0,0 -0.01,0.01 c -1.25,1.26 -1.57,3.14 -1.57,4.66 0,1.74 0.38,3.47 1.61,4.71 0.13,0.12 0.13,0.15 0.13,0.17 0,0.07 -0.04,0.1 -0.1,0.1 -0.1,0 -1,-0.67 -1.59,-1.94 -0.5,-1.09 -0.62,-2.2 -0.62,-3.04 0,-0.77 0.11,-1.98 0.65,-3.11 0.6,-1.22 1.46,-1.87 1.56,-1.87 0.06,0 0.1,0.03 0.1,0.1 z"
         inkscape:connector-curvature="0"
         style="fill:#000000;stroke-width:0" /><path
         id="path13542"
         d="m 236.99,660.66 0,-2.67 c 0,-0.45 -0.11,-0.45 -0.78,-0.45 l 0,-0.31 c 0.35,0.01 0.86,0.03 1.13,0.03 0.25,0 0.77,-0.02 1.11,-0.03 l 0,0.31 c -0.67,0 -0.78,0 -0.78,0.45 l 0,1.83 c 0,1.04 0.71,1.6 1.35,1.6 0.63,0 0.74,-0.54 0.74,-1.11 l 0,-2.32 c 0,-0.45 -0.11,-0.45 -0.78,-0.45 l 0,-0.31 c 0.35,0.01 0.86,0.03 1.12,0.03 0.26,0 0.78,-0.02 1.12,-0.03 l 0,0.31 c -0.52,0 -0.77,0 -0.78,0.3 l 0,1.9 c 0,0.86 0,1.17 -0.31,1.53 -0.14,0.17 -0.46,0.37 -1.04,0.37 -0.73,0 -1.2,-0.43 -1.48,-1.05 l 0,1.05 -1.4,-0.11 0,-0.31 c 0.7,0 0.78,-0.07 0.78,-0.56 z"
         inkscape:connector-curvature="0"
         style="fill:#000000;stroke-width:0" /><path
         id="path13544"
         d="m 242.52,660.66 0,-2.67 c 0,-0.45 -0.11,-0.45 -0.78,-0.45 l 0,-0.31 c 0.35,0.01 0.86,0.03 1.13,0.03 0.26,0 0.78,-0.02 1.12,-0.03 l 0,0.31 c -0.67,0 -0.78,0 -0.78,0.45 l 0,1.83 c 0,1.04 0.71,1.6 1.34,1.6 0.63,0 0.74,-0.54 0.74,-1.11 l 0,-2.32 c 0,-0.45 -0.11,-0.45 -0.78,-0.45 l 0,-0.31 c 0.35,0.01 0.86,0.03 1.13,0.03 0.26,0 0.78,-0.02 1.12,-0.03 l 0,0.31 c -0.67,0 -0.78,0 -0.78,0.45 l 0,1.83 c 0,1.04 0.7,1.6 1.34,1.6 0.63,0 0.74,-0.54 0.74,-1.11 l 0,-2.32 c 0,-0.45 -0.11,-0.45 -0.78,-0.45 l 0,-0.31 c 0.35,0.01 0.86,0.03 1.13,0.03 0.26,0 0.78,-0.02 1.11,-0.03 l 0,0.31 c -0.51,0 -0.76,0 -0.77,0.3 l 0,1.9 c 0,0.86 0,1.17 -0.31,1.53 -0.14,0.17 -0.47,0.37 -1.05,0.37 -0.83,0 -1.27,-0.6 -1.44,-0.98 -0.14,0.87 -0.88,0.98 -1.33,0.98 -0.72,0 -1.19,-0.43 -1.47,-1.05 l 0,1.05 -1.41,-0.11 0,-0.31 c 0.7,0 0.78,-0.07 0.78,-0.56 z"
         inkscape:connector-curvature="0"
         style="fill:#000000;stroke-width:0" /><path
         id="path13546"
         d="m 252.61,659.72 0,0.08 0,0.07 -0.01,0.08 0,0.08 -0.01,0.17 -0.01,0.18 -0.02,0.18 -0.02,0.19 -0.02,0.2 -0.04,0.2 -0.04,0.2 -0.04,0.21 -0.06,0.21 -0.06,0.21 -0.07,0.21 -0.08,0.22 -0.04,0.1 -0.04,0.11 -0.05,0.11 -0.05,0.1 c -0.6,1.23 -1.46,1.87 -1.55,1.87 -0.06,0 -0.11,-0.04 -0.11,-0.1 0,-0.02 0,-0.05 0.2,-0.22 0.97,-0.99 1.54,-2.58 1.54,-4.66 0,-1.7 -0.37,-3.45 -1.6,-4.71 -0.14,-0.12 -0.14,-0.14 -0.14,-0.17 0,-0.06 0.05,-0.1 0.11,-0.1 0.09,0 0.99,0.68 1.58,1.94 0.51,1.1 0.63,2.21 0.63,3.04 z"
         inkscape:connector-curvature="0"
         style="fill:#000000;stroke-width:0" /></g></g></svg>