<?xml version="1.0" encoding="UTF-8" standalone="no"?>
<!-- Created with Inkscape (http://www.inkscape.org/) -->

<svg
   xmlns:dc="http://purl.org/dc/elements/1.1/"
   xmlns:cc="http://creativecommons.org/ns#"
   xmlns:rdf="http://www.w3.org/1999/02/22-rdf-syntax-ns#"
   xmlns:svg="http://www.w3.org/2000/svg"
   xmlns="http://www.w3.org/2000/svg"
   xmlns:sodipodi="http://sodipodi.sourceforge.net/DTD/sodipodi-0.dtd"
   xmlns:inkscape="http://www.inkscape.org/namespaces/inkscape"
   id="svg13710"
   version="1.1"
   inkscape:version="0.91 r13725"
   xml:space="preserve"
   width="540"
   height="215.29697"
   viewBox="0 0 540 215.29697"
   sodipodi:docname="diff_avg_space.svg"><metadata
     id="metadata13716"><rdf:RDF><cc:Work
         rdf:about=""><dc:format>image/svg+xml</dc:format><dc:type
           rdf:resource="http://purl.org/dc/dcmitype/StillImage" /><dc:title></dc:title></cc:Work></rdf:RDF></metadata><defs
     id="defs13714"><clipPath
       clipPathUnits="userSpaceOnUse"
       id="clipPath13726"><path
         d="M 0,0 792,0 792,309 0,309 0,0 Z"
         id="path13728"
         inkscape:connector-curvature="0" /></clipPath><clipPath
       clipPathUnits="userSpaceOnUse"
       id="clipPath13736"><path
         d="m 0,0.5000085 792,0 0,308.1951015 -792,0 L 0,0.5000085 Z"
         id="path13738"
         inkscape:connector-curvature="0" /></clipPath></defs><sodipodi:namedview
     pagecolor="#ffffff"
     bordercolor="#666666"
     borderopacity="1"
     objecttolerance="10"
     gridtolerance="10"
     guidetolerance="10"
     inkscape:pageopacity="0"
     inkscape:pageshadow="2"
     inkscape:window-width="1295"
     inkscape:window-height="699"
     id="namedview13712"
     showgrid="false"
     fit-margin-top="0"
     fit-margin-left="0"
     fit-margin-right="0"
     fit-margin-bottom="0"
     inkscape:zoom="0.70519371"
     inkscape:cx="460.75481"
     inkscape:cy="133.51877"
     inkscape:window-x="65"
     inkscape:window-y="24"
     inkscape:window-maximized="0"
     inkscape:current-layer="g13718" /><g
     id="g13718"
     inkscape:groupmode="layer"
     inkscape:label="diff_avg_space"
     transform="matrix(1.25,0,0,-1.25,0,206.83586)"><g
       id="g13720" /><g
       id="g13722"
       transform="matrix(0.54545455,0,0,0.54545455,0,-3.0767671)"><g
         id="g13724"
         clip-path="url(#clipPath13726)"><path
           d="M 0,0 792,0 792,309 0,309 0,0 Z"
           style="fill:#ffffff;fill-opacity:0;fill-rule:evenodd;stroke:none"
           id="path13730"
           inkscape:connector-curvature="0" /></g></g><g
       id="g13740"
       transform="matrix(0.47887882,0,0,-0.47856044,0,165.30238)"><path
         d="m 546.5781,307.762 0,3.5"
         style="fill:none;stroke:#000000;stroke-width:0.80000001;stroke-linecap:butt;stroke-linejoin:round;stroke-miterlimit:10;stroke-dasharray:none;stroke-opacity:1"
         id="path13742"
         inkscape:connector-curvature="0" /></g><g
       id="g13744"
       transform="matrix(0.47887882,0,0,-0.47856044,0,165.30238)"><path
         d="m 654.7971,307.762 0,3.5"
         style="fill:none;stroke:#000000;stroke-width:0.80000001;stroke-linecap:butt;stroke-linejoin:round;stroke-miterlimit:10;stroke-dasharray:none;stroke-opacity:1"
         id="path13746"
         inkscape:connector-curvature="0" /></g><g
       id="g13748"
       transform="matrix(0.47887882,0,0,-0.47856044,0,165.30238)"><path
         d="m 763.0161,307.762 0,3.5"
         style="fill:none;stroke:#000000;stroke-width:0.80000001;stroke-linecap:butt;stroke-linejoin:round;stroke-miterlimit:10;stroke-dasharray:none;stroke-opacity:1"
         id="path13750"
         inkscape:connector-curvature="0" /></g><g
       id="g13752"
       transform="matrix(0.47887882,0,0,-0.47856044,0,165.30238)"><path
         d="m 871.2341,307.762 0,3.5"
         style="fill:none;stroke:#000000;stroke-width:0.80000001;stroke-linecap:butt;stroke-linejoin:round;stroke-miterlimit:10;stroke-dasharray:none;stroke-opacity:1"
         id="path13754"
         inkscape:connector-curvature="0" /></g><g
       id="g13756"
       transform="matrix(0.47887882,0,0,-0.47856044,0,165.30238)"><path
         d="m 541.168,273.324 -3.5,0"
         style="fill:none;stroke:#000000;stroke-width:0.80000001;stroke-linecap:butt;stroke-linejoin:round;stroke-miterlimit:10;stroke-dasharray:none;stroke-opacity:1"
         id="path13758"
         inkscape:connector-curvature="0" /></g><g
       id="g13760"
       transform="matrix(0.47887882,0,0,-0.47856044,0,165.30238)"><path
         d="m 541.168,174.707 -3.5,0"
         style="fill:none;stroke:#000000;stroke-width:0.80000001;stroke-linecap:butt;stroke-linejoin:round;stroke-miterlimit:10;stroke-dasharray:none;stroke-opacity:1"
         id="path13762"
         inkscape:connector-curvature="0" /></g><g
       id="g13764"
       transform="matrix(0.47887882,0,0,-0.47856044,0,165.30238)"><path
         d="m 541.168,76.08998 -3.5,0"
         style="fill:none;stroke:#000000;stroke-width:0.80000001;stroke-linecap:butt;stroke-linejoin:round;stroke-miterlimit:10;stroke-dasharray:none;stroke-opacity:1"
         id="path13766"
         inkscape:connector-curvature="0" /></g><g
       id="g13768"
       transform="matrix(0.47887882,0,0,-0.47856044,0,165.30238)"><path
         d="m 557.4021,139.648 6.4929,7.274 6.492,19.195 6.492,28.195 6.492,31.977 6.4961,30.344 6.4919,24.301 6.4931,14.355 6.492,0.379 6.4959,-16.891 6.4921,-32.886 6.4919,-40.61 6.4921,-36.746 6.4959,-21.183 6.4931,-0.571 6.492,10.192 6.4919,10.402 6.4921,7.531 6.4959,4.231 6.493,0.562 6.492,-3.203 6.4921,-6.062 6.496,-6.18 6.4919,-1.883 6.4921,6.399 6.493,16.183 6.496,23.438 6.4919,25.656 6.4921,24.148 6.492,18.125 6.4919,3.082 6.4971,-15.672 6.4919,-27.585 6.4921,-33.36 6.492,-27.418 6.4959,-6.875 6.4921,-21.972 6.4929,-7.02 6.4921,4.266 6.496,13.636 6.492,20.219 6.492,23.098 6.492,21.058 6.496,13.496 6.4929,1.192 6.492,-13.395 6.492,-19.222 6.4921,-17.004 6.4959,-11.133 6.4921,-3.438 6.493,1.879"
         style="fill:none;stroke:#1f77b4;stroke-width:3;stroke-linecap:square;stroke-linejoin:round;stroke-miterlimit:10;stroke-dasharray:none;stroke-opacity:1"
         id="path13770"
         inkscape:connector-curvature="0" /></g><g
       id="g13772"
       transform="matrix(0.47887882,0,0,-0.47856044,0,165.30238)"><path
         d="m 557.4021,209.766 6.4929,-7.274 6.492,-19.195 6.492,-28.195 6.492,-31.977 6.4961,-30.344 6.4919,-24.30101 6.4931,-14.355 6.492,-0.379 6.4959,16.891 6.4921,32.88601 6.4919,40.61 6.4921,36.746 6.4959,21.183 6.4931,0.571 6.492,-10.192 6.4919,-10.402 6.4921,-7.531 6.4959,-4.231 6.493,-0.562 6.492,3.203 6.4921,6.062 6.496,6.18 6.4919,1.883 6.4921,-6.398 6.493,-16.184 6.496,-23.438 6.4919,-25.656 6.4921,-24.148 6.492,-18.12501 6.4919,-3.082 6.4971,15.67202 6.4919,27.58599 6.4921,33.359 6.492,27.418 6.4959,6.875 6.4921,21.973 6.4929,7.019 6.4921,-4.266 6.496,-13.636 6.492,-20.219 6.492,-23.098 6.492,-21.058 6.496,-13.496 6.4929,-1.192 6.492,13.395 6.492,19.222 6.4921,17.004 6.4959,11.133 6.4921,3.438 6.493,-1.879"
         style="fill:none;stroke:#ff7f0e;stroke-width:3;stroke-linecap:square;stroke-linejoin:round;stroke-miterlimit:10;stroke-dasharray:none;stroke-opacity:1"
         id="path13774"
         inkscape:connector-curvature="0" /></g><g
       id="g13776"
       transform="matrix(0.47887882,0,0,-0.47856044,0,165.30238)"><path
         d="m 541.168,307.762 0,-266.11002"
         style="fill:none;stroke:#000000;stroke-width:3;stroke-linecap:square;stroke-linejoin:miter;stroke-miterlimit:10;stroke-dasharray:none;stroke-opacity:1"
         id="path13778"
         inkscape:connector-curvature="0" /></g><g
       id="g13780"
       transform="matrix(0.47887882,0,0,-0.47856044,0,165.30238)"><path
         d="m 541.168,307.762 357.1211,0"
         style="fill:none;stroke:#000000;stroke-width:3;stroke-linecap:square;stroke-linejoin:miter;stroke-miterlimit:10;stroke-dasharray:none;stroke-opacity:1"
         id="path13782"
         inkscape:connector-curvature="0" /></g><g
       id="g13784"
       transform="matrix(0.47887882,0,0,-0.47856044,0,165.30238)"><path
         d="m 65.48801,307.586 0,3.5"
         style="fill:none;stroke:#000000;stroke-width:0.80000001;stroke-linecap:butt;stroke-linejoin:round;stroke-miterlimit:10;stroke-dasharray:none;stroke-opacity:1"
         id="path13786"
         inkscape:connector-curvature="0" /></g><g
       id="g13788"
       transform="matrix(0.47887882,0,0,-0.47856044,0,165.30238)"><path
         d="m 173.707,307.586 0,3.5"
         style="fill:none;stroke:#000000;stroke-width:0.80000001;stroke-linecap:butt;stroke-linejoin:round;stroke-miterlimit:10;stroke-dasharray:none;stroke-opacity:1"
         id="path13790"
         inkscape:connector-curvature="0" /></g><g
       id="g13792"
       transform="matrix(0.47887882,0,0,-0.47856044,0,165.30238)"><path
         d="m 281.926,307.586 0,3.5"
         style="fill:none;stroke:#000000;stroke-width:0.80000001;stroke-linecap:butt;stroke-linejoin:round;stroke-miterlimit:10;stroke-dasharray:none;stroke-opacity:1"
         id="path13794"
         inkscape:connector-curvature="0" /></g><g
       id="g13796"
       transform="matrix(0.47887882,0,0,-0.47856044,0,165.30238)"><path
         d="m 390.1451,307.586 0,3.5"
         style="fill:none;stroke:#000000;stroke-width:0.80000001;stroke-linecap:butt;stroke-linejoin:round;stroke-miterlimit:10;stroke-dasharray:none;stroke-opacity:1"
         id="path13798"
         inkscape:connector-curvature="0" /></g><g
       id="g13800"
       transform="matrix(0.47887882,0,0,-0.47856044,0,165.30238)"><path
         d="m 60.07801,295.535 -3.5,0"
         style="fill:none;stroke:#000000;stroke-width:0.80000001;stroke-linecap:butt;stroke-linejoin:round;stroke-miterlimit:10;stroke-dasharray:none;stroke-opacity:1"
         id="path13802"
         inkscape:connector-curvature="0" /></g><g
       id="g13804"
       transform="matrix(0.47887882,0,0,-0.47856044,0,165.30238)"><path
         d="m 60.07801,174.504 -3.5,0"
         style="fill:none;stroke:#000000;stroke-width:0.80000001;stroke-linecap:butt;stroke-linejoin:round;stroke-miterlimit:10;stroke-dasharray:none;stroke-opacity:1"
         id="path13806"
         inkscape:connector-curvature="0" /></g><g
       id="g13808"
       transform="matrix(0.47887882,0,0,-0.47856044,0,165.30238)"><path
         d="m 60.07801,53.47701 -3.5,0"
         style="fill:none;stroke:#000000;stroke-width:0.80000001;stroke-linecap:butt;stroke-linejoin:round;stroke-miterlimit:10;stroke-dasharray:none;stroke-opacity:1"
         id="path13810"
         inkscape:connector-curvature="0" /></g><g
       id="g13812"
       transform="matrix(0.47887882,0,0,-0.47856044,0,165.30238)"><path
         d="m 76.31201,94.734 6.49299,12.571 6.49201,13.25 6.496,13.824 6.49199,14.183 6.492,14.329 6.493,14.289 6.492,14.062 6.496,13.613 6.492,12.911 6.492,12.046 6.492,11.204 6.496,10.394 6.493,9.563 6.492,8.609 6.492,7.5 6.496,6.254 6.492,4.992 6.493,3.711 6.492,2.402 6.492,1.047 6.496,-0.34 6.492,-1.707 6.492,-3.011 6.493,-4.254 6.496,-5.469 6.492,-6.676 6.492,-7.851 6.492,-9 6.496,-10.106 6.492,-11.16 6.4931,-12.133 6.4919,-12.98 6.492,-13.629 6.496,-13.75 6.492,-12.754 6.492,-13.078 6.493,-12.399 6.496,-11.863 6.4921,-11.32 6.4919,-10.762 6.492,-10.148 6.496,-9.446 6.493,-8.652 6.492,-7.758 6.492,-6.75001 6.4961,-5.633 6.4919,-4.39401 6.492,-3.05499 6.4931,-1.63701 6.4919,-0.203"
         style="fill:none;stroke:#1f77b4;stroke-width:3;stroke-linecap:square;stroke-linejoin:round;stroke-miterlimit:10;stroke-dasharray:none;stroke-opacity:1"
         id="path13814"
         inkscape:connector-curvature="0" /></g><g
       id="g13816"
       transform="matrix(0.47887882,0,0,-0.47856044,0,165.30238)"><path
         d="m 76.31201,96.023 6.49299,12.301 6.49201,12.547 6.496,12.785 6.49199,13.008 6.492,13.211 6.493,13.395 6.492,13.535 6.496,13.597 6.492,13.532 6.492,13.257 6.492,12.7 6.496,11.746 6.493,10.34 6.492,8.636 6.492,7.121 6.496,5.875 6.492,4.711 6.493,3.559 6.492,2.379 6.492,1.164 6.496,-0.117 6.492,-1.481 6.492,-2.937 6.493,-4.492 6.496,-6.067 6.492,-7.535 6.492,-8.797 6.492,-9.891 6.496,-10.773 6.492,-11.273 6.4931,-11.555 6.4919,-11.965 6.492,-12.402 6.496,-12.739 6.492,-12.5 6.492,-12.269 6.493,-12.145 6.496,-12.015 6.4921,-11.824 6.4919,-11.508 6.492,-10.996 6.496,-10.223 6.493,-9.14802 6.492,-7.80099 6.492,-6.258 6.4961,-4.922 6.4919,-3.76899 6.492,-2.645 6.4931,-1.512 6.4919,-0.27302"
         style="fill:none;stroke:#ff7f0e;stroke-width:3;stroke-linecap:square;stroke-linejoin:round;stroke-miterlimit:10;stroke-dasharray:none;stroke-opacity:1"
         id="path13818"
         inkscape:connector-curvature="0" /></g><g
       id="g13820"
       transform="matrix(0.47887882,0,0,-0.47856044,0,165.30238)"><path
         d="m 60.07801,307.586 0,-266.11302"
         style="fill:none;stroke:#000000;stroke-width:3;stroke-linecap:square;stroke-linejoin:miter;stroke-miterlimit:10;stroke-dasharray:none;stroke-opacity:1"
         id="path13822"
         inkscape:connector-curvature="0" /></g><g
       id="g13824"
       transform="matrix(0.47887882,0,0,-0.47856044,0,165.30238)"><path
         d="m 60.07801,307.586 357.12099,0"
         style="fill:none;stroke:#000000;stroke-width:3;stroke-linecap:square;stroke-linejoin:miter;stroke-miterlimit:10;stroke-dasharray:none;stroke-opacity:1"
         id="path13826"
         inkscape:connector-curvature="0" /></g><path
       d="m 7.5140891,40.601875 c 0,0.342174 -0.035438,1.185392 -0.2691327,1.759194 -0.3423982,0.807328 -1.0233655,0.861884 -1.1861837,0.861884 -0.5028218,0 -0.9687692,-0.432142 -0.9687692,-1.220804 0,-1.274885 1.1129165,-3.015414 3.1237238,-3.015414 1.1675072,0 2.0654077,0.682429 2.0654077,1.813265 0,1.631891 -1.2216223,2.583273 -1.3470877,2.583273 -0.070871,0 -0.1609037,-0.05408 -0.1609037,-0.124904 0,-0.07131 0.035918,-0.08997 0.1254655,-0.1608 1.1315949,-0.8973 1.1315949,-2.15352 1.1315949,-2.280818 0,-0.8973 -0.9706913,-1.003544 -1.3298513,-1.003544 -0.1422272,0 -0.4846254,0.01675 -1.1842636,0.17946 l 0,0.609208 z m -0.2523709,-0.53838 c -1.74168,0.448412 -1.9212617,1.633805 -1.9212617,1.938654 0,0.519715 0.3423999,0.842744 0.7183162,0.842744 1.2029455,0 1.2029455,-1.830016 1.2029455,-2.313846 l 0,-0.467552 z"
       style="fill:#000000;fill-opacity:1;fill-rule:nonzero;stroke:none"
       id="path13828"
       inkscape:connector-curvature="0" /><path
       d="m 1.0588009,45.480802 c -0.23177726,0 -0.46594908,-0.196211 -0.46594908,-0.465164 0,-0.234011 0.19634073,-0.448887 0.46594908,-0.448887 0.2878064,0 0.4678647,0.233536 0.4678647,0.448887 0,0.268953 -0.1987347,0.465164 -0.4678647,0.465164 z m 1.4907502,-1.218895 0.2882847,0 c 0,0.501055 0.054113,0.574271 0.4487095,0.574271 l 2.0821652,0 c 0.3424004,0 0.3424004,-0.07322 0.3424004,-0.592936 l 0.2858891,0 c 0,0.01866 -0.035438,0.574271 -0.035438,0.897305 0,0.288088 0.018676,0.574271 0.035438,0.843224 l -0.2858891,0 c 0,-0.465644 0,-0.538385 -0.3424004,-0.538385 l -2.90871,0 0.089551,-1.183479 z"
       style="fill:#000000;fill-opacity:1;fill-rule:nonzero;stroke:none"
       id="path13830"
       inkscape:connector-curvature="0" /><path
       d="m 3.034176,51.859069 c -0.2317773,0 -0.5741755,-0.108163 -0.5741755,-0.431678 0,-0.196205 0.2523693,-0.412991 0.4487095,-0.412991 0.2696089,0 0.3237218,0.431657 0.8624607,0.431657 0.5200626,0 1.6703297,-0.52163 1.6703297,-1.41893 0,-0.37567 -0.2691306,-0.699174 -0.6282889,-0.807332 -0.1628193,0.108158 -0.7183184,0.287612 -0.9333355,0.287612 -0.1087053,0 -0.2341713,-0.07082 -0.2341713,-0.198125 0,-0.411076 0.8624608,-0.448407 1.1488298,-0.448407 0.2878064,-0.214877 0.6469659,-0.628353 0.6469659,-1.148073 0,-0.429742 -0.3945966,-0.7365 -0.9333349,-0.7365 -0.9352506,0 -1.7057668,0.807813 -1.8331484,0.807813 -0.090029,0 -0.1795795,-0.07131 -0.1795795,-0.160795 0,-0.07131 0.037352,-0.125383 0.1087053,-0.17946 0.1249876,-0.108638 0.3045671,-0.214876 0.4673858,-0.304843 0.4846255,-0.287619 1.1483515,-0.484304 1.7416828,-0.484304 0.6282889,0 1.257054,0.250767 1.257054,0.987267 0,0.53838 -0.3423982,1.004018 -0.772908,1.291637 0.4846243,0.160794 0.772908,0.502969 0.772908,1.022683 0,1.400269 -2.369969,1.902769 -3.0360895,1.902769 z"
       style="fill:#000000;fill-opacity:1;fill-rule:nonzero;stroke:none"
       id="path13832"
       inkscape:connector-curvature="0" /><path
       d="m 4.3807838,54.321251 c -0.052198,0 -0.7705162,0.198109 -0.8078689,0.198109 -0.071353,0.01866 -0.4659491,0.250309 -0.6642049,0.519709 -0.054113,0.07276 -0.2150165,0.287618 -0.2150165,0.646528 0,0.07135 0,0.269454 0.1087052,0.430254 0.070874,-0.250745 0.3045671,-0.340254 0.4487095,-0.340254 0.1609036,0 0.2863696,0.1254 0.2863696,0.304854 0,0.198109 -0.1441423,0.448418 -0.4846249,0.448418 -0.4132729,0 -0.5928524,-0.429763 -0.5928524,-0.843272 0,-0.412964 0.1795795,-0.771873 0.5741755,-1.130837 -0.4846249,-0.144 -0.5741755,-0.627818 -0.5741755,-0.824073 0,-0.288054 0.1982559,-0.486218 0.4132724,-0.628309 0.305046,-0.179509 0.7724318,-0.288109 0.8270236,-0.288109 0.089551,0 0.089551,0.1086 0.089551,0.144055 0,0.106691 -0.018676,0.106691 -0.2336929,0.1608 -0.4846255,0.125345 -0.8624607,0.288054 -0.8624607,0.592418 0,0.2154 0.1795794,0.269455 0.394596,0.269455 0.1441423,0 0.4491883,-0.07086 0.6642049,-0.144055 0.2169321,-0.05405 0.5387389,-0.1254 0.7183183,-0.1608 l 1.02528,-0.268964 c 0.1063091,-0.01865 0.3045655,-0.0732 0.3213273,-0.0732 0.17958,0 0.2528455,0.144055 0.2528455,0.269455 0,0.127254 -0.073265,0.287564 -0.2150128,0.342164 -0.054595,0.01675 -0.4137523,0.1062 -0.6120082,0.1608 l -0.8624607,0.214854 z"
       style="fill:#000000;fill-opacity:1;fill-rule:nonzero;stroke:none"
       id="path13834"
       inkscape:connector-curvature="0" /><path
       d="m 5.4189927,60.114197 c -0.6282889,0 -0.8078683,-0.431619 -0.8078683,-0.951328 0,-0.611127 0.3423981,-0.932727 0.5574147,-1.076782 l -0.5574147,0 0.072789,-0.932727 0.2509326,0 c 0,0.429764 0.035437,0.484309 0.3045671,0.484309 l 1.4198776,0 c 0.17958,0 0.2341691,0 0.2341691,-0.377563 l 0,-0.106746 0.2504564,0 C 7.12524,57.403669 7.12524,57.637669 7.12524,57.887978 c 0,0.233509 0,0.484309 0.018676,0.736473 l -0.2504564,0 0,-0.108164 c 0,-0.376145 -0.054589,-0.376145 -0.2341691,-0.376145 l -0.9874527,0 c -0.6474415,0 -0.862458,0.591055 -0.862458,0.949964 0,0.431672 0.2336923,0.521618 0.5928518,0.521618 l 1.2570589,0 c 0.17958,0 0.2341691,0 0.2341691,-0.377564 l 0,-0.09 0.2504564,0 C 7.12524,59.377724 7.12524,59.628469 7.12524,59.862033 c 0,0.252164 0,0.484309 0.018676,0.736473 l -0.2504564,0 0,-0.108164 c 0,-0.376145 -0.054589,-0.376145 -0.2341691,-0.376145 l -1.2402982,0 z"
       style="fill:#000000;fill-opacity:1;fill-rule:nonzero;stroke:none"
       id="path13836"
       inkscape:connector-curvature="0" /><path
       d="m 5.4189927,64.404524 c -0.6282889,0 -0.8078683,-0.429764 -0.8078683,-0.951382 0,-0.609218 0.3423981,-0.932727 0.5574147,-1.076782 l -0.5574147,0 0.072789,-0.932673 0.2509326,0 c 0,0.42971 0.035437,0.483819 0.3045671,0.483819 l 1.4198776,0 c 0.17958,0 0.2341691,0 0.2341691,-0.375709 l 0,-0.10811 0.2504564,0 C 7.12524,61.693942 7.12524,61.927506 7.12524,62.18016 c 0,0.231655 0,0.484309 0.018676,0.734618 l -0.2504564,0 0,-0.106745 c 0,-0.377564 -0.054589,-0.377564 -0.2341691,-0.377564 l -0.9874527,0 c -0.6474415,0 -0.862458,0.592909 -0.862458,0.951873 0,0.429709 0.2336923,0.519218 0.5928518,0.519218 l 1.2570589,0 c 0.17958,0 0.2341691,0 0.2341691,-0.375654 l 0,-0.08951 0.2504564,0 c -0.018676,0.2316 -0.018676,0.484309 -0.018676,0.717818 0,0.250309 0,0.484309 0.018676,0.734618 l -0.2504564,0 0,-0.106746 c 0,-0.377563 -0.054589,-0.377563 -0.2341691,-0.377563 l -1.2402982,0 z"
       style="fill:#000000;fill-opacity:1;fill-rule:nonzero;stroke:none"
       id="path13838"
       inkscape:connector-curvature="0" /><path
       d="m 0.34048282,69.842869 c -0.10678997,0.05215 -0.12546622,0.05215 -0.142227,0.05215 C 0.07087407,69.895015 0,69.788324 0,69.698815 0,69.573415 0.09002924,69.536106 0.19825582,69.48396 L 7.6510473,66.503978 c 0.1063091,-0.05411 0.1249854,-0.05411 0.1417472,-0.05411 0.12738,0 0.1987364,0.108164 0.1987364,0.198164 0,0.144 -0.090033,0.179454 -0.1987364,0.214854 l -7.45231168,2.979982 z"
       style="fill:#000000;fill-opacity:1;fill-rule:nonzero;stroke:none"
       id="path13840"
       inkscape:connector-curvature="0" /><path
       d="m 2.9273864,74.02836 c 0.054592,-0.288109 0.2696083,-0.396709 0.4491883,-0.396709 0.215016,0 0.3050455,0.162709 0.3050455,0.306764 0,0.179454 -0.125466,0.448854 -0.520062,0.448854 -0.5387389,0 -0.7015577,-0.611563 -0.7015577,-1.041327 0,-1.202127 1.1129144,-2.316218 2.2277444,-2.316218 0.6809656,0 1.3825206,0.467509 1.3825206,1.473 0,1.362927 -0.7915839,1.9908 -0.8978957,1.9908 -0.054113,0 -0.1441423,-0.0708 -0.1441423,-0.144055 0,-0.0354 0.018676,-0.05214 0.090029,-0.124909 0.7369958,-0.628309 0.7369958,-1.561036 0.7369958,-1.705091 0,-0.573818 -0.3969927,-0.824072 -0.8978994,-0.824072 -0.2174106,0 -1.096632,0.106254 -1.6540473,0.519709 -0.394596,0.304363 -0.6096125,0.717818 -0.6096125,1.130836 0,0.106255 0.018676,0.484309 0.2336929,0.682418 z"
       style="fill:#000000;fill-opacity:1;fill-rule:nonzero;stroke:none"
       id="path13842"
       inkscape:connector-curvature="0" /><path
       d="m 12.901473,82.789833 c -0.03544,0 -0.05411,0 -0.252366,-0.198109 -1.43664,-1.417037 -3.6083561,-1.7946 -5.3687125,-1.7946 -1.9940514,0 -3.9861872,0.431673 -5.4060627,1.848709 -0.1422273,0.144 -0.1609036,0.144 -0.1963402,0.144 -0.090029,0 -0.1254665,-0.0354 -0.1254665,-0.108109 0,-0.1254 0.7896714,-1.148073 2.244984,-1.830491 1.2570573,-0.573818 2.5308764,-0.717873 3.4828854,-0.717873 0.8979,0 2.28042,0.1254 3.5915895,0.753764 1.401201,0.700582 2.154954,1.6692 2.154954,1.7946 0,0.07271 -0.03543,0.108109 -0.125465,0.108109 z"
       style="fill:#000000;fill-opacity:1;fill-rule:nonzero;stroke:none"
       id="path13844"
       inkscape:connector-curvature="0" /><path
       d="m 9.2557691,87.921469 1.0233659,0 -0.125466,1.652455 -0.3591599,0 c 0,-0.790582 -0.070876,-0.880527 -0.6469636,-0.880527 l -4.057542,0 0.125466,-1.686 0.3591578,0 c 0,0.788672 0.070876,0.897327 0.6469636,0.897327 l 2.0280546,0 c 1.0061236,0 1.7785585,-0.557073 1.7785585,-1.400291 0,-0.951382 -0.5387404,-1.005927 -1.1315949,-1.005927 l -3.8066056,0 0.125466,-1.685946 0.3591578,0 c 0,0.897273 0.035438,0.897273 1.0415618,0.897273 l 1.7230091,0 c 0.8978945,0 1.9399368,0 1.9399368,1.740545 0,0.646528 -0.3237223,1.149491 -1.0233659,1.471091 z"
       style="fill:#000000;fill-opacity:1;fill-rule:nonzero;stroke:none"
       id="path13846"
       inkscape:connector-curvature="0" /><path
       d="m 6.2215909,91.067542 3.0696164,0 c 0.5033018,0 0.5033018,-0.1254 0.5033018,-0.897327 l 0.3591599,0 c -0.01868,0.413018 -0.03544,0.987272 -0.03544,1.310291 0,0.2862 0.01676,0.878672 0.03544,1.273472 l -0.3591599,0 c 0,-0.772418 0,-0.897327 -0.5033018,-0.897327 l -2.1190418,0 c -1.1842637,0 -1.831709,0.825982 -1.831709,1.543855 0,0.734563 0.6120071,0.861872 1.2757326,0.861872 l 2.6750182,0 c 0.5033018,0 0.5033018,-0.127309 0.5033018,-0.897272 l 0.3591599,0 c -0.01868,0.394309 -0.03544,0.986781 -0.03544,1.291636 0,0.286145 0.01676,0.897273 0.03544,1.272927 l -0.3591599,0 c 0,-0.590509 0,-0.878618 -0.3404836,-0.878618 l -2.1923073,0 c -0.9874473,0 -1.3279309,0 -1.74168,-0.358909 -0.1963424,-0.1608 -0.4300347,-0.538364 -0.4300347,-1.201691 0,-0.843218 0.4846238,-1.381582 1.2029438,-1.705091 l -1.2029438,0 0.125466,-1.615145 0.3591578,0 c 0,0.807818 0.070876,0.897327 0.6469636,0.897327 z"
       style="fill:#000000;fill-opacity:1;fill-rule:nonzero;stroke:none"
       id="path13848"
       inkscape:connector-curvature="0" /><path
       d="m 5.0900035,98.195651 0.125466,-1.596436 0.3591578,0 c 0,0.736472 0.070876,0.842727 0.6282927,0.842727 l 3.0882873,0 c 0.5033018,0 0.5033018,-0.124909 0.5033018,-0.897273 l 0.3591599,0 c -0.01868,0.358909 -0.03544,0.987218 -0.03544,1.256182 0,0.413509 0.01676,0.807818 0.03544,1.202127 l -0.3591599,0 c 0,-0.769963 -0.054115,-0.807327 -0.5033018,-0.807327 l -4.2012038,0 z m -1.994052,0.03736 c -0.359159,0 -0.6100915,-0.269455 -0.6100915,-0.592964 0,-0.358909 0.305046,-0.611127 0.6100915,-0.611127 0.305046,0 0.6115287,0.252218 0.6115287,0.611127 0,0.323509 -0.2523693,0.592964 -0.6115287,0.592964 z"
       style="fill:#000000;fill-opacity:1;fill-rule:nonzero;stroke:none"
       id="path13850"
       inkscape:connector-curvature="0" /><path
       d="m 5.5746273,101.32116 0,1.65055 -0.3591578,0 0,-1.65055 -2.1008417,0 0,-0.28811 c 0.9333349,0 2.1549546,-0.34025 2.209068,-1.47109 l 0.2509315,0 0,0.97004 3.1610782,0 c 1.3992875,0 1.5434295,1.07678 1.5434295,1.48832 0,0.80733 -0.8083477,1.13084 -1.5434295,1.13084 l -0.6469637,0 0,-0.28615 0.6282873,0 c 0.8437854,0 1.2757364,-0.34172 1.2757364,-0.77192 0,-0.77193 -1.0420419,-0.77193 -1.2402982,-0.77193 l -3.17784,0 z"
       style="fill:#000000;fill-opacity:1;fill-rule:nonzero;stroke:none"
       id="path13852"
       inkscape:connector-curvature="0" /><path
       d="m 2.1980536,105.82438 0.1254666,-1.65055 0.3591589,0 c 0,0.80733 0.072789,0.89733 0.6469653,0.89733 l 5.9615629,0 c 0.5033018,0 0.5033018,-0.1254 0.5033018,-0.89733 l 0.3591599,0 c -0.01868,0.37762 -0.03544,0.98684 -0.03544,1.27489 0,0.2862 0.01676,0.84322 0.03544,1.27299 l -0.3591599,0 c 0,-0.77193 0,-0.89733 -0.5033018,-0.89733 l -7.0931537,0 z"
       style="fill:#000000;fill-opacity:1;fill-rule:nonzero;stroke:none"
       id="path13854"
       inkscape:connector-curvature="0" /><path
       d="m 7.2617182,108.25072 c -1.7057673,0.0713 -1.9921358,1.03942 -1.9921358,1.43564 0,1.16678 1.5434285,1.29213 1.9921358,1.29213 l 0,-2.72777 z m 0.2523709,0 0,3.19293 c 0,0.25271 0,0.28811 -0.2523709,0.28811 -1.1296746,0 -2.2445051,-0.62836 -2.2445051,-2.0454 0,-1.32895 1.1857069,-2.38702 2.6223414,-2.38702 1.5266673,0 2.6395805,1.20213 2.6395805,2.51242 0,1.40029 -1.2738168,1.92 -1.4907495,1.92 -0.1067891,0 -0.1422273,-0.0899 -0.1422273,-0.1608 0,-0.09 0.070871,-0.12731 0.1609036,-0.14405 1.1857037,-0.39431 1.1857037,-1.4357 1.1857037,-1.5443 0,-0.57381 -0.3423982,-1.02223 -0.7724346,-1.29163 -0.5387345,-0.34026 -1.2924927,-0.34026 -1.7062418,-0.34026 z"
       style="fill:#000000;fill-opacity:1;fill-rule:nonzero;stroke:none"
       id="path13856"
       inkscape:connector-curvature="0" /><path
       d="m 7.9278382,114.44807 c 0.0522,0.25031 0.23178,1.18489 1.0588036,1.18489 0.5741727,0 1.0415622,-0.39622 1.0415622,-1.29355 0,-0.96812 -0.6469695,-1.38158 -1.6348967,-1.59643 -0.1436618,-0.0355 -0.17958,-0.0355 -0.17958,-0.1608 0,-0.14406 0.073271,-0.14406 0.2696127,-0.14406 l 1.526187,0 c 0.198257,0 0.269608,0 0.269608,0.12535 0,0.0541 -0.01676,0.0709 -0.233695,0.28811 -0.01724,0.0167 -0.03591,0.0167 -0.2509309,0.23165 0.4678639,0.50297 0.4846259,1.02458 0.4846259,1.25618 0,1.31035 -0.7724295,1.84871 -1.5975386,1.84871 -0.5928546,0 -0.9520146,-0.34025 -1.07748,-0.48381 C 7.22628,115.32625 7.1362527,114.87783 7.0467,114.39352 c -0.1254655,-0.64461 -0.2696073,-1.40029 -0.9333327,-1.40029 -0.4137491,0 -0.8792226,0.28811 -0.8792226,1.27538 0,1.25619 1.0401262,1.32704 1.3820444,1.3457 0.1067891,0 0.1067891,0.10865 0.1067891,0.1254 0,0.1627 -0.052195,0.1627 -0.2691273,0.1627 l -1.1675078,0 c -0.1795795,0 -0.26913,0 -0.26913,-0.1273 0,-0.0521 0,-0.09 0.143664,-0.2316 0.035915,-0.0378 0.1441424,-0.14406 0.1795794,-0.19817 -0.3232434,-0.4302 -0.3232434,-0.89727 -0.3232434,-1.07673 0,-1.40029 0.7724324,-1.83049 1.419396,-1.83049 0.3950782,0 0.71832,0.17946 0.9692509,0.48431 0.2878091,0.37757 0.35916,0.69917 0.5219782,1.52564 z"
       style="fill:#000000;fill-opacity:1;fill-rule:nonzero;stroke:none"
       id="path13858"
       inkscape:connector-curvature="0" /><path
       d="m 7.9278382,118.9604 c 0.0522,0.2508 0.23178,1.18543 1.0588036,1.18543 0.5741727,0 1.0415622,-0.39627 1.0415622,-1.2936 0,-0.96856 -0.6469695,-1.38158 -1.6348967,-1.59643 -0.1436618,-0.0355 -0.17958,-0.0355 -0.17958,-0.1608 0,-0.14406 0.073271,-0.14406 0.2696127,-0.14406 l 1.526187,0 c 0.198257,0 0.269608,0 0.269608,0.1254 0,0.0541 -0.01676,0.0708 -0.233695,0.28762 -0.01724,0.0167 -0.03591,0.0167 -0.2509309,0.23209 0.4678639,0.50247 0.4846259,1.02409 0.4846259,1.25618 0,1.31035 -0.7724295,1.84871 -1.5975386,1.84871 -0.5928546,0 -0.9520146,-0.34025 -1.07748,-0.48431 C 7.22628,119.83907 7.1362527,119.39065 7.0467,118.90634 c -0.1254655,-0.64511 -0.2696073,-1.40029 -0.9333327,-1.40029 -0.4137491,0 -0.8792226,0.28811 -0.8792226,1.27489 0,1.25624 1.0401262,1.32753 1.3820444,1.34618 0.1067891,0 0.1067891,0.10817 0.1067891,0.12491 0,0.16271 -0.052195,0.16271 -0.2691273,0.16271 l -1.1675078,0 c -0.1795795,0 -0.26913,0 -0.26913,-0.12682 0,-0.0526 0,-0.0899 0.143664,-0.23209 0.035915,-0.0373 0.1441424,-0.14356 0.1795794,-0.19811 -0.3232434,-0.42976 -0.3232434,-0.89732 -0.3232434,-1.07678 0,-1.40023 0.7724324,-1.83 1.419396,-1.83 0.3950782,0 0.71832,0.17946 0.9692509,0.48431 0.2878091,0.37756 0.35916,0.69916 0.5219782,1.52515 z"
       style="fill:#000000;fill-opacity:1;fill-rule:nonzero;stroke:none"
       id="path13860"
       inkscape:connector-curvature="0" /><path
       d="m 7.2803945,124.3892 c -0.8792236,0 -2.2631814,-0.1254 -3.5729143,-0.75328 -1.4011997,-0.68241 -2.1549551,-1.66969 -2.1549551,-1.7778 0,-0.0713 0.052677,-0.1254 0.1254665,-0.1254 0.035437,0 0.054113,0 0.2691295,0.21486 1.1320696,1.13133 2.944626,1.77785 5.3332734,1.77785 1.9753746,0 3.9861875,-0.41296 5.4228215,-1.83191 0.144148,-0.1608 0.162819,-0.1608 0.198257,-0.1608 0.07136,0 0.125465,0.0541 0.125465,0.1254 0,0.10811 -0.789191,1.14949 -2.244502,1.81326 -1.2570596,0.59242 -2.5327905,0.71782 -3.5020415,0.71782 z"
       style="fill:#000000;fill-opacity:1;fill-rule:nonzero;stroke:none"
       id="path13862"
       inkscape:connector-curvature="0" /><g
       id="g13864"
       transform="matrix(0.47887882,0,0,0.47856044,0,-2.8040352)"><text
         transform="matrix(1,0,0,-1,36.06606,289.6498)"
         style="font-variant:normal;font-weight:normal;font-size:24px;font-family:LMRoman10;-inkscape-font-specification:LMRoman10-Regular;writing-mode:lr-tb;fill:#000000;fill-opacity:1;fill-rule:nonzero;stroke:none"
         id="text13866"><tspan
           x="0"
           y="0"
           id="tspan13868">1</tspan></text>
</g><g
       id="g13870"
       transform="matrix(0.47887882,0,0,0.47856044,0,-2.8040352)"><text
         transform="matrix(1,0,0,-1,31.39815,47.59282)"
         style="font-variant:normal;font-weight:normal;font-size:24px;font-family:LMRoman10;-inkscape-font-specification:LMRoman10-Regular;writing-mode:lr-tb;fill:#000000;fill-opacity:1;fill-rule:nonzero;stroke:none"
         id="text13872"><tspan
           x="0 7.9920001"
           y="0"
           sodipodi:role="line"
           id="tspan13874">-1</tspan></text>
</g><g
       id="g13876"
       transform="matrix(0.47887882,0,0,0.47856044,0,-2.8040352)"><text
         transform="matrix(1,0,0,-1,35.95434,168.8853)"
         style="font-variant:normal;font-weight:normal;font-size:24px;font-family:LMRoman10;-inkscape-font-specification:LMRoman10-Regular;writing-mode:lr-tb;fill:#000000;fill-opacity:1;fill-rule:nonzero;stroke:none"
         id="text13878"><tspan
           x="0"
           y="0"
           id="tspan13880">0</tspan></text>
</g><g
       id="g13882"
       transform="matrix(0.47887882,0,0,0.47856044,0,-2.8040352)"><text
         transform="matrix(1,0,0,-1,53.42564,21.80904)"
         style="font-variant:normal;font-weight:normal;font-size:24px;font-family:LMRoman10;-inkscape-font-specification:LMRoman10-Regular;writing-mode:lr-tb;fill:#000000;fill-opacity:1;fill-rule:nonzero;stroke:none"
         id="text13884"><tspan
           x="0 12 101.904 113.904 125.904 210.43201 222.43201 234.43201 318.74399 330.74399 342.74399"
           y="0"
           sodipodi:role="line"
           id="tspan13886">50150250350</tspan></text>
</g><g
       id="g13888"
       transform="matrix(0.47887882,0,0,0.47856044,0,-2.8040352)"><text
         transform="matrix(1,0,0,-1,534.5143,21.6305)"
         style="font-variant:normal;font-weight:normal;font-size:24px;font-family:LMRoman10;-inkscape-font-specification:LMRoman10-Regular;writing-mode:lr-tb;fill:#000000;fill-opacity:1;fill-rule:nonzero;stroke:none"
         id="text13890"><tspan
           x="0 12 101.904 113.904 125.904 210.43201 222.43201 234.43201 318.74399 330.74399 342.74399"
           y="0"
           sodipodi:role="line"
           id="tspan13892">50150250350</tspan></text>
</g><g
       id="g13928"
       transform="matrix(0.8779445,0,0,0.8773608,0,0.5000084)"><text
         transform="matrix(0,1,1,0,467.131,26.03468)"
         style="font-variant:normal;font-weight:normal;font-size:24px;font-family:LMRoman10;-inkscape-font-specification:LMRoman10-Regular;writing-mode:lr-tb;fill:#000000;fill-opacity:1;fill-rule:nonzero;stroke:none"
         id="text13930"><tspan
           x="0"
           y="0"
           id="tspan13932"></tspan></text>
</g><g
       id="g13940"
       transform="matrix(0.47887882,0,0,0.47856044,0,-2.8040352)"><text
         transform="matrix(1,0,0,-1,519.1118,169.0176)"
         style="font-variant:normal;font-weight:normal;font-size:24px;font-family:LMRoman10;-inkscape-font-specification:LMRoman10-Regular;writing-mode:lr-tb;fill:#000000;fill-opacity:1;fill-rule:nonzero;stroke:none"
         id="text13942"><tspan
           x="0"
           y="0"
           id="tspan13944">0</tspan></text>
</g><g
       id="g13946"
       transform="matrix(0.47887882,0,0,0.47856044,0,-2.8040352)"><text
         transform="matrix(1,0,0,-1,482.9625,267.2994)"
         style="font-variant:normal;font-weight:normal;font-size:24px;font-family:LMRoman10;-inkscape-font-specification:LMRoman10-Regular;writing-mode:lr-tb;fill:#000000;fill-opacity:1;fill-rule:nonzero;stroke:none"
         id="text13948"><tspan
           x="0 12 18.672001 30.672001 42.672001"
           y="0"
           sodipodi:role="line"
           id="tspan13950">0.015</tspan></text>
</g><g
       id="g13952"
       transform="matrix(0.47887882,0,0,0.47856044,0,-2.8040352)"><text
         transform="matrix(1,0,0,-1,472.8946,70.06732)"
         style="font-variant:normal;font-weight:normal;font-size:24px;font-family:LMRoman10;-inkscape-font-specification:LMRoman10-Regular;writing-mode:lr-tb;fill:#000000;fill-opacity:1;fill-rule:nonzero;stroke:none"
         id="text13954"><tspan
           x="0 7.9920001 19.992001 26.664 38.664001 50.664001"
           y="0"
           sodipodi:role="line"
           id="tspan13956">-0.015</tspan></text>
</g><g
       id="g13958"
       transform="matrix(0.47887882,0,0,-0.47856044,0,165.30238)"><path
         d="m 299.3051,261.391 -16.9301,0"
         style="fill:none;stroke:#ff7f0e;stroke-width:2.82143593;stroke-linecap:butt;stroke-linejoin:miter;stroke-miterlimit:4;stroke-dasharray:none;stroke-opacity:1"
         id="path13960"
         inkscape:connector-curvature="0" /></g><g
       id="g13962"
       transform="matrix(0.47887882,0,0,-0.47856044,0,165.30238)"><path
         d="m 299.3051,286.422 -16.9301,0"
         style="fill:none;stroke:#1f77b4;stroke-width:2.82143593;stroke-linecap:butt;stroke-linejoin:miter;stroke-miterlimit:4;stroke-dasharray:none;stroke-opacity:1"
         id="path13964"
         inkscape:connector-curvature="0" /></g><g
       id="g13966"
       transform="matrix(0.47887882,0,0,0.47856044,0,-2.8040352)"><text
         transform="matrix(1,0,0,-1,302.8961,85.38113)"
         style="font-variant:normal;font-weight:normal;font-size:20.25715065px;font-family:LMRoman10;-inkscape-font-specification:LMRoman10-Regular;writing-mode:lr-tb;fill:#000000;fill-opacity:1;fill-rule:nonzero;stroke:none"
         id="text13968"><tspan
           x="0"
           y="0"
           sodipodi:role="line"
           id="tspan13970">NS</tspan></text>
</g><g
       id="g13972"
       transform="matrix(0.47887882,0,0,0.47856044,0,-2.8040352)"><text
         transform="matrix(1,0,0,-1,302.8961,60.34921)"
         style="font-variant:normal;font-weight:normal;font-size:20.25715065px;font-family:LMRoman10;-inkscape-font-specification:LMRoman10-Regular;writing-mode:lr-tb;fill:#000000;fill-opacity:1;fill-rule:nonzero;stroke:none"
         id="text13974"><tspan
           x="0"
           sodipodi:role="line"
           id="tspan13976"
           y="0">aN</tspan></text>
</g><g
       id="g13978"
       transform="matrix(0.47887882,0,0,-0.47856044,0,165.30238)"><path
         d="m 787.4611,64.06999 -16.93,0"
         style="fill:none;stroke:#ff7f0e;stroke-width:2.82143593;stroke-linecap:butt;stroke-linejoin:miter;stroke-miterlimit:4;stroke-dasharray:none;stroke-opacity:1"
         id="path13980"
         inkscape:connector-curvature="0" /></g><g
       id="g13982"
       transform="matrix(0.47887882,0,0,-0.47856044,0,165.30238)"><path
         d="m 787.4611,89.102 -16.93,0"
         style="fill:none;stroke:#1f77b4;stroke-width:2.82143593;stroke-linecap:butt;stroke-linejoin:miter;stroke-miterlimit:4;stroke-dasharray:none;stroke-opacity:1"
         id="path13984"
         inkscape:connector-curvature="0" /></g><g
       id="g13986"
       transform="matrix(0.47887882,0,0,0.47856044,0,-2.8040352)"><text
         transform="matrix(1,0,0,-1,791.0522,282.7031)"
         style="font-variant:normal;font-weight:normal;font-size:20.25715065px;font-family:LMRoman10;-inkscape-font-specification:LMRoman10-Regular;writing-mode:lr-tb;fill:#000000;fill-opacity:1;fill-rule:nonzero;stroke:none"
         id="text13988"><tspan
           x="0"
           y="0"
           sodipodi:role="line"
           id="tspan13990">NS</tspan></text>
</g><g
       id="g13992"
       transform="matrix(0.47887882,0,0,0.47856044,0,-2.8040352)"><text
         transform="matrix(1,0,0,-1,791.0522,257.6712)"
         style="font-variant:normal;font-weight:normal;font-size:20.25715065px;font-family:LMRoman10;-inkscape-font-specification:LMRoman10-Regular;writing-mode:lr-tb;fill:#000000;fill-opacity:1;fill-rule:nonzero;stroke:none"
         id="text13994"><tspan
           x="0"
           y="0"
           sodipodi:role="line"
           id="tspan13996">aN</tspan></text>
</g><text
       xml:space="preserve"
       style="font-style:normal;font-variant:normal;font-weight:normal;font-stretch:normal;font-size:9.81818199px;line-height:125%;font-family:'Latin Modern Roman';-inkscape-font-specification:'Latin Modern Roman, Normal';text-align:start;letter-spacing:0px;word-spacing:0px;writing-mode:lr-tb;text-anchor:start;fill:#000000;fill-opacity:1;stroke:none;stroke-width:1px;stroke-linecap:butt;stroke-linejoin:miter;stroke-opacity:1"
       x="42.195206"
       y="221.06979"
       id="text14853"
       sodipodi:linespacing="125%"
       transform="matrix(0,1,1,0,0,0)"><tspan
         sodipodi:role="line"
         id="tspan14855"
         x="42.195206"
         y="221.06979">Relative difference</tspan></text>
<text
       xml:space="preserve"
       style="font-style:normal;font-variant:normal;font-weight:normal;font-stretch:normal;font-size:9.81818199px;line-height:125%;font-family:'Latin Modern Roman';-inkscape-font-specification:'Latin Modern Roman, Normal';text-align:start;letter-spacing:0px;word-spacing:0px;writing-mode:lr-tb;text-anchor:start;fill:#000000;fill-opacity:1;stroke:none;stroke-width:1px;stroke-linecap:butt;stroke-linejoin:miter;stroke-opacity:1"
       x="41.712574"
       y="4.314342"
       id="text14857"
       sodipodi:linespacing="125%"
       transform="scale(1,-1)"><tspan
         sodipodi:role="line"
         id="tspan14859"
         x="41.712574"
         y="4.314342">Nearest-neighbor distance (nm)</tspan></text>
<text
       transform="scale(1,-1)"
       sodipodi:linespacing="125%"
       id="text14861"
       y="4.314342"
       x="271.2406"
       style="font-style:normal;font-variant:normal;font-weight:normal;font-stretch:normal;font-size:9.81818199px;line-height:125%;font-family:'Latin Modern Roman';-inkscape-font-specification:'Latin Modern Roman, Normal';text-align:start;letter-spacing:0px;word-spacing:0px;writing-mode:lr-tb;text-anchor:start;fill:#000000;fill-opacity:1;stroke:none;stroke-width:1px;stroke-linecap:butt;stroke-linejoin:miter;stroke-opacity:1"
       xml:space="preserve"><tspan
         y="4.314342"
         x="271.2406"
         id="tspan14863"
         sodipodi:role="line">Nearest-neighbor distance (nm)</tspan></text>
<text
       xml:space="preserve"
       style="font-style:normal;font-variant:normal;font-weight:normal;font-stretch:normal;font-size:18.70634651px;line-height:125%;font-family:'Latin Modern Roman';-inkscape-font-specification:'Latin Modern Roman, Normal';text-align:start;letter-spacing:0px;word-spacing:0px;writing-mode:lr-tb;text-anchor:start;fill:#000000;fill-opacity:1;stroke:none;stroke-width:1px;stroke-linecap:butt;stroke-linejoin:miter;stroke-opacity:1"
       x="4.665863"
       y="-151.02028"
       id="text14865"
       sodipodi:linespacing="125%"
       transform="scale(1,-1)"><tspan
         sodipodi:role="line"
         id="tspan14867"
         x="4.665863"
         y="-151.02028">a.</tspan></text>
<text
       xml:space="preserve"
       style="font-style:normal;font-variant:normal;font-weight:normal;font-stretch:normal;font-size:18.70634651px;line-height:125%;font-family:'Latin Modern Roman';-inkscape-font-specification:'Latin Modern Roman, Normal';text-align:start;letter-spacing:0px;word-spacing:0px;writing-mode:lr-tb;text-anchor:start;fill:#000000;fill-opacity:1;stroke:none;stroke-width:1px;stroke-linecap:butt;stroke-linejoin:miter;stroke-opacity:1"
       x="219.82144"
       y="-151.02028"
       id="text14869"
       sodipodi:linespacing="125%"
       transform="scale(1,-1)"><tspan
         sodipodi:role="line"
         id="tspan14871"
         x="219.82144"
         y="-151.02028">b.</tspan></text>
</g></svg>