<?xml version="1.0" encoding="UTF-8" standalone="no"?>
<!-- Created with Inkscape (http://www.inkscape.org/) -->

<svg
   xmlns:ns0="http://www.iki.fi/pav/software/textext/"
   xmlns:dc="http://purl.org/dc/elements/1.1/"
   xmlns:cc="http://creativecommons.org/ns#"
   xmlns:rdf="http://www.w3.org/1999/02/22-rdf-syntax-ns#"
   xmlns:svg="http://www.w3.org/2000/svg"
   xmlns="http://www.w3.org/2000/svg"
   xmlns:sodipodi="http://sodipodi.sourceforge.net/DTD/sodipodi-0.dtd"
   xmlns:inkscape="http://www.inkscape.org/namespaces/inkscape"
   id="svg4155"
   version="1.1"
   inkscape:version="0.91 r13725"
   xml:space="preserve"
   width="315"
   height="233.08717"
   viewBox="0 0 315 233.08718"
   sodipodi:docname="eig_diff_scale.svg"><sodipodi:namedview
     pagecolor="#ffffff"
     bordercolor="#666666"
     borderopacity="1"
     objecttolerance="10"
     gridtolerance="10"
     guidetolerance="10"
     inkscape:pageopacity="0"
     inkscape:pageshadow="2"
     inkscape:window-width="1301"
     inkscape:window-height="744"
     id="namedview4157"
     showgrid="false"
     inkscape:zoom="0.52343148"
     inkscape:cx="597.82437"
     inkscape:cy="3.5362049"
     inkscape:window-x="65"
     inkscape:window-y="24"
     inkscape:window-maximized="1"
     inkscape:current-layer="g4163"
     fit-margin-top="0"
     fit-margin-left="0"
     fit-margin-right="0"
     fit-margin-bottom="0" /><metadata
     id="metadata4161"><rdf:RDF><cc:Work
         rdf:about=""><dc:format>image/svg+xml</dc:format><dc:type
           rdf:resource="http://purl.org/dc/dcmitype/StillImage" /><dc:title></dc:title></cc:Work></rdf:RDF></metadata><defs
     id="defs4159"><clipPath
       id="clipPath4171"
       clipPathUnits="userSpaceOnUse"><path
         inkscape:connector-curvature="0"
         id="path4173"
         d="M 0,0 373,0 373,328 0,328 0,0 Z" /></clipPath><clipPath
       id="clipPath4181"
       clipPathUnits="userSpaceOnUse"><path
         inkscape:connector-curvature="0"
         id="path4183"
         d="m 0.2592126,0.8751033 371.9898974,0 0,326.6035967 -371.9898974,0 0,-326.6035967 z" /></clipPath></defs><g
     transform="matrix(1.25,0,0,-1.25,568.99597,277.23585)"
     inkscape:label="eig_diff_scale"
     inkscape:groupmode="layer"
     id="g4163"><g
       id="g4165" /><g
       transform="matrix(0.6033977,0,0,0.60341883,-455.19677,34.763725)"
       id="g4185"><text
         id="text4187"
         style="font-variant:normal;font-weight:normal;font-size:25.53149986px;font-family:LMRoman10;-inkscape-font-specification:LMRoman10-Regular;writing-mode:lr-tb;fill:#000000;fill-opacity:1;fill-rule:nonzero;stroke:none"
         transform="matrix(0,1,1,0,19.14862,108.3703)"><tspan
           id="tspan4189"
           sodipodi:role="line"
           y="0"
           x="0 17.386951 31.505871 42.841858 52.850204 65.615952 79.096588 87.598579 97.530327 106.77274 125.92136">Energy (eV)</tspan></text>
</g><g
       transform="matrix(0.6033977,0,0,-0.60341883,-455.19677,256.017)"
       id="g4191"><path
         inkscape:connector-curvature="0"
         id="path4193"
         style="fill:none;stroke:#ff7f0e;stroke-width:3.17903805;stroke-linecap:butt;stroke-linejoin:miter;stroke-miterlimit:4;stroke-dasharray:none;stroke-opacity:1"
         d="m 95.33601,269.707 -19.07402,0" /></g><g
       transform="matrix(0.6033977,0,0,-0.60341883,-455.19677,256.017)"
       id="g4195"><path
         inkscape:connector-curvature="0"
         id="path4197"
         style="fill:none;stroke:#1f77b4;stroke-width:3.17903805;stroke-linecap:butt;stroke-linejoin:miter;stroke-miterlimit:4;stroke-dasharray:none;stroke-opacity:1"
         d="m 95.457,300.406 -19.074,0" /></g><g
       transform="matrix(0.8907071,0,0,0.8907383,0.2592126,0.8751033)"
       id="g4217"><text
         id="text4219"
         style="font-variant:normal;font-weight:normal;font-size:30.63780022px;font-family:LMRoman10;-inkscape-font-specification:LMRoman10-Regular;writing-mode:lr-tb;fill:#000000;fill-opacity:1;fill-rule:nonzero;stroke:none"
         transform="matrix(1,0,0,-1,272.3255,345.0666)"><tspan
           id="tspan4221"
           y="0"
           x="0" /></text>
</g><g
       transform="matrix(0.6033977,0,0,0.60341883,-455.19677,34.763725)"
       id="g4229"><text
         id="text4231"
         style="font-variant:normal;font-weight:normal;font-size:25.53149986px;font-family:LMRoman10;-inkscape-font-specification:LMRoman10-Regular;writing-mode:lr-tb;fill:#000000;fill-opacity:1;fill-rule:nonzero;stroke:none"
         transform="matrix(1,0,0,-1,57.90507,21.77991)"><tspan
           id="tspan4233"
           y="0"
           x="0">0</tspan></text>
</g><g
       transform="matrix(0.6033977,0,0,0.60341883,-455.19677,34.763725)"
       id="g4235"><text
         id="text4237"
         style="font-variant:normal;font-weight:normal;font-size:25.53149986px;font-family:LMRoman10;-inkscape-font-specification:LMRoman10-Regular;writing-mode:lr-tb;fill:#000000;fill-opacity:1;fill-rule:nonzero;stroke:none"
         transform="matrix(1,0,0,-1,387.385,21.77991)"><tspan
           id="tspan4239"
           sodipodi:role="line"
           y="0"
           x="0 12.76575">30</tspan></text>
</g><g
       transform="matrix(0.6033977,0,0,-0.60341883,-455.19677,256.017)"
       id="g4255"><path
         inkscape:connector-curvature="0"
         id="path4257"
         style="fill:none;stroke:#000000;stroke-width:0.80000001;stroke-linecap:butt;stroke-linejoin:round;stroke-miterlimit:10;stroke-dasharray:none;stroke-opacity:1"
         d="m 64.277,320.91 0,3.5" /></g><g
       transform="matrix(0.6033977,0,0,-0.60341883,-455.19677,256.017)"
       id="g4259"><path
         inkscape:connector-curvature="0"
         id="path4261"
         style="fill:none;stroke:#000000;stroke-width:0.80000001;stroke-linecap:butt;stroke-linejoin:round;stroke-miterlimit:10;stroke-dasharray:none;stroke-opacity:1"
         d="m 400.125,320.91 0,3.5" /></g><g
       transform="matrix(0.6033977,0,0,-0.60341883,-455.19677,256.017)"
       id="g4263"><path
         inkscape:connector-curvature="0"
         id="path4265"
         style="fill:none;stroke:#000000;stroke-width:0.80000001;stroke-linecap:butt;stroke-linejoin:round;stroke-miterlimit:10;stroke-dasharray:none;stroke-opacity:1"
         d="m 62.438,279.242 -3.5,0" /></g><g
       transform="matrix(0.6033977,0,0,-0.60341883,-455.19677,256.017)"
       id="g4267"><path
         inkscape:connector-curvature="0"
         id="path4269"
         style="fill:none;stroke:#000000;stroke-width:0.80000001;stroke-linecap:butt;stroke-linejoin:round;stroke-miterlimit:10;stroke-dasharray:none;stroke-opacity:1"
         d="m 62.438,191.055 -3.5,0" /></g><g
       transform="matrix(0.6033977,0,0,-0.60341883,-455.19677,256.017)"
       id="g4271"><path
         inkscape:connector-curvature="0"
         id="path4273"
         style="fill:none;stroke:#000000;stroke-width:0.80000001;stroke-linecap:butt;stroke-linejoin:round;stroke-miterlimit:10;stroke-dasharray:none;stroke-opacity:1"
         d="m 62.438,102.871 -3.5,0" /></g><g
       transform="matrix(0.6033977,0,0,-0.60341883,-455.19677,256.017)"
       id="g4275"><path
         inkscape:connector-curvature="0"
         id="path4277"
         style="fill:none;stroke:#1f77b4;stroke-width:3.20000005;stroke-linecap:square;stroke-linejoin:round;stroke-miterlimit:10;stroke-dasharray:none;stroke-opacity:1"
         d="m 75.47301,181.004 11.195,0.414 11.19098,0.734 11.19601,1.11 11.195,1.55 11.195,2.055 11.196,2.606 11.195,3.16 11.195,3.691 11.196,4.129 11.195,4.414 11.195,4.504 11.195,4.336 11.196,3.883 11.191,3.105 11.196,2 11.195,0.571 11.195,-1.164 11.195,-3.137 11.196,-5.274 11.195,-7.476 11.195,-9.645 11.196,-11.679 11.195,-13.489 11.195,-15.007 11.196,-16.196 11.191,-17.051 11.195,-17.566 11.196,-17.78099 11.195,-17.70699" /></g><g
       transform="matrix(0.6033977,0,0,-0.60341883,-455.19677,256.017)"
       id="g4279"><path
         inkscape:connector-curvature="0"
         id="path4281"
         style="fill:none;stroke:#ff7f0e;stroke-width:3.20000005;stroke-linecap:square;stroke-linejoin:round;stroke-miterlimit:10;stroke-dasharray:none;stroke-opacity:1"
         d="m 75.47301,201.109 11.195,-0.418 11.19098,-0.734 11.19601,-1.109 11.195,-1.551 11.195,-2.055 11.196,-2.601 11.195,-3.164 11.195,-3.692 11.196,-4.125 11.195,-4.418 11.195,-4.504 11.195,-4.336 11.196,-3.879 11.191,-3.109 11.196,-2 11.195,-0.566 11.195,1.164 11.195,3.133 11.196,5.273 11.195,7.477 11.195,9.648 11.196,11.68 11.195,13.488 11.195,15.004 11.196,16.199 11.191,17.047 11.195,17.57 11.196,17.778 11.195,17.707" /></g><g
       transform="matrix(0.6033977,0,0,-0.60341883,-455.19677,256.017)"
       id="g4283"><path
         inkscape:connector-curvature="0"
         id="path4285"
         style="fill:none;stroke:#000000;stroke-width:2.55200005;stroke-linecap:square;stroke-linejoin:miter;stroke-miterlimit:10;stroke-dasharray:none;stroke-opacity:1"
         d="m 59.238,324.113 0,-266.11301" /></g><g
       transform="matrix(0.6033977,0,0,-0.60341883,-455.19677,256.017)"
       id="g4287"><path
         inkscape:connector-curvature="0"
         id="path4289"
         style="fill:none;stroke:#000000;stroke-width:2.55200005;stroke-linecap:square;stroke-linejoin:miter;stroke-miterlimit:10;stroke-dasharray:none;stroke-opacity:1"
         d="m 59.238,324.113 357.121,0" /></g><g
       transform="matrix(0.6033977,0,0,0.60341883,-455.19677,34.763725)"
       id="g4291"><text
         id="text4293"
         style="font-variant:normal;font-weight:normal;font-size:25.53138924px;font-family:LMRoman10;-inkscape-font-specification:LMRoman10-Regular;writing-mode:lr-tb;fill:#000000;fill-opacity:1;fill-rule:nonzero;stroke:none"
         transform="matrix(1,0,0,-1,10.43856,258.6969)"><tspan
           id="tspan4295"
           sodipodi:role="line"
           y="0"
           x="0 12.765695 19.86342 32.629116">0.02</tspan></text>
</g><g
       transform="matrix(0.6033977,0,0,0.60341883,-455.19677,34.763725)"
       id="g4297"><text
         id="text4299"
         style="font-variant:normal;font-weight:normal;font-size:25.53138924px;font-family:LMRoman10;-inkscape-font-specification:LMRoman10-Regular;writing-mode:lr-tb;fill:#000000;fill-opacity:1;fill-rule:nonzero;stroke:none"
         transform="matrix(1,0,0,-1,3.461522,82.32637)"><tspan
           id="tspan4301"
           sodipodi:role="line"
           y="0"
           x="0 8.5019531 21.267649 28.365374 41.131069">-0.02</tspan></text>
</g><g
       transform="matrix(0.6033977,0,0,0.60341883,-455.19677,34.763725)"
       id="g4303"><text
         id="text4305"
         style="font-variant:normal;font-weight:normal;font-size:25.53138924px;font-family:LMRoman10;-inkscape-font-specification:LMRoman10-Regular;writing-mode:lr-tb;fill:#000000;fill-opacity:1;fill-rule:nonzero;stroke:none"
         transform="matrix(1,0,0,-1,36.73779,170.5116)"><tspan
           id="tspan4307"
           y="0"
           x="0">0</tspan></text>
</g><text
       transform="scale(1,-1)"
       sodipodi:linespacing="125%"
       id="text4434"
       y="-89.515106"
       x="-394.6369"
       style="font-style:normal;font-variant:normal;font-weight:normal;font-stretch:normal;font-size:12.19386101px;line-height:125%;font-family:'Latin Modern Roman';-inkscape-font-specification:'Latin Modern Roman, Normal';text-align:start;letter-spacing:0px;word-spacing:0px;writing-mode:lr-tb;text-anchor:start;fill:#000000;fill-opacity:1;stroke:none;stroke-width:1px;stroke-linecap:butt;stroke-linejoin:miter;stroke-opacity:1"
       xml:space="preserve"><tspan
         y="-89.515106"
         x="-394.6369"
         id="tspan4436"
         sodipodi:role="line">NS</tspan></text>
<text
       transform="scale(1,-1)"
       sodipodi:linespacing="125%"
       id="text4438"
       y="-71.444504"
       x="-394.62473"
       style="font-style:normal;font-variant:normal;font-weight:normal;font-stretch:normal;font-size:12.19386101px;line-height:125%;font-family:'Latin Modern Roman';-inkscape-font-specification:'Latin Modern Roman, Normal';text-align:start;letter-spacing:0px;word-spacing:0px;writing-mode:lr-tb;text-anchor:start;fill:#000000;fill-opacity:1;stroke:none;stroke-width:1px;stroke-linecap:butt;stroke-linejoin:miter;stroke-opacity:1"
       xml:space="preserve"><tspan
         y="-71.444504"
         x="-394.62473"
         id="tspan4440"
         sodipodi:role="line">aN</tspan></text>
<g
       ns0:preamble="/home/nick/tt_preamble.ini"
       ns0:text="$a$ (nm)"
       word-spacing="normal"
       letter-spacing="normal"
       font-size-adjust="none"
       font-stretch="normal"
       font-weight="normal"
       font-variant="normal"
       font-style="normal"
       stroke-miterlimit="10.433"
       xml:space="preserve"
       transform="matrix(1.7845993,0,0,1.7845993,-743.08423,-1133.1296)"
       id="content"
       style="font-style:normal;font-variant:normal;font-weight:normal;font-stretch:normal;letter-spacing:normal;word-spacing:normal;text-anchor:start;fill:none;fill-opacity:1;fill-rule:evenodd;stroke:#000000;stroke-linecap:butt;stroke-linejoin:miter;stroke-miterlimit:10.43299961;stroke-dasharray:none;stroke-dashoffset:0;stroke-opacity:1"><path
         id="path4503"
         d="m 227.15,661 -0.02,0.03 -0.02,0.04 -0.01,0.03 -0.02,0.03 -0.02,0.03 -0.02,0.03 -0.03,0.03 -0.02,0.03 -0.02,0.03 -0.02,0.03 -0.03,0.03 -0.02,0.02 -0.03,0.03 -0.02,0.02 -0.03,0.02 -0.03,0.03 -0.03,0.02 -0.03,0.02 -0.03,0.01 -0.03,0.02 -0.03,0.02 -0.03,0.01 -0.04,0.02 -0.03,0.01 -0.04,0.01 -0.03,0.01 -0.04,0.01 -0.04,0 -0.04,0.01 -0.04,0 -0.04,0.01 -0.04,0 0.01,-0.22 c 0.65,0 0.79,-0.82 0.79,-0.88 0,-0.06 -0.02,-0.12 -0.03,-0.17 l -0.5,-1.95 c -0.05,-0.18 -0.05,-0.2 -0.2,-0.37 -0.44,-0.55 -0.84,-0.71 -1.12,-0.71 -0.5,0 -0.64,0.55 -0.64,0.94 0,0.5 0.32,1.72 0.55,2.18 0.31,0.59 0.75,0.96 1.15,0.96 l -0.01,0.22 c -1.16,0 -2.4,-1.47 -2.4,-2.92 0,-0.94 0.55,-1.6 1.33,-1.6 0.19,0 0.69,0.04 1.29,0.75 0.08,-0.42 0.43,-0.75 0.91,-0.75 0.35,0 0.58,0.23 0.74,0.55 0.16,0.36 0.29,0.97 0.29,0.99 0,0.1 -0.09,0.1 -0.12,0.1 -0.09,0 -0.11,-0.04 -0.14,-0.18 -0.17,-0.65 -0.34,-1.24 -0.75,-1.24 -0.27,0 -0.3,0.26 -0.3,0.46 0,0.22 0.02,0.3 0.13,0.74 0.11,0.42 0.13,0.52 0.22,0.89 l 0.36,1.4 c 0.07,0.28 0.07,0.3 0.07,0.34 0,0.17 -0.12,0.27 -0.29,0.27 -0.24,0 -0.39,-0.22 -0.42,-0.44 z"
         inkscape:connector-curvature="0"
         style="fill:#000000;stroke-width:0" /><path
         id="path4505"
         d="m 235.32,654.84 0,0.01 0,0 0,0 0,0.01 0,0 0,0 -0.01,0.01 0,0 0,0 0,0.01 0,0 -0.01,0.01 0,0 0,0.01 -0.01,0 0,0.01 -0.01,0.01 0,0 -0.01,0.01 0,0 0,0.01 -0.01,0 0,0.01 -0.01,0 0,0 0,0.01 -0.01,0 0,0.01 -0.01,0 0,0.01 -0.01,0.01 0,0 -0.01,0.01 -0.01,0 0,0.01 -0.01,0.01 -0.01,0 0,0.01 -0.01,0.01 -0.01,0.01 0,0 -0.01,0.01 c -1.25,1.26 -1.57,3.14 -1.57,4.66 0,1.74 0.38,3.47 1.61,4.71 0.13,0.12 0.13,0.15 0.13,0.17 0,0.07 -0.04,0.1 -0.1,0.1 -0.1,0 -1,-0.67 -1.59,-1.94 -0.5,-1.09 -0.62,-2.2 -0.62,-3.04 0,-0.77 0.11,-1.98 0.65,-3.11 0.6,-1.22 1.46,-1.87 1.56,-1.87 0.06,0 0.1,0.03 0.1,0.1 z"
         inkscape:connector-curvature="0"
         style="fill:#000000;stroke-width:0" /><path
         id="path4507"
         d="m 236.99,660.66 0,-2.67 c 0,-0.45 -0.11,-0.45 -0.78,-0.45 l 0,-0.31 c 0.35,0.01 0.86,0.03 1.13,0.03 0.25,0 0.77,-0.02 1.11,-0.03 l 0,0.31 c -0.67,0 -0.78,0 -0.78,0.45 l 0,1.83 c 0,1.04 0.71,1.6 1.35,1.6 0.63,0 0.74,-0.54 0.74,-1.11 l 0,-2.32 c 0,-0.45 -0.11,-0.45 -0.78,-0.45 l 0,-0.31 c 0.35,0.01 0.86,0.03 1.12,0.03 0.26,0 0.78,-0.02 1.12,-0.03 l 0,0.31 c -0.52,0 -0.77,0 -0.78,0.3 l 0,1.9 c 0,0.86 0,1.17 -0.31,1.53 -0.14,0.17 -0.46,0.37 -1.04,0.37 -0.73,0 -1.2,-0.43 -1.48,-1.05 l 0,1.05 -1.4,-0.11 0,-0.31 c 0.7,0 0.78,-0.07 0.78,-0.56 z"
         inkscape:connector-curvature="0"
         style="fill:#000000;stroke-width:0" /><path
         id="path4509"
         d="m 242.52,660.66 0,-2.67 c 0,-0.45 -0.11,-0.45 -0.78,-0.45 l 0,-0.31 c 0.35,0.01 0.86,0.03 1.13,0.03 0.26,0 0.78,-0.02 1.12,-0.03 l 0,0.31 c -0.67,0 -0.78,0 -0.78,0.45 l 0,1.83 c 0,1.04 0.71,1.6 1.34,1.6 0.63,0 0.74,-0.54 0.74,-1.11 l 0,-2.32 c 0,-0.45 -0.11,-0.45 -0.78,-0.45 l 0,-0.31 c 0.35,0.01 0.86,0.03 1.13,0.03 0.26,0 0.78,-0.02 1.12,-0.03 l 0,0.31 c -0.67,0 -0.78,0 -0.78,0.45 l 0,1.83 c 0,1.04 0.7,1.6 1.34,1.6 0.63,0 0.74,-0.54 0.74,-1.11 l 0,-2.32 c 0,-0.45 -0.11,-0.45 -0.78,-0.45 l 0,-0.31 c 0.35,0.01 0.86,0.03 1.13,0.03 0.26,0 0.78,-0.02 1.11,-0.03 l 0,0.31 c -0.51,0 -0.76,0 -0.77,0.3 l 0,1.9 c 0,0.86 0,1.17 -0.31,1.53 -0.14,0.17 -0.47,0.37 -1.05,0.37 -0.83,0 -1.27,-0.6 -1.44,-0.98 -0.14,0.87 -0.88,0.98 -1.33,0.98 -0.72,0 -1.19,-0.43 -1.47,-1.05 l 0,1.05 -1.41,-0.11 0,-0.31 c 0.7,0 0.78,-0.07 0.78,-0.56 z"
         inkscape:connector-curvature="0"
         style="fill:#000000;stroke-width:0" /><path
         id="path4511"
         d="m 252.61,659.72 0,0.08 0,0.07 -0.01,0.08 0,0.08 -0.01,0.17 -0.01,0.18 -0.02,0.18 -0.02,0.19 -0.02,0.2 -0.04,0.2 -0.04,0.2 -0.04,0.21 -0.06,0.21 -0.06,0.21 -0.07,0.21 -0.08,0.22 -0.04,0.1 -0.04,0.11 -0.05,0.11 -0.05,0.1 c -0.6,1.23 -1.46,1.87 -1.55,1.87 -0.06,0 -0.11,-0.04 -0.11,-0.1 0,-0.02 0,-0.05 0.2,-0.22 0.97,-0.99 1.54,-2.58 1.54,-4.66 0,-1.7 -0.37,-3.45 -1.6,-4.71 -0.14,-0.12 -0.14,-0.14 -0.14,-0.17 0,-0.06 0.05,-0.1 0.11,-0.1 0.09,0 0.99,0.68 1.58,1.94 0.51,1.1 0.63,2.21 0.63,3.04 z"
         inkscape:connector-curvature="0"
         style="fill:#000000;stroke-width:0" /></g></g></svg>