<?xml version="1.0" encoding="UTF-8" standalone="no"?>
<!-- Created with Inkscape (http://www.inkscape.org/) -->

<svg
   xmlns:ns0="http://www.iki.fi/pav/software/textext/"
   xmlns:dc="http://purl.org/dc/elements/1.1/"
   xmlns:cc="http://creativecommons.org/ns#"
   xmlns:rdf="http://www.w3.org/1999/02/22-rdf-syntax-ns#"
   xmlns:svg="http://www.w3.org/2000/svg"
   xmlns="http://www.w3.org/2000/svg"
   xmlns:sodipodi="http://sodipodi.sourceforge.net/DTD/sodipodi-0.dtd"
   xmlns:inkscape="http://www.inkscape.org/namespaces/inkscape"
   id="svg4596"
   version="1.1"
   inkscape:version="0.91 r13725"
   xml:space="preserve"
   width="315"
   height="241.30872"
   viewBox="0 0 315 241.30872"
   sodipodi:docname="length_comparison_scale.svg"><sodipodi:namedview
     pagecolor="#ffffff"
     bordercolor="#666666"
     borderopacity="1"
     objecttolerance="10"
     gridtolerance="10"
     guidetolerance="10"
     inkscape:pageopacity="0"
     inkscape:pageshadow="2"
     inkscape:window-width="1151"
     inkscape:window-height="669"
     id="namedview4598"
     showgrid="false"
     inkscape:zoom="0.55635581"
     inkscape:cx="160.08494"
     inkscape:cy="52.191647"
     inkscape:window-x="65"
     inkscape:window-y="24"
     inkscape:window-maximized="0"
     inkscape:current-layer="g4604"
     fit-margin-top="0"
     fit-margin-left="0"
     fit-margin-right="0"
     fit-margin-bottom="0" /><metadata
     id="metadata4602"><rdf:RDF><cc:Work
         rdf:about=""><dc:format>image/svg+xml</dc:format><dc:type
           rdf:resource="http://purl.org/dc/dcmitype/StillImage" /><dc:title></dc:title></cc:Work></rdf:RDF></metadata><defs
     id="defs4600"><clipPath
       id="clipPath4612"
       clipPathUnits="userSpaceOnUse"><path
         inkscape:connector-curvature="0"
         id="path4614"
         d="M 0,0 441,0 441,364 0,364 0,0 Z" /></clipPath><clipPath
       id="clipPath4622"
       clipPathUnits="userSpaceOnUse"><path
         inkscape:connector-curvature="0"
         id="path4624"
         d="m 0,0.8370056 440.0869,0 0,362.4245044 L 0,363.26151 0,0.8370056 Z" /></clipPath><clipPath
       id="clipPath4658"
       clipPathUnits="userSpaceOnUse"><path
         inkscape:connector-curvature="0"
         id="path4660"
         d="m 72.62794,282.2088 351.4524,0 0,35.095 -351.4524,0 0,-35.095 z" /></clipPath><clipPath
       id="clipPath4670"
       clipPathUnits="userSpaceOnUse"><path
         inkscape:connector-curvature="0"
         id="path4672"
         d="m 72.62794,282.2088 351.4524,0 0,39.27298 -351.4524,0 0,-39.27298 z" /></clipPath><clipPath
       id="clipPath4682"
       clipPathUnits="userSpaceOnUse"><path
         inkscape:connector-curvature="0"
         id="path4684"
         d="m 71.79314,51.5845 353.122,0 0,224.7752 -353.122,0 0,-224.7752 z" /></clipPath><clipPath
       id="clipPath4694"
       clipPathUnits="userSpaceOnUse"><path
         inkscape:connector-curvature="0"
         id="path4696"
         d="m 0,0.8370056 440.0869,0 0,362.4245044 L 0,363.26151 0,0.8370056 Z" /></clipPath></defs><g
     transform="matrix(1.25,0,0,-1.25,-587.75337,212.93535)"
     inkscape:label="length_comparison_scale"
     inkscape:groupmode="layer"
     id="g4604"><g
       id="g4606" /><g
       transform="matrix(0.47801872,0,0,-0.478472,470.2027,187.60293)"
       id="g4626"><path
         inkscape:connector-curvature="0"
         id="path4628"
         style="fill:none;stroke:#000000;stroke-width:3;stroke-linecap:butt;stroke-linejoin:round;stroke-miterlimit:10;stroke-dasharray:none;stroke-opacity:1"
         d="m 75.79301,384.637 0,4.562" /></g><g
       transform="matrix(0.47801872,0,0,-0.478472,470.2027,187.60293)"
       id="g4630"><path
         inkscape:connector-curvature="0"
         id="path4632"
         style="fill:none;stroke:#000000;stroke-width:3;stroke-linecap:butt;stroke-linejoin:round;stroke-miterlimit:10;stroke-dasharray:none;stroke-opacity:1"
         d="m 290.363,384.637 0,4.562" /></g><g
       transform="matrix(0.47801872,0,0,-0.478472,470.2027,187.60293)"
       id="g4634"><path
         inkscape:connector-curvature="0"
         id="path4636"
         style="fill:none;stroke:#000000;stroke-width:3;stroke-linecap:butt;stroke-linejoin:round;stroke-miterlimit:10;stroke-dasharray:none;stroke-opacity:1"
         d="m 504.934,384.637 0,4.562" /></g><g
       transform="matrix(0.47801872,0,0,-0.478472,470.2027,187.60293)"
       id="g4638"><path
         inkscape:connector-curvature="0"
         id="path4640"
         style="fill:none;stroke:#000000;stroke-width:3;stroke-linecap:butt;stroke-linejoin:round;stroke-miterlimit:10;stroke-dasharray:none;stroke-opacity:1"
         d="m 69.355,294.684 -4.472,0" /></g><g
       transform="matrix(0.47801872,0,0,-0.478472,470.2027,187.60293)"
       id="g4642"><path
         inkscape:connector-curvature="0"
         id="path4644"
         style="fill:none;stroke:#000000;stroke-width:3;stroke-linecap:butt;stroke-linejoin:round;stroke-miterlimit:10;stroke-dasharray:none;stroke-opacity:1"
         d="m 69.355,211.512 -4.472,0" /></g><g
       transform="matrix(0.47801872,0,0,-0.478472,470.2027,187.60293)"
       id="g4646"><path
         inkscape:connector-curvature="0"
         id="path4648"
         style="fill:none;stroke:#000000;stroke-width:3;stroke-linecap:butt;stroke-linejoin:round;stroke-miterlimit:10;stroke-dasharray:none;stroke-opacity:1"
         d="m 69.355,128.34 -4.472,0" /></g><g
       transform="matrix(0.47801872,0,0,-0.478472,470.2027,187.60293)"
       id="g4650"><path
         inkscape:connector-curvature="0"
         id="path4652"
         style="fill:none;stroke:#000000;stroke-width:3;stroke-linecap:butt;stroke-linejoin:round;stroke-miterlimit:10;stroke-dasharray:none;stroke-opacity:1"
         d="m 69.355,45.16801 -4.472,0" /></g><g
       transform="matrix(0.46832257,0,0,0.478472,470.2027,187.60293)"
       id="g4662"><path
         inkscape:connector-curvature="0"
         id="path4664"
         style="fill:none;stroke:#1f77b4;stroke-width:5.05149508;stroke-linecap:square;stroke-linejoin:round;stroke-miterlimit:10;stroke-dasharray:none;stroke-opacity:1"
         d="m 91.96301,-94.14099 14.60099,0.09397 14.601,0.16402 14.601,0.23101 14.6,0.30799 14.601,0.38701 14.601,0.473 14.601,0.56598 14.601,0.66401 14.601,0.76999 14.601,0.87101 14.6,0.97601 14.601,1.07799 14.601,1.17999 14.601,1.27001 14.601,1.355 14.601,1.42998 14.6,1.49602 14.601,1.55499 14.6011,1.605 14.6009,1.64801 14.6011,1.69601 14.6009,1.74198 14.601,1.78501 14.6,1.836 14.601,1.89501 14.601,1.95298 14.601,2.019 14.601,2.086 14.601,2.16403" /></g><g
       transform="matrix(0.46832257,0,0,0.478472,470.2027,187.60293)"
       id="g4674"><path
         inkscape:connector-curvature="0"
         id="path4676"
         style="fill:none;stroke:#ff7f0e;stroke-width:5.05149508;stroke-linecap:square;stroke-linejoin:round;stroke-miterlimit:10;stroke-dasharray:none;stroke-opacity:1"
         d="m 91.96301,-93.78501 14.60099,0.08199 14.601,0.13703 14.601,0.19097 14.6,0.25402 14.601,0.312 14.601,0.38301 14.601,0.45298 14.601,0.53202 14.601,0.61298 14.601,0.71101 14.6,0.80801 14.601,0.914 14.601,1.02799 14.601,1.14401 14.601,1.26998 14.601,1.39802 14.6,1.528 14.601,1.66398 14.6011,1.80101 14.6009,1.93702 14.6011,2.07798 14.6009,2.21498 14.601,2.35202 14.6,2.47998 14.601,2.60903 14.601,2.723 14.601,2.83998 14.601,2.94503 14.601,3.04297" /></g><g
       transform="matrix(0.46832257,0,0,0.478472,470.2027,187.60293)"
       id="g4686"><path
         inkscape:connector-curvature="0"
         id="path4688"
         style="fill:none;stroke:#000000;stroke-width:5.05149508;stroke-linecap:square;stroke-linejoin:round;stroke-miterlimit:10;stroke-dasharray:none;stroke-opacity:1"
         d="m 91.96301,-368.859 102.20599,62.972 14.601,9 175.21,107.953 14.6011,9 116.8069,71.969" /></g><g
       transform="matrix(0.47801872,0,0,-0.478472,470.2027,187.60293)"
       id="g4698"><path
         inkscape:connector-curvature="0"
         id="path4700"
         style="fill:none;stroke:#000000;stroke-width:3;stroke-linecap:square;stroke-linejoin:miter;stroke-miterlimit:10;stroke-dasharray:none;stroke-opacity:1"
         d="m 69.355,384.637 0,-347.07502" /></g><g
       transform="matrix(0.47801872,0,0,-0.478472,470.2027,187.60293)"
       id="g4702"><path
         inkscape:connector-curvature="0"
         id="path4704"
         style="fill:none;stroke:#000000;stroke-width:3;stroke-linecap:square;stroke-linejoin:miter;stroke-miterlimit:10;stroke-dasharray:none;stroke-opacity:1"
         d="m 69.355,384.637 456.321,0" /></g><g
       transform="matrix(0.47801872,0,0,-0.478472,470.2027,187.60293)"
       id="g4706"><path
         inkscape:connector-curvature="0"
         id="path4708"
         style="fill:none;stroke:#1f77b4;stroke-width:5;stroke-linecap:square;stroke-linejoin:round;stroke-miterlimit:10;stroke-dasharray:none;stroke-opacity:1"
         d="m 363.539,329.457 25.555,0" /></g><g
       transform="matrix(0.47801872,0,0,-0.478472,470.2027,187.60293)"
       id="g4710"><path
         inkscape:connector-curvature="0"
         id="path4712"
         style="fill:none;stroke:#ff7f0e;stroke-width:5;stroke-linecap:square;stroke-linejoin:round;stroke-miterlimit:10;stroke-dasharray:none;stroke-opacity:1"
         d="m 363.539,348.594 25.555,0" /></g><g
       transform="matrix(0.47801872,0,0,-0.478472,470.2027,187.60293)"
       id="g4714"><path
         inkscape:connector-curvature="0"
         id="path4716"
         style="fill:none;stroke:#000000;stroke-width:5;stroke-linecap:square;stroke-linejoin:round;stroke-miterlimit:10;stroke-dasharray:none;stroke-opacity:1"
         d="m 363.539,367.727 25.555,0" /></g><g
       transform="matrix(0.47801872,0,0,0.478472,470.2027,-19.92575)"
       id="g4718"><text
         id="text4720"
         style="font-variant:normal;font-weight:normal;font-size:24.74039078px;font-family:LMRoman10;-inkscape-font-specification:LMRoman10-Regular;writing-mode:lr-tb;fill:#000000;fill-opacity:1;fill-rule:nonzero;stroke:none"
         transform="matrix(0,0.91709912,1,0,18.55529,139.6967)"><tspan
           id="tspan4722"
           sodipodi:role="line"
           y="0"
           x="0 23.42915 35.131355 47.501549 58.486282 65.364113 76.348846 90.1045 102.47469 112.09871 125.78014 134.01869 143.71692 157.47258 178.08133">Wavelength (nm)</tspan></text>
</g><g
       transform="matrix(0.47801872,0,0,0.478472,470.2027,-19.92575)"
       id="g4736"><text
         id="text4738"
         style="font-variant:normal;font-weight:normal;font-size:24px;font-family:LMRoman10;-inkscape-font-specification:LMRoman10-Regular;writing-mode:lr-tb;fill:#000000;fill-opacity:1;fill-rule:nonzero;stroke:none"
         transform="matrix(1,0,0,-1,28.65518,380.4984)"><tspan
           id="tspan4740"
           sodipodi:role="line"
           y="0"
           x="0 12 24">400</tspan></text>
</g><g
       transform="matrix(0.47801872,0,0,0.478472,470.2027,-19.92575)"
       id="g4742"><text
         id="text4744"
         style="font-variant:normal;font-weight:normal;font-size:24px;font-family:LMRoman10;-inkscape-font-specification:LMRoman10-Regular;writing-mode:lr-tb;fill:#000000;fill-opacity:1;fill-rule:nonzero;stroke:none"
         transform="matrix(1,0,0,-1,28.66187,297.4587)"><tspan
           id="tspan4746"
           sodipodi:role="line"
           y="0"
           x="0 12 24">300</tspan></text>
</g><g
       transform="matrix(0.47801872,0,0,0.478472,470.2027,-19.92575)"
       id="g4748"><text
         id="text4750"
         style="font-variant:normal;font-weight:normal;font-size:24px;font-family:LMRoman10;-inkscape-font-specification:LMRoman10-Regular;writing-mode:lr-tb;fill:#000000;fill-opacity:1;fill-rule:nonzero;stroke:none"
         transform="matrix(1,0,0,-1,28.54715,214.287)"><tspan
           id="tspan4752"
           sodipodi:role="line"
           y="0"
           x="0 12 24">200</tspan></text>
</g><g
       transform="matrix(0.47801872,0,0,0.478472,470.2027,-19.92575)"
       id="g4754"><text
         id="text4756"
         style="font-variant:normal;font-weight:normal;font-size:24px;font-family:LMRoman10;-inkscape-font-specification:LMRoman10-Regular;writing-mode:lr-tb;fill:#000000;fill-opacity:1;fill-rule:nonzero;stroke:none"
         transform="matrix(1,0,0,-1,28.31312,131.1153)"><tspan
           id="tspan4758"
           sodipodi:role="line"
           y="0"
           x="0 12 24">100</tspan></text>
</g><g
       transform="matrix(0.47801872,0,0,0.478472,470.2027,-19.92575)"
       id="g4760"><text
         id="text4762"
         style="font-variant:normal;font-weight:normal;font-size:24px;font-family:LMRoman10;-inkscape-font-specification:LMRoman10-Regular;writing-mode:lr-tb;fill:#000000;fill-opacity:1;fill-rule:nonzero;stroke:none"
         transform="matrix(1,0,0,-1,69.80192,27.08238)"><tspan
           id="tspan4764"
           y="0"
           x="0">0</tspan></text>
</g><g
       transform="matrix(0.47801872,0,0,0.478472,470.2027,-19.92575)"
       id="g4766"><text
         id="text4768"
         style="font-variant:normal;font-weight:normal;font-size:24px;font-family:LMRoman10;-inkscape-font-specification:LMRoman10-Regular;writing-mode:lr-tb;fill:#000000;fill-opacity:1;fill-rule:nonzero;stroke:none"
         transform="matrix(1,0,0,-1,278.0515,26.99639)"><tspan
           id="tspan4770"
           sodipodi:role="line"
           y="0"
           x="0 12">15</tspan></text>
</g><g
       transform="matrix(0.47801872,0,0,0.478472,470.2027,-19.92575)"
       id="g4772"><text
         id="text4774"
         style="font-variant:normal;font-weight:normal;font-size:24px;font-family:LMRoman10;-inkscape-font-specification:LMRoman10-Regular;writing-mode:lr-tb;fill:#000000;fill-opacity:1;fill-rule:nonzero;stroke:none"
         transform="matrix(1,0,0,-1,492.9729,27.08238)"><tspan
           id="tspan4776"
           sodipodi:role="line"
           y="0"
           x="0 12">30</tspan></text>
</g><g
       transform="matrix(0.47801872,0,0,0.478472,470.2027,-19.92575)"
       id="g4778"><text
         id="text4780"
         style="font-variant:normal;font-weight:normal;font-size:16px;font-family:LMRoman10;-inkscape-font-specification:LMRoman10-Regular;writing-mode:lr-tb;fill:#000000;fill-opacity:1;fill-rule:nonzero;stroke:none"
         transform="matrix(1,0,0,-1,395.1534,99.00043)"><tspan
           id="tspan4782"
           sodipodi:role="line"
           y="0"
           x="0">aN</tspan></text>
</g><g
       transform="matrix(0.47801872,0,0,0.478472,470.2027,-19.92575)"
       id="g4784"><text
         id="text4786"
         style="font-variant:normal;font-weight:normal;font-size:16px;font-family:LMRoman10;-inkscape-font-specification:LMRoman10-Regular;writing-mode:lr-tb;fill:#000000;fill-opacity:1;fill-rule:nonzero;stroke:none"
         transform="matrix(1,0,0,-1,394.9355,79.85855)"><tspan
           id="tspan4788"
           sodipodi:role="line"
           y="0"
           x="0">NS</tspan></text>
</g><g
       transform="matrix(0.47801872,0,0,0.478472,470.2027,-19.92575)"
       id="g4790"><text
         id="text4792"
         style="font-variant:normal;font-weight:normal;font-size:16px;font-family:LMRoman10;-inkscape-font-specification:LMRoman10-Regular;writing-mode:lr-tb;fill:#000000;fill-opacity:1;fill-rule:nonzero;stroke:none"
         transform="matrix(1,0,0,-1,394.3106,61.22151)"><tspan
           id="tspan4794"
           sodipodi:role="line"
           y="0"
           x="0 10 18 26.896 34.896 42 48.304001 54.528 59.855999 72.031998 76.480003 82.783997 89.008003 97.008003 105.904 113.008">Longest Distance</tspan></text>
</g><g
       ns0:preamble="/home/nick/tt_preamble.ini"
       ns0:text="$a$ (nm)"
       word-spacing="normal"
       letter-spacing="normal"
       font-size-adjust="none"
       font-stretch="normal"
       font-weight="normal"
       font-variant="normal"
       font-style="normal"
       stroke-miterlimit="10.433"
       xml:space="preserve"
       transform="matrix(1.427378,0,0,1.427378,268.41407,-957.26015)"
       id="content"
       style="font-style:normal;font-variant:normal;font-weight:normal;font-stretch:normal;letter-spacing:normal;word-spacing:normal;text-anchor:start;fill:none;fill-opacity:1;fill-rule:evenodd;stroke:#000000;stroke-linecap:butt;stroke-linejoin:miter;stroke-miterlimit:10.43299961;stroke-dasharray:none;stroke-dashoffset:0;stroke-opacity:1"><path
         id="path5577"
         d="m 227.15,661 -0.02,0.03 -0.02,0.04 -0.01,0.03 -0.02,0.03 -0.02,0.03 -0.02,0.03 -0.03,0.03 -0.02,0.03 -0.02,0.03 -0.02,0.03 -0.03,0.03 -0.02,0.02 -0.03,0.03 -0.02,0.02 -0.03,0.02 -0.03,0.03 -0.03,0.02 -0.03,0.02 -0.03,0.01 -0.03,0.02 -0.03,0.02 -0.03,0.01 -0.04,0.02 -0.03,0.01 -0.04,0.01 -0.03,0.01 -0.04,0.01 -0.04,0 -0.04,0.01 -0.04,0 -0.04,0.01 -0.04,0 0.01,-0.22 c 0.65,0 0.79,-0.82 0.79,-0.88 0,-0.06 -0.02,-0.12 -0.03,-0.17 l -0.5,-1.95 c -0.05,-0.18 -0.05,-0.2 -0.2,-0.37 -0.44,-0.55 -0.84,-0.71 -1.12,-0.71 -0.5,0 -0.64,0.55 -0.64,0.94 0,0.5 0.32,1.72 0.55,2.18 0.31,0.59 0.75,0.96 1.15,0.96 l -0.01,0.22 c -1.16,0 -2.4,-1.47 -2.4,-2.92 0,-0.94 0.55,-1.6 1.33,-1.6 0.19,0 0.69,0.04 1.29,0.75 0.08,-0.42 0.43,-0.75 0.91,-0.75 0.35,0 0.58,0.23 0.74,0.55 0.16,0.36 0.29,0.97 0.29,0.99 0,0.1 -0.09,0.1 -0.12,0.1 -0.09,0 -0.11,-0.04 -0.14,-0.18 -0.17,-0.65 -0.34,-1.24 -0.75,-1.24 -0.27,0 -0.3,0.26 -0.3,0.46 0,0.22 0.02,0.3 0.13,0.74 0.11,0.42 0.13,0.52 0.22,0.89 l 0.36,1.4 c 0.07,0.28 0.07,0.3 0.07,0.34 0,0.17 -0.12,0.27 -0.29,0.27 -0.24,0 -0.39,-0.22 -0.42,-0.44 z"
         inkscape:connector-curvature="0"
         style="fill:#000000;stroke-width:0" /><path
         id="path5579"
         d="m 235.32,654.84 0,0.01 0,0 0,0 0,0.01 0,0 0,0 -0.01,0.01 0,0 0,0 0,0.01 0,0 -0.01,0.01 0,0 0,0.01 -0.01,0 0,0.01 -0.01,0.01 0,0 -0.01,0.01 0,0 0,0.01 -0.01,0 0,0.01 -0.01,0 0,0 0,0.01 -0.01,0 0,0.01 -0.01,0 0,0.01 -0.01,0.01 0,0 -0.01,0.01 -0.01,0 0,0.01 -0.01,0.01 -0.01,0 0,0.01 -0.01,0.01 -0.01,0.01 0,0 -0.01,0.01 c -1.25,1.26 -1.57,3.14 -1.57,4.66 0,1.74 0.38,3.47 1.61,4.71 0.13,0.12 0.13,0.15 0.13,0.17 0,0.07 -0.04,0.1 -0.1,0.1 -0.1,0 -1,-0.67 -1.59,-1.94 -0.5,-1.09 -0.62,-2.2 -0.62,-3.04 0,-0.77 0.11,-1.98 0.65,-3.11 0.6,-1.22 1.46,-1.87 1.56,-1.87 0.06,0 0.1,0.03 0.1,0.1 z"
         inkscape:connector-curvature="0"
         style="fill:#000000;stroke-width:0" /><path
         id="path5581"
         d="m 236.99,660.66 0,-2.67 c 0,-0.45 -0.11,-0.45 -0.78,-0.45 l 0,-0.31 c 0.35,0.01 0.86,0.03 1.13,0.03 0.25,0 0.77,-0.02 1.11,-0.03 l 0,0.31 c -0.67,0 -0.78,0 -0.78,0.45 l 0,1.83 c 0,1.04 0.71,1.6 1.35,1.6 0.63,0 0.74,-0.54 0.74,-1.11 l 0,-2.32 c 0,-0.45 -0.11,-0.45 -0.78,-0.45 l 0,-0.31 c 0.35,0.01 0.86,0.03 1.12,0.03 0.26,0 0.78,-0.02 1.12,-0.03 l 0,0.31 c -0.52,0 -0.77,0 -0.78,0.3 l 0,1.9 c 0,0.86 0,1.17 -0.31,1.53 -0.14,0.17 -0.46,0.37 -1.04,0.37 -0.73,0 -1.2,-0.43 -1.48,-1.05 l 0,1.05 -1.4,-0.11 0,-0.31 c 0.7,0 0.78,-0.07 0.78,-0.56 z"
         inkscape:connector-curvature="0"
         style="fill:#000000;stroke-width:0" /><path
         id="path5583"
         d="m 242.52,660.66 0,-2.67 c 0,-0.45 -0.11,-0.45 -0.78,-0.45 l 0,-0.31 c 0.35,0.01 0.86,0.03 1.13,0.03 0.26,0 0.78,-0.02 1.12,-0.03 l 0,0.31 c -0.67,0 -0.78,0 -0.78,0.45 l 0,1.83 c 0,1.04 0.71,1.6 1.34,1.6 0.63,0 0.74,-0.54 0.74,-1.11 l 0,-2.32 c 0,-0.45 -0.11,-0.45 -0.78,-0.45 l 0,-0.31 c 0.35,0.01 0.86,0.03 1.13,0.03 0.26,0 0.78,-0.02 1.12,-0.03 l 0,0.31 c -0.67,0 -0.78,0 -0.78,0.45 l 0,1.83 c 0,1.04 0.7,1.6 1.34,1.6 0.63,0 0.74,-0.54 0.74,-1.11 l 0,-2.32 c 0,-0.45 -0.11,-0.45 -0.78,-0.45 l 0,-0.31 c 0.35,0.01 0.86,0.03 1.13,0.03 0.26,0 0.78,-0.02 1.11,-0.03 l 0,0.31 c -0.51,0 -0.76,0 -0.77,0.3 l 0,1.9 c 0,0.86 0,1.17 -0.31,1.53 -0.14,0.17 -0.47,0.37 -1.05,0.37 -0.83,0 -1.27,-0.6 -1.44,-0.98 -0.14,0.87 -0.88,0.98 -1.33,0.98 -0.72,0 -1.19,-0.43 -1.47,-1.05 l 0,1.05 -1.41,-0.11 0,-0.31 c 0.7,0 0.78,-0.07 0.78,-0.56 z"
         inkscape:connector-curvature="0"
         style="fill:#000000;stroke-width:0" /><path
         id="path5585"
         d="m 252.61,659.72 0,0.08 0,0.07 -0.01,0.08 0,0.08 -0.01,0.17 -0.01,0.18 -0.02,0.18 -0.02,0.19 -0.02,0.2 -0.04,0.2 -0.04,0.2 -0.04,0.21 -0.06,0.21 -0.06,0.21 -0.07,0.21 -0.08,0.22 -0.04,0.1 -0.04,0.11 -0.05,0.11 -0.05,0.1 c -0.6,1.23 -1.46,1.87 -1.55,1.87 -0.06,0 -0.11,-0.04 -0.11,-0.1 0,-0.02 0,-0.05 0.2,-0.22 0.97,-0.99 1.54,-2.58 1.54,-4.66 0,-1.7 -0.37,-3.45 -1.6,-4.71 -0.14,-0.12 -0.14,-0.14 -0.14,-0.17 0,-0.06 0.05,-0.1 0.11,-0.1 0.09,0 0.99,0.68 1.58,1.94 0.51,1.1 0.63,2.21 0.63,3.04 z"
         inkscape:connector-curvature="0"
         style="fill:#000000;stroke-width:0" /></g></g></svg>