<?xml version="1.0" encoding="UTF-8" standalone="no"?>
<!-- Created with Inkscape (http://www.inkscape.org/) -->

<svg
   xmlns:dc="http://purl.org/dc/elements/1.1/"
   xmlns:cc="http://creativecommons.org/ns#"
   xmlns:rdf="http://www.w3.org/1999/02/22-rdf-syntax-ns#"
   xmlns:svg="http://www.w3.org/2000/svg"
   xmlns="http://www.w3.org/2000/svg"
   xmlns:sodipodi="http://sodipodi.sourceforge.net/DTD/sodipodi-0.dtd"
   xmlns:inkscape="http://www.inkscape.org/namespaces/inkscape"
   id="svg9855"
   version="1.1"
   inkscape:version="0.91 r13725"
   xml:space="preserve"
   width="540"
   height="223.89476"
   viewBox="0 0 540 223.89476"
   sodipodi:docname="length_comp_sapcing.svg"><metadata
     id="metadata9861"><rdf:RDF><cc:Work
         rdf:about=""><dc:format>image/svg+xml</dc:format><dc:type
           rdf:resource="http://purl.org/dc/dcmitype/StillImage" /><dc:title></dc:title></cc:Work></rdf:RDF></metadata><defs
     id="defs9859"><clipPath
       clipPathUnits="userSpaceOnUse"
       id="clipPath9871"><path
         d="M 0,0 828,0 828,318 0,318 0,0 Z"
         id="path9873"
         inkscape:connector-curvature="0" /></clipPath><clipPath
       clipPathUnits="userSpaceOnUse"
       id="clipPath9881"><path
         d="m 0,0.5000042 828,0 0,316.9634958 -828,0 L 0,0.5000042 Z"
         id="path9883"
         inkscape:connector-curvature="0" /></clipPath><clipPath
       clipPathUnits="userSpaceOnUse"
       id="clipPath9909"><path
         d="m 84.63326,133.5028 308.9786,0 0,29.54112 -308.9786,0 0,-29.54112 z"
         id="path9911"
         inkscape:connector-curvature="0" /></clipPath><clipPath
       clipPathUnits="userSpaceOnUse"
       id="clipPath9921"><path
         d="m 84.63326,134.1742 308.9786,0 0,28.86974 -308.9786,0 0,-28.86974 z"
         id="path9923"
         inkscape:connector-curvature="0" /></clipPath><clipPath
       clipPathUnits="userSpaceOnUse"
       id="clipPath9933"><path
         d="m 84.63326,38.16552 308.9786,0 0,231.6293 -308.9786,0 0,-231.6293 z"
         id="path9935"
         inkscape:connector-curvature="0" /></clipPath><clipPath
       clipPathUnits="userSpaceOnUse"
       id="clipPath9945"><path
         d="m 0,0.5000042 828,0 0,316.9634958 -828,0 L 0,0.5000042 Z"
         id="path9947"
         inkscape:connector-curvature="0" /></clipPath><clipPath
       clipPathUnits="userSpaceOnUse"
       id="clipPath10047"><path
         d="m 503.0977,69.72084 310.322,0 0,22.15585 -310.322,0 0,-22.15585 z"
         id="path10049"
         inkscape:connector-curvature="0" /></clipPath><clipPath
       clipPathUnits="userSpaceOnUse"
       id="clipPath10059"><path
         d="m 503.0977,69.04946 310.322,0 0,20.81307 -310.322,0 0,-20.81307 z"
         id="path10061"
         inkscape:connector-curvature="0" /></clipPath><clipPath
       clipPathUnits="userSpaceOnUse"
       id="clipPath10071"><path
         d="m 503.0977,39.5083 310.9937,0 0,232.3007 -310.9937,0 0,-232.3007 z"
         id="path10073"
         inkscape:connector-curvature="0" /></clipPath><clipPath
       clipPathUnits="userSpaceOnUse"
       id="clipPath10083"><path
         d="m 0,0.5000042 828,0 0,316.9634958 -828,0 L 0,0.5000042 Z"
         id="path10085"
         inkscape:connector-curvature="0" /></clipPath></defs><sodipodi:namedview
     pagecolor="#ffffff"
     bordercolor="#666666"
     borderopacity="1"
     objecttolerance="10"
     gridtolerance="10"
     guidetolerance="10"
     inkscape:pageopacity="0"
     inkscape:pageshadow="2"
     inkscape:window-width="1258"
     inkscape:window-height="693"
     id="namedview9857"
     showgrid="false"
     inkscape:zoom="0.69218724"
     inkscape:cx="522.78061"
     inkscape:cy="226.58144"
     inkscape:window-x="65"
     inkscape:window-y="24"
     inkscape:window-maximized="0"
     inkscape:current-layer="g9863"
     fit-margin-top="0"
     fit-margin-left="0"
     fit-margin-right="0"
     fit-margin-bottom="0" /><g
     id="g9863"
     inkscape:groupmode="layer"
     inkscape:label="length_comp_sapcing"
     transform="matrix(1.25,0,0,-1.25,0,191.37581)"><g
       id="g9865" /><path
       d="m 0,-12.470038 431.10857,0 0,165.570688 -431.10857,0 0,-165.570688 z"
       style="fill:#ffffff;fill-opacity:0;fill-rule:evenodd;stroke:none"
       id="path9875"
       inkscape:connector-curvature="0" /><g
       id="g9885"
       transform="matrix(0.34972511,0,0,-0.34956725,0,152.82131)"><path
         d="m 129.52,429.293 0,4.891"
         style="fill:none;stroke:#000000;stroke-width:1.11746001;stroke-linecap:butt;stroke-linejoin:round;stroke-miterlimit:10;stroke-dasharray:none;stroke-opacity:1"
         id="path9887"
         inkscape:connector-curvature="0" /></g><g
       id="g9889"
       transform="matrix(0.34972511,0,0,-0.34956725,0,152.82131)"><path
         d="m 583.004,429.293 0,4.891"
         style="fill:none;stroke:#000000;stroke-width:1.11746001;stroke-linecap:butt;stroke-linejoin:round;stroke-miterlimit:10;stroke-dasharray:none;stroke-opacity:1"
         id="path9891"
         inkscape:connector-curvature="0" /></g><g
       id="g9893"
       transform="matrix(0.34972511,0,0,-0.34956725,0,152.82131)"><path
         d="m 106.848,355.02 -4.891,0"
         style="fill:none;stroke:#000000;stroke-width:1.11746001;stroke-linecap:butt;stroke-linejoin:round;stroke-miterlimit:10;stroke-dasharray:none;stroke-opacity:1"
         id="path9895"
         inkscape:connector-curvature="0" /></g><g
       id="g9897"
       transform="matrix(0.34972511,0,0,-0.34956725,0,152.82131)"><path
         d="m 106.848,230.055 -4.891,0"
         style="fill:none;stroke:#000000;stroke-width:1.11746001;stroke-linecap:butt;stroke-linejoin:round;stroke-miterlimit:10;stroke-dasharray:none;stroke-opacity:1"
         id="path9899"
         inkscape:connector-curvature="0" /></g><g
       id="g9901"
       transform="matrix(0.34972511,0,0,-0.34956725,0,152.82131)"><path
         d="m 106.848,105.094 -4.891,0"
         style="fill:none;stroke:#000000;stroke-width:1.11746001;stroke-linecap:butt;stroke-linejoin:round;stroke-miterlimit:10;stroke-dasharray:none;stroke-opacity:1"
         id="path9903"
         inkscape:connector-curvature="0" /></g><g
       id="g9913"
       transform="matrix(0.34972511,0,0,0.34956725,0,152.82131)"><path
         d="m 129.52,-233.402 9.07,-10.375 9.07,-6.516 9.07,-4.379 9.071,-3.101 9.066,-2.289 9.071,-1.743 9.07,-1.371 9.07,-1.105 9.07,-0.907 9.071,-0.761 9.066,-0.645 9.07,-0.554 9.071,-0.477 9.07,-0.41 9.07,-0.36 9.0711,-0.316 9.0699,-0.277 9.066,-0.242 9.0711,-0.215 9.0699,-0.196 9.07,-0.168 9.071,-0.148 9.07,-0.129 9.066,-0.109 9.071,-0.09 9.07,-0.067 9.07,-0.054 9.0711,-0.047 18.1399,-0.07 9.067,-0.036 9.07,-0.035 9.07,-0.039 18.1411,-0.07 9.07,-0.031 9.067,-0.024 9.07,-0.023 45.3519,-0.078 9.066,-0.02 9.07,-0.016 27.2111,-0.058 9.071,-0.012 9.0659,-0.012"
         style="fill:none;stroke:#1f77b4;stroke-width:4.19047594;stroke-linecap:square;stroke-linejoin:round;stroke-miterlimit:10;stroke-dasharray:none;stroke-opacity:1"
         id="path9915"
         inkscape:connector-curvature="0" /></g><g
       id="g9925"
       transform="matrix(0.34972511,0,0,0.34956725,0,152.82131)"><path
         d="m 129.52,-233.953 9.07,-10.66 9.07,-6.621 9.07,-4.395 9.071,-3.059 9.066,-2.21 9.071,-1.641 9.07,-1.242 9.07,-0.969 9.07,-0.758 9.071,-0.609 9.066,-0.492 9.07,-0.411 9.071,-0.339 9.07,-0.289 9.07,-0.254 9.0711,-0.227 9.0699,-0.203 9.066,-0.195 9.0711,-0.18 9.0699,-0.176 27.211,-0.515 9.066,-0.168 9.071,-0.168 9.07,-0.164 9.07,-0.161 9.0711,-0.156 9.07,-0.148 9.0699,-0.141 9.067,-0.125 9.07,-0.101 9.07,-0.079 9.0711,-0.046 9.07,-0.024 9.07,0 9.067,0.008 27.2109,0.059 9.07,0.023 9.07,0.019 9.071,0.016 9.066,0.012 9.07,0.004 9.0711,0 9.07,-0.008 9.07,-0.012 9.071,-0.023 9.0659,-0.028"
         style="fill:none;stroke:#ff7f0e;stroke-width:4.19047594;stroke-linecap:square;stroke-linejoin:round;stroke-miterlimit:10;stroke-dasharray:none;stroke-opacity:1"
         id="path9927"
         inkscape:connector-curvature="0" /></g><g
       id="g9937"
       transform="matrix(0.34972511,0,0,0.34956725,0,152.82131)"><path
         d="m 129.52,-412.398 9.07,6.757 9.07,6.762 18.141,13.516 9.066,6.758 27.211,20.273 9.07,6.762 9.071,6.758 9.066,6.757 36.281,27.032 9.0711,6.761 9.0699,6.758 9.066,6.758 27.211,20.273 9.071,6.762 9.07,6.758 9.066,6.758 36.2821,27.031 9.07,6.762 9.0699,6.757 9.067,6.758 27.2111,20.274 9.07,6.761 9.07,6.758 9.067,6.758 36.2809,27.031 9.07,6.762 9.071,6.758 9.066,6.758 36.2811,27.03102 9.071,6.76198 9.0659,6.75702"
         style="fill:none;stroke:#000000;stroke-width:4.19000006;stroke-linecap:square;stroke-linejoin:round;stroke-miterlimit:10;stroke-dasharray:none;stroke-opacity:1"
         id="path9939"
         inkscape:connector-curvature="0" /></g><g
       id="g9949"
       transform="matrix(0.34972511,0,0,-0.34956725,0,152.82131)"><path
         d="m 106.848,429.293 0,-371.711"
         style="fill:none;stroke:#000000;stroke-width:3;stroke-linecap:square;stroke-linejoin:miter;stroke-miterlimit:10;stroke-dasharray:none;stroke-opacity:1"
         id="path9951"
         inkscape:connector-curvature="0" /></g><g
       id="g9953"
       transform="matrix(0.34972511,0,0,-0.34956725,0,152.82131)"><path
         d="m 106.848,429.293 498.832,0"
         style="fill:none;stroke:#000000;stroke-width:3;stroke-linecap:square;stroke-linejoin:miter;stroke-miterlimit:10;stroke-dasharray:none;stroke-opacity:1"
         id="path9955"
         inkscape:connector-curvature="0" /></g><g
       id="g9957"
       transform="matrix(0.34972511,0,0,-0.34956725,0,152.82131)"><path
         d="m 123.035,72.30899 27.938,0"
         style="fill:none;stroke:#1f77b4;stroke-width:4.19047594;stroke-linecap:square;stroke-linejoin:round;stroke-miterlimit:10;stroke-dasharray:none;stroke-opacity:1"
         id="path9959"
         inkscape:connector-curvature="0" /></g><g
       id="g9961"
       transform="matrix(0.34972511,0,0,-0.34956725,0,152.82131)"><path
         d="m 123.035,92.80501 27.938,0"
         style="fill:none;stroke:#ff7f0e;stroke-width:4.19047594;stroke-linecap:square;stroke-linejoin:round;stroke-miterlimit:10;stroke-dasharray:none;stroke-opacity:1"
         id="path9963"
         inkscape:connector-curvature="0" /></g><g
       id="g9965"
       transform="matrix(0.34972511,0,0,-0.34956725,0,152.82131)"><path
         d="m 123.035,113.297 27.938,0"
         style="fill:none;stroke:#000000;stroke-width:4.19000006;stroke-linecap:square;stroke-linejoin:round;stroke-miterlimit:10;stroke-dasharray:none;stroke-opacity:1"
         id="path9967"
         inkscape:connector-curvature="0" /></g><g
       id="g9969"
       transform="matrix(0.34972511,0,0,0.34956725,0,-12.209704)"><text
         transform="matrix(0,1,1,0,25.01921,115.7382)"
         style="font-variant:normal;font-weight:normal;font-size:33.35894012px;font-family:LMRoman10;-inkscape-font-specification:LMRoman10-Regular;writing-mode:lr-tb;fill:#000000;fill-opacity:1;fill-rule:nonzero;stroke:none"
         id="text9971"><tspan
           x="0 31.590916 47.369694 64.049164 78.860535 88.134323 102.94569 121.49326 138.17273 151.14935 169.59685 180.70538 193.78209 212.32965 240.11765"
           y="0"
           sodipodi:role="line"
           id="tspan9973">Wavelength (nm)</tspan></text>
</g><g
       id="g9975"
       transform="matrix(0.34972511,0,0,0.34956725,0,-12.209704)"><text
         transform="matrix(1,0,0,-1,47.13447,355.197)"
         style="font-variant:normal;font-weight:normal;font-size:36px;font-family:LMRoman10;-inkscape-font-specification:LMRoman10-Regular;writing-mode:lr-tb;fill:#000000;fill-opacity:1;fill-rule:nonzero;stroke:none"
         id="text9977"><tspan
           x="0 18 36"
           y="0"
           sodipodi:role="line"
           id="tspan9979">600</tspan></text>
</g><g
       id="g9981"
       transform="matrix(0.34972511,0,0,0.34956725,0,-12.209704)"><text
         transform="matrix(1,0,0,-1,47.23983,230.0361)"
         style="font-variant:normal;font-weight:normal;font-size:36px;font-family:LMRoman10;-inkscape-font-specification:LMRoman10-Regular;writing-mode:lr-tb;fill:#000000;fill-opacity:1;fill-rule:nonzero;stroke:none"
         id="text9983"><tspan
           x="0 18 36"
           y="0"
           sodipodi:role="line"
           id="tspan9985">400</tspan></text>
</g><g
       id="g9987"
       transform="matrix(0.34972511,0,0,0.34956725,0,-12.209704)"><text
         transform="matrix(1,0,0,-1,47.01434,105.2713)"
         style="font-variant:normal;font-weight:normal;font-size:36px;font-family:LMRoman10;-inkscape-font-specification:LMRoman10-Regular;writing-mode:lr-tb;fill:#000000;fill-opacity:1;fill-rule:nonzero;stroke:none"
         id="text9989"><tspan
           x="0 18 36"
           y="0"
           sodipodi:role="line"
           id="tspan9991">200</tspan></text>
</g><g
       id="g9993"
       transform="matrix(0.34972511,0,0,0.34956725,-3.3322402,-12.209704)"><text
         transform="matrix(1,0,0,-1,120.5368,11.11507)"
         style="font-variant:normal;font-weight:normal;font-size:36px;font-family:LMRoman10;-inkscape-font-specification:LMRoman10-Regular;writing-mode:lr-tb;fill:#000000;fill-opacity:1;fill-rule:nonzero;stroke:none"
         id="text9995"><tspan
           x="0"
           y="0"
           id="tspan9997">30</tspan></text>
</g><g
       id="g9999"
       transform="matrix(0.34972511,0,0,0.34956725,-4.1653002,-12.209704)"><text
         transform="matrix(1,0,0,-1,564.4298,11.11507)"
         style="font-variant:normal;font-weight:normal;font-size:36px;font-family:LMRoman10;-inkscape-font-specification:LMRoman10-Regular;writing-mode:lr-tb;fill:#000000;fill-opacity:1;fill-rule:nonzero;stroke:none"
         id="text10001"><tspan
           x="0"
           y="0"
           sodipodi:role="line"
           id="tspan10003">180</tspan></text>
</g><g
       id="g10005"
       transform="matrix(0.34972511,0,0,0.34956725,0,-12.209704)"><text
         transform="matrix(1,0,0,-1,166.8727,394.5294)"
         style="font-variant:normal;font-weight:normal;font-size:16px;font-family:LMRoman10;-inkscape-font-specification:LMRoman10-Regular;writing-mode:lr-tb;fill:#000000;fill-opacity:1;fill-rule:nonzero;stroke:none"
         id="text10007"><tspan
           x="0"
           y="0"
           sodipodi:role="line"
           id="tspan10009">aN</tspan></text>
</g><g
       id="g10011"
       transform="matrix(0.34972511,0,0,0.34956725,0,-12.209704)"><text
         transform="matrix(1,0,0,-1,166.6126,374.0285)"
         style="font-variant:normal;font-weight:normal;font-size:16px;font-family:LMRoman10;-inkscape-font-specification:LMRoman10-Regular;writing-mode:lr-tb;fill:#000000;fill-opacity:1;fill-rule:nonzero;stroke:none"
         id="text10013"><tspan
           x="0"
           y="0"
           sodipodi:role="line"
           id="tspan10015">NS</tspan></text>
</g><g
       id="g10017"
       transform="matrix(0.34972511,0,0,0.34956725,0,-12.209704)"><text
         transform="matrix(1,0,0,-1,166.7855,353.9514)"
         style="font-variant:normal;font-weight:normal;font-size:16px;font-family:LMRoman10;-inkscape-font-specification:LMRoman10-Regular;writing-mode:lr-tb;fill:#000000;fill-opacity:1;fill-rule:nonzero;stroke:none"
         id="text10019"><tspan
           x="0 10 18 26.896 34.896 42 48.304001 54.528 59.855999 72.031998 76.480003 82.783997 89.008003 97.008003 105.904 113.008"
           y="0"
           sodipodi:role="line"
           id="tspan10021">Longest Distance</tspan></text>
</g><g
       id="g10023"
       transform="matrix(0.34972511,0,0,-0.34956725,0,152.82131)"><path
         d="m 752.6021,428.031 0,4.914"
         style="fill:none;stroke:#000000;stroke-width:1.12320304;stroke-linecap:butt;stroke-linejoin:round;stroke-miterlimit:10;stroke-dasharray:none;stroke-opacity:1"
         id="path10025"
         inkscape:connector-curvature="0" /></g><g
       id="g10027"
       transform="matrix(0.34972511,0,0,-0.34956725,0,152.82131)"><path
         d="m 1208.418,428.031 0,4.914"
         style="fill:none;stroke:#000000;stroke-width:1.12320304;stroke-linecap:butt;stroke-linejoin:round;stroke-miterlimit:10;stroke-dasharray:none;stroke-opacity:1"
         id="path10029"
         inkscape:connector-curvature="0" /></g><g
       id="g10031"
       transform="matrix(0.34972511,0,0,-0.34956725,0,152.82131)"><path
         d="m 729.8091,353.375 -4.914,0"
         style="fill:none;stroke:#000000;stroke-width:1.12320304;stroke-linecap:butt;stroke-linejoin:round;stroke-miterlimit:10;stroke-dasharray:none;stroke-opacity:1"
         id="path10033"
         inkscape:connector-curvature="0" /></g><g
       id="g10035"
       transform="matrix(0.34972511,0,0,-0.34956725,0,152.82131)"><path
         d="m 729.8091,227.77 -4.914,0"
         style="fill:none;stroke:#000000;stroke-width:1.12320304;stroke-linecap:butt;stroke-linejoin:round;stroke-miterlimit:10;stroke-dasharray:none;stroke-opacity:1"
         id="path10037"
         inkscape:connector-curvature="0" /></g><g
       id="g10039"
       transform="matrix(0.34972511,0,0,-0.34956725,0,152.82131)"><path
         d="m 729.8091,102.164 -4.914,0"
         style="fill:none;stroke:#000000;stroke-width:1.12320304;stroke-linecap:butt;stroke-linejoin:round;stroke-miterlimit:10;stroke-dasharray:none;stroke-opacity:1"
         id="path10041"
         inkscape:connector-curvature="0" /></g><g
       id="g10051"
       transform="matrix(0.34972511,0,0,0.34956725,0,152.82131)"><path
         d="m 752.6021,-339.898 9.113,-6.493 9.1169,-4.468 9.1171,-3.293 9.1169,-2.493 9.1141,-1.921 9.117,-1.504 9.117,-1.188 9.117,-0.914 9.117,-0.644 9.1139,-0.411 9.117,-0.265 18.234,-0.438 9.1141,-0.23 9.117,-0.203 9.117,-0.145 9.117,-0.105 9.117,-0.098 9.1139,-0.109 18.2341,-0.242 9.1169,-0.086 9.117,-0.036 9.1141,-0.011 9.117,-0.012 9.117,-0.031 9.117,-0.059 9.1129,-0.094 9.118,-0.136 9.117,-0.176 9.117,-0.219 9.117,-0.258 9.114,-0.281 9.117,-0.227 9.117,0 9.117,-0.074 9.113,0.024 9.118,0.066 18.234,0.172 9.117,0.074 9.113,0.059 9.118,0.035 9.117,0.016 9.117,-0.012 9.113,-0.039 9.117,-0.059 18.235,-0.14 9.117,-0.063"
         style="fill:none;stroke:#1f77b4;stroke-width:4.19000006;stroke-linecap:square;stroke-linejoin:round;stroke-miterlimit:10;stroke-dasharray:none;stroke-opacity:1"
         id="path10053"
         inkscape:connector-curvature="0" /></g><g
       id="g10063"
       transform="matrix(0.34972511,0,0,0.34956725,0,152.82131)"><path
         d="m 752.6021,-342.164 9.113,-5.578 9.1169,-3.453 9.1171,-2.313 9.1169,-1.668 9.1141,-1.308 9.117,-1.125 9.117,-1.051 9.117,-1.039 9.117,-1.063 9.1139,-1.078 9.117,-1.055 9.1171,-0.937 9.1169,-0.676 9.1141,-0.289 9.117,-0.019 9.117,0.089 9.117,0.122 9.117,0.117 9.1139,0.082 9.1171,0.035 9.117,-0.035 9.1169,-0.121 9.117,-0.211 9.1141,-0.305 18.234,-0.734 9.117,-0.317 9.1129,-0.273 9.118,-0.211 9.117,-0.106 9.117,-0.007 9.117,0.015 9.114,0 9.117,-0.019 9.117,0.05 9.117,0.086 9.113,0.071 9.118,0.039 9.117,-0.012 9.117,-0.062 9.117,-0.114 9.113,-0.136 9.118,-0.133 9.117,-0.074 9.117,0.042 9.113,0.122 18.235,0.289 9.117,0.14 9.117,-0.316"
         style="fill:none;stroke:#ff7f0e;stroke-width:4.19000006;stroke-linecap:square;stroke-linejoin:round;stroke-miterlimit:10;stroke-dasharray:none;stroke-opacity:1"
         id="path10065"
         inkscape:connector-curvature="0" /></g><g
       id="g10075"
       transform="matrix(0.34972511,0,0,0.34956725,0,152.82131)"><path
         d="m 752.6021,-411.047 9.113,6.793 27.3509,20.379 9.1141,6.793 36.468,27.172 9.1139,6.793 18.2341,13.586 9.1169,6.797 9.1141,6.793 36.468,27.171 9.1139,6.793 36.468,27.172 9.1141,6.793 27.351,20.379 9.1129,6.793 36.469,27.172 9.114,6.793 27.351,20.379 9.113,6.797 36.469,27.172 9.113,6.793 27.352,20.379 9.113,6.793 36.469,27.171"
         style="fill:none;stroke:#000000;stroke-width:4.19000006;stroke-linecap:square;stroke-linejoin:round;stroke-miterlimit:10;stroke-dasharray:none;stroke-opacity:1"
         id="path10077"
         inkscape:connector-curvature="0" /></g><g
       id="g10087"
       transform="matrix(0.34972511,0,0,-0.34956725,0,152.82131)"><path
         d="m 729.8091,428.031 0,-373.62499"
         style="fill:none;stroke:#000000;stroke-width:3;stroke-linecap:square;stroke-linejoin:miter;stroke-miterlimit:10;stroke-dasharray:none;stroke-opacity:1"
         id="path10089"
         inkscape:connector-curvature="0" /></g><g
       id="g10091"
       transform="matrix(0.34972511,0,0,-0.34956725,0,152.82131)"><path
         d="m 729.8091,428.031 501.3979,0"
         style="fill:none;stroke:#000000;stroke-width:3;stroke-linecap:square;stroke-linejoin:miter;stroke-miterlimit:10;stroke-dasharray:none;stroke-opacity:1"
         id="path10093"
         inkscape:connector-curvature="0" /></g><g
       id="g10095"
       transform="matrix(0.34972511,0,0,-0.34956725,0,152.82131)"><path
         d="m 745.648,68.914 27.9341,0"
         style="fill:none;stroke:#1f77b4;stroke-width:4.19047594;stroke-linecap:square;stroke-linejoin:round;stroke-miterlimit:10;stroke-dasharray:none;stroke-opacity:1"
         id="path10097"
         inkscape:connector-curvature="0" /></g><g
       id="g10099"
       transform="matrix(0.34972511,0,0,-0.34956725,0,152.82131)"><path
         d="m 745.648,89.40602 27.9341,0"
         style="fill:none;stroke:#ff7f0e;stroke-width:4.19047594;stroke-linecap:square;stroke-linejoin:round;stroke-miterlimit:10;stroke-dasharray:none;stroke-opacity:1"
         id="path10101"
         inkscape:connector-curvature="0" /></g><g
       id="g10103"
       transform="matrix(0.34972511,0,0,-0.34956725,0,152.82131)"><path
         d="m 745.648,109.902 27.9341,0"
         style="fill:none;stroke:#000000;stroke-width:4.19000006;stroke-linecap:square;stroke-linejoin:round;stroke-miterlimit:10;stroke-dasharray:none;stroke-opacity:1"
         id="path10105"
         inkscape:connector-curvature="0" /></g><g
       id="g10107"
       transform="matrix(0.34972511,0,0,0.34956725,0,-12.209704)"><text
         transform="matrix(1,0,0,-1,789.4848,397.9267)"
         style="font-variant:normal;font-weight:normal;font-size:16px;font-family:LMRoman10;-inkscape-font-specification:LMRoman10-Regular;writing-mode:lr-tb;fill:#000000;fill-opacity:1;fill-rule:nonzero;stroke:none"
         id="text10109"><tspan
           x="0"
           y="0"
           sodipodi:role="line"
           id="tspan10111">aN</tspan></text>
</g><g
       id="g10113"
       transform="matrix(0.34972511,0,0,0.34956725,0,-12.209704)"><text
         transform="matrix(1,0,0,-1,789.2247,377.4258)"
         style="font-variant:normal;font-weight:normal;font-size:16px;font-family:LMRoman10;-inkscape-font-specification:LMRoman10-Regular;writing-mode:lr-tb;fill:#000000;fill-opacity:1;fill-rule:nonzero;stroke:none"
         id="text10115"><tspan
           x="0"
           y="0"
           sodipodi:role="line"
           id="tspan10117">NS</tspan></text>
</g><g
       id="g10119"
       transform="matrix(0.34972511,0,0,0.34956725,0,-12.209704)"><text
         transform="matrix(1,0,0,-1,789.3976,357.3487)"
         style="font-variant:normal;font-weight:normal;font-size:16px;font-family:LMRoman10;-inkscape-font-specification:LMRoman10-Regular;writing-mode:lr-tb;fill:#000000;fill-opacity:1;fill-rule:nonzero;stroke:none"
         id="text10121"><tspan
           x="0 10 18 26.896 34.896 42 48.304001 54.528 59.855999 72.031998 76.480003 82.783997 89.008003 97.008003 105.904 113.008"
           y="0"
           sodipodi:role="line"
           id="tspan10123">Longest Distance</tspan></text>
</g><g
       id="g10125"
       transform="matrix(0.34972511,0,0,0.34956725,-3.3322402,-12.209704)"><text
         transform="matrix(1,0,0,-1,743.6165,12.30007)"
         style="font-variant:normal;font-weight:normal;font-size:36px;font-family:LMRoman10;-inkscape-font-specification:LMRoman10-Regular;writing-mode:lr-tb;fill:#000000;fill-opacity:1;fill-rule:nonzero;stroke:none"
         id="text10127"><tspan
           x="0"
           y="0"
           id="tspan10129">60</tspan></text>
</g><g
       id="g10131"
       transform="matrix(0.34972511,0,0,0.34956725,-2.4991801,-12.209704)"><text
         transform="matrix(1,0,0,-1,1189.842,12.30007)"
         style="font-variant:normal;font-weight:normal;font-size:36px;font-family:LMRoman10;-inkscape-font-specification:LMRoman10-Regular;writing-mode:lr-tb;fill:#000000;fill-opacity:1;fill-rule:nonzero;stroke:none"
         id="text10133"><tspan
           x="0"
           sodipodi:role="line"
           id="tspan10135"
           y="0">360</tspan></text>
</g><g
       id="g10137"
       transform="matrix(0.34972511,0,0,0.34956725,0,-12.209704)"><text
         transform="matrix(1,0,0,-1,670.0837,106.7175)"
         style="font-variant:normal;font-weight:normal;font-size:36px;font-family:LMRoman10;-inkscape-font-specification:LMRoman10-Regular;writing-mode:lr-tb;fill:#000000;fill-opacity:1;fill-rule:nonzero;stroke:none"
         id="text10139"><tspan
           x="0 18 36"
           y="0"
           sodipodi:role="line"
           id="tspan10141">400</tspan></text>
</g><g
       id="g10143"
       transform="matrix(0.34972511,0,0,0.34956725,0,-12.209704)"><text
         transform="matrix(1,0,0,-1,669.9654,232.5206)"
         style="font-variant:normal;font-weight:normal;font-size:36px;font-family:LMRoman10;-inkscape-font-specification:LMRoman10-Regular;writing-mode:lr-tb;fill:#000000;fill-opacity:1;fill-rule:nonzero;stroke:none"
         id="text10145"><tspan
           x="0 18 36"
           y="0"
           sodipodi:role="line"
           id="tspan10147">800</tspan></text>
</g><g
       id="g10149"
       transform="matrix(0.34972511,0,0,0.34956725,0,-12.209704)"><text
         transform="matrix(1,0,0,-1,654.3503,358.1257)"
         style="font-variant:normal;font-weight:normal;font-size:36px;font-family:LMRoman10;-inkscape-font-specification:LMRoman10-Regular;writing-mode:lr-tb;fill:#000000;fill-opacity:1;fill-rule:nonzero;stroke:none"
         id="text10151"><tspan
           x="0 18 36 54"
           y="0"
           sodipodi:role="line"
           id="tspan10153">1200</tspan></text>
</g><g
       id="g10159"
       transform="matrix(0.34972511,0,0,0.34956725,0,-12.209704)"><text
         transform="matrix(0,1,1,0,642.1092,119.5426)"
         style="font-variant:normal;font-weight:normal;font-size:33.35894012px;font-family:LMRoman10;-inkscape-font-specification:LMRoman10-Regular;writing-mode:lr-tb;fill:#000000;fill-opacity:1;fill-rule:nonzero;stroke:none"
         id="text10161"><tspan
           x="0 31.590916 47.369694 64.049164 78.860535 88.134323 102.94569 121.49326 138.17273 151.14935 169.59685 180.70538 193.78209 212.32965 240.11765"
           y="0"
           sodipodi:role="line"
           id="tspan10163">Wavelength (nm)</tspan></text>
</g><path
       d="m 87.222167,142.5049 c -0.05316,-0.26637 -0.159843,-0.66629 -0.159843,-0.74559 0,-0.29365 0.239192,-0.45339 0.507073,-0.45339 0.213003,0 0.506761,0.13386 0.639322,0.47958 0.02728,0.0531 0.587203,2.37318 0.666552,2.69271 0.133966,0.55966 0.453601,1.73282 0.534043,2.21209 0.0794,0.2129 0.560285,1.013 0.958957,1.386 0.133966,0.10627 0.640675,0.55966 1.360803,0.55966 0.453549,0 0.692794,-0.21289 0.720076,-0.21289 -0.507125,-0.0794 -0.879919,-0.47922 -0.879919,-0.93262 0,-0.26637 0.18572,-0.58725 0.639269,-0.58725 0.453601,0 0.934485,0.40023 0.934485,1.01336 0,0.58695 -0.534043,1.09381 -1.413911,1.09381 -1.092923,0 -1.840282,-0.8278 -2.159916,-1.30707 -0.159844,0.77292 -0.773236,1.30707 -1.573755,1.30707 -0.773236,0 -1.092923,-0.66665 -1.252714,-0.96026 -0.29381,-0.58694 -0.506761,-1.5989 -0.506761,-1.65346 0,-0.18562 0.159792,-0.18562 0.185669,-0.18562 0.187126,0 0.187126,0.0259 0.293809,0.39992 0.293758,1.19898 0.640676,2.02501 1.252714,2.02501 0.267881,0 0.506761,-0.13245 0.506761,-0.77287 0,-0.37264 -0.05316,-0.55966 -0.266162,-1.43916 l -0.986552,-3.91903 z"
       style="fill:#000000;fill-opacity:1;fill-rule:nonzero;stroke:none"
       id="path10165"
       inkscape:connector-curvature="0" /><path
       d="m 99.533545,142.729 c 0,1.30665 -0.159843,2.26519 -0.692481,3.09263 -0.3742,0.53274 -1.120153,1.01196 -2.053233,1.01196 -2.774715,0 -2.774715,-3.25128 -2.774715,-4.10459 0,-0.85363 0,-4.02561 2.774715,-4.02561 2.745714,0 2.745714,3.17198 2.745714,4.02561 z m -2.745714,-3.67885 c -0.560285,0 -1.279997,0.32088 -1.520595,1.27942 -0.159843,0.69389 -0.159843,1.67966 -0.159843,2.55916 0,0.8792 0,1.78593 0.159843,2.42634 0.266475,0.93267 1.013834,1.19904 1.520595,1.19904 0.63927,0 1.252714,-0.40024 1.465665,-1.0924 0.187126,-0.64042 0.213368,-1.49264 0.213368,-2.53298 0,-0.8795 0,-1.75869 -0.159844,-2.50568 -0.239192,-1.09241 -1.039711,-1.3329 -1.519189,-1.3329 z"
       style="fill:#000000;fill-opacity:1;fill-rule:nonzero;stroke:none"
       id="path10167"
       inkscape:connector-curvature="0" /><path
       d="m 117.43246,147.06434 c 0.26648,0 0.58611,0 0.58611,0.31948 0,0.34676 -0.31963,0.34676 -0.56023,0.34676 l -10.18577,0 c -0.24024,0 -0.55987,0 -0.55987,-0.34676 0,-0.31948 0.31963,-0.31948 0.55987,-0.31948 l 10.15989,0 z m 0.0259,-3.30589 c 0.2406,0 0.56023,0 0.56023,0.34676 0,0.31953 -0.31963,0.31953 -0.58611,0.31953 l -10.15989,0 c -0.24024,0 -0.55987,0 -0.55987,-0.31953 0,-0.34676 0.31963,-0.34676 0.55987,-0.34676 l 10.18577,0 z"
       style="fill:#000000;fill-opacity:1;fill-rule:nonzero;stroke:none"
       id="path10169"
       inkscape:connector-curvature="0" /><path
       d="m 128.71809,152.36797 c 0,0.42611 0,0.45339 -0.40045,0.45339 -1.06699,-1.0924 -2.55999,-1.0924 -3.09294,-1.0924 l 0,-0.53378 c 0.34588,0 1.33347,0 2.21339,0.45302 l 0,-8.82236 c 0,-0.61313 -0.0535,-0.80016 -1.57376,-0.80016 l -0.533,0 0,-0.53242 c 0.58616,0.0532 2.05323,0.0532 2.74608,0.0532 0.66655,0 2.16091,0 2.74707,-0.0532 l 0,0.53242 -0.53264,0 c -1.54788,0 -1.57375,0.18703 -1.57375,0.80016 l 0,9.54213 z"
       style="fill:#000000;fill-opacity:1;fill-rule:nonzero;stroke:none"
       id="path10171"
       inkscape:connector-curvature="0" /><path
       d="m 139.83272,144.90401 c 0,2.02642 -1.38668,3.73195 -3.22696,3.73195 -0.79911,0 -1.54611,-0.26637 -2.15955,-0.87913 l 0,3.33171 c 0.34697,-0.10663 0.90683,-0.21321 1.43984,-0.21321 2.10639,0 3.30735,1.54575 3.30735,1.75901 0,0.10627 -0.0535,0.18702 -0.18713,0.18702 0,0 -0.0535,0 -0.13391,-0.0532 -0.34557,-0.1601 -1.17368,-0.50686 -2.31971,-0.50686 -0.6666,0 -1.46712,0.13386 -2.26624,0.47927 -0.13396,0.0535 -0.15984,0.0535 -0.18749,0.0535 -0.18566,0 -0.18566,-0.13251 -0.18566,-0.39888 l 0,-5.03866 c 0,-0.2922 0,-0.42611 0.23919,-0.42611 0.13396,0 0.15984,0.0262 0.24028,0.13391 0.18708,0.26638 0.80052,1.19899 2.18715,1.19899 0.87992,0 1.30624,-0.77288 1.43984,-1.09241 0.26648,-0.64036 0.31964,-1.27942 0.31964,-2.13305 0,-0.61313 0,-1.62618 -0.42596,-2.34595 -0.40044,-0.66624 -1.04111,-1.0924 -1.8144,-1.0924 -1.22679,0 -2.21303,0.90538 -2.50684,1.89256 0.0535,0 0.10669,-0.0272 0.29381,-0.0272 0.56024,0 0.85368,0.42751 0.85368,0.82639 0,0.42715 -0.29344,0.85327 -0.85368,0.85327 -0.24028,0 -0.82639,-0.13392 -0.82639,-0.90679 0,-1.46504 1.17331,-3.11882 3.0667,-3.11882 1.97284,0 3.70644,1.62655 3.70644,3.78511 z"
       style="fill:#000000;fill-opacity:1;fill-rule:nonzero;stroke:none"
       id="path10173"
       inkscape:connector-curvature="0" /><path
       d="m 148.23694,147.33072 0,-4.55804 c 0,-0.747 -0.18712,-0.747 -1.33315,-0.747 l 0,-0.53242 c 0.61344,0.0259 1.46571,0.0532 1.94654,0.0532 0.42632,0 1.30588,-0.0273 1.89345,-0.0532 l 0,0.53242 c -1.14744,0 -1.33316,0 -1.33316,0.747 l 0,3.1447 c 0,1.75869 1.22647,2.71858 2.29206,2.71858 1.09433,0 1.28036,-0.90538 1.28036,-1.89255 l 0,-3.97073 c 0,-0.747 -0.18603,-0.747 -1.33347,-0.747 l 0,-0.53242 c 0.58752,0.0259 1.46707,0.0532 1.92067,0.0532 0.42632,0 1.33353,-0.0273 1.89339,-0.0532 l 0,0.53242 c -0.87955,0 -1.30722,0 -1.30722,0.50651 l 0,3.25273 c 0,1.46504 0,1.97191 -0.53264,2.58467 -0.2406,0.29366 -0.80088,0.64078 -1.78712,0.64078 -1.25412,0 -2.05324,-0.72117 -2.53412,-1.78629 l 0,1.78629 -2.39874,-0.18738 0,-0.53379 c 1.19919,0 1.33315,-0.10663 1.33315,-0.95848 z"
       style="fill:#000000;fill-opacity:1;fill-rule:nonzero;stroke:none"
       id="path10175"
       inkscape:connector-curvature="0" /><path
       d="m 157.68374,147.33072 0,-4.55804 c 0,-0.747 -0.18713,-0.747 -1.33352,-0.747 l 0,-0.53242 c 0.61339,0.0259 1.46743,0.0532 1.94691,0.0532 0.42632,0 1.30588,-0.0273 1.89339,-0.0532 l 0,0.53242 c -1.14744,0 -1.33347,0 -1.33347,0.747 l 0,3.1447 c 0,1.75869 1.22684,2.71858 2.29383,2.71858 1.09293,0 1.28,-0.90538 1.28,-1.89255 l 0,-3.97073 c 0,-0.747 -0.18707,-0.747 -1.33316,-0.747 l 0,-0.53242 c 0.5858,0.0259 1.46572,0.0532 1.91932,0.0532 0.42632,0 1.33316,-0.0273 1.89339,-0.0532 l 0,0.53242 c -1.1202,0 -1.30587,0 -1.30587,0.747 l 0,3.1447 c 0,1.75869 1.19919,2.71858 2.29211,2.71858 1.06699,0 1.25412,-0.90538 1.25412,-1.89255 l 0,-3.97073 c 0,-0.747 -0.18713,-0.747 -1.33316,-0.747 l 0,-0.53242 c 0.5858,0.0259 1.46567,0.0532 1.91927,0.0532 0.4536,0 1.33352,-0.0273 1.92072,-0.0532 l 0,0.53242 c -0.87955,0 -1.30728,0 -1.33315,0.50651 l 0,3.25273 c 0,1.46504 0,1.97191 -0.53441,2.58467 -0.23883,0.29366 -0.79911,0.64078 -1.78671,0.64078 -1.41255,0 -2.18579,-1.01342 -2.45232,-1.67965 -0.24023,1.49227 -1.49435,1.67965 -2.26759,1.67965 -1.25271,0 -2.05323,-0.72117 -2.53271,-1.78629 l 0,1.78629 -2.40051,-0.18738 0,-0.53379 c 1.19955,0 1.33352,-0.10663 1.33352,-0.95848 z"
       style="fill:#000000;fill-opacity:1;fill-rule:nonzero;stroke:none"
       id="path10177"
       inkscape:connector-curvature="0" /><path
       d="m 301.06155,142.5049 c -0.0535,-0.26637 -0.15979,-0.66629 -0.15979,-0.74559 0,-0.29365 0.23888,-0.45339 0.5053,-0.45339 0.21441,0 0.50681,0.13386 0.64073,0.47958 0.0259,0.0531 0.58611,2.37318 0.6666,2.69271 0.13391,0.55966 0.4536,1.73282 0.533,2.21209 0.0804,0.2129 0.55987,1.013 0.96031,1.386 0.13355,0.10627 0.64068,0.55966 1.36044,0.55966 0.4536,0 0.69279,-0.21289 0.72008,-0.21289 -0.50676,-0.0794 -0.87987,-0.47922 -0.87987,-0.93262 0,-0.26637 0.18567,-0.58725 0.63927,-0.58725 0.4536,0 0.93308,0.40023 0.93308,1.01336 0,0.58695 -0.53269,1.09381 -1.41256,1.09381 -1.09428,0 -1.83992,-0.8278 -2.15992,-1.30707 -0.16083,0.77292 -0.77432,1.30707 -1.57375,1.30707 -0.77292,0 -1.09396,-0.66665 -1.25376,-0.96026 -0.2924,-0.58694 -0.50712,-1.5989 -0.50712,-1.65346 0,-0.18562 0.16125,-0.18562 0.18707,-0.18562 0.18749,0 0.18749,0.0259 0.29381,0.39992 0.29376,1.19898 0.63927,2.02501 1.25272,2.02501 0.26652,0 0.50712,-0.13245 0.50712,-0.77287 0,-0.37264 -0.0535,-0.55966 -0.26652,-1.43916 l -0.98624,-3.91903 z"
       style="fill:#000000;fill-opacity:1;fill-rule:nonzero;stroke:none"
       id="path10179"
       inkscape:connector-curvature="0" /><path
       d="m 313.37298,142.729 c 0,1.30665 -0.15985,2.26519 -0.69426,3.09263 -0.37279,0.53274 -1.11874,1.01196 -2.05323,1.01196 -2.77299,0 -2.77299,-3.25128 -2.77299,-4.10459 0,-0.85363 0,-4.02561 2.77299,-4.02561 2.74749,0 2.74749,3.17198 2.74749,4.02561 z m -2.74749,-3.67885 c -0.55992,0 -1.27999,0.32088 -1.51919,1.27942 -0.15984,0.69389 -0.15984,1.67966 -0.15984,2.55916 0,0.8792 0,1.78593 0.15984,2.42634 0.26648,0.93267 1.01243,1.19904 1.51919,1.19904 0.64073,0 1.25412,-0.40024 1.46744,-1.0924 0.18712,-0.64042 0.213,-1.49264 0.213,-2.53298 0,-0.8795 0,-1.75869 -0.15979,-2.50568 -0.2406,-1.09241 -1.03976,-1.3329 -1.52065,-1.3329 z"
       style="fill:#000000;fill-opacity:1;fill-rule:nonzero;stroke:none"
       id="path10181"
       inkscape:connector-curvature="0" /><path
       d="m 331.27153,147.06434 c 0.26648,0 0.58611,0 0.58611,0.31948 0,0.34676 -0.31963,0.34676 -0.55987,0.34676 l -10.18718,0 c -0.23919,0 -0.56023,0 -0.56023,-0.34676 0,-0.31948 0.32104,-0.31948 0.56023,-0.31948 l 10.16094,0 z m 0.0262,-3.30589 c 0.24024,0 0.55987,0 0.55987,0.34676 0,0.31953 -0.31963,0.31953 -0.58611,0.31953 l -10.16094,0 c -0.23919,0 -0.56023,0 -0.56023,-0.31953 0,-0.34676 0.32104,-0.34676 0.56023,-0.34676 l 10.18718,0 z"
       style="fill:#000000;fill-opacity:1;fill-rule:nonzero;stroke:none"
       id="path10183"
       inkscape:connector-curvature="0" /><path
       d="m 342.4764,147.49045 c 1.38663,0.4534 2.37318,1.62619 2.37318,2.98496 0,1.38601 -1.49331,2.34595 -3.12023,2.34595 -1.70631,0 -3.0125,-1.01342 -3.0125,-2.31866 0,-0.56003 0.37311,-0.87956 0.87987,-0.87956 0.50676,0 0.85263,0.373 0.85263,0.87956 0,0.82597 -0.79947,0.82597 -1.03976,0.82597 0.50681,0.85228 1.62697,1.06653 2.24036,1.06653 0.72013,0 1.65316,-0.37399 1.65316,-1.8925 0,-0.21296 -0.0535,-1.20044 -0.47948,-1.94572 -0.50708,-0.8264 -1.09428,-0.88091 -1.5206,-0.88091 -0.13251,-0.0259 -0.53264,-0.0532 -0.66655,-0.0532 -0.13256,-0.0258 -0.2406,-0.0535 -0.2406,-0.21321 0,-0.18562 0.10804,-0.18562 0.40039,-0.18562 l 0.74705,0 c 1.38663,0 2.02595,-1.14696 2.02595,-2.82662 0,-2.31867 -1.17337,-2.79794 -1.91932,-2.79794 -0.74736,0 -2.02736,0.29225 -2.61315,1.27943 0.58579,-0.0804 1.1202,0.29224 1.1202,0.93266 0,0.61313 -0.4536,0.96026 -0.93308,0.96026 -0.42772,0 -0.96036,-0.2405 -0.96036,-0.98754 0,-1.5458 1.57235,-2.66543 3.4396,-2.66543 2.08083,0 3.6273,1.54715 3.6273,3.27856 0,1.38746 -1.09428,2.71999 -2.85406,3.09299 z"
       style="fill:#000000;fill-opacity:1;fill-rule:nonzero;stroke:none"
       id="path10185"
       inkscape:connector-curvature="0" /><path
       d="m 353.85886,146.93043 c 0,1.35877 -0.0804,2.71895 -0.66655,3.97109 -0.77464,1.65347 -2.1872,1.91984 -2.88109,1.91984 -1.03966,0 -2.26655,-0.45339 -2.98626,-2.02647 -0.533,-1.17175 -0.61344,-2.50569 -0.61344,-3.86446 0,-1.27942 0.0532,-2.79934 0.77323,-4.10459 0.71977,-1.36018 1.97389,-1.70694 2.80065,-1.70694 0.90543,0 2.21302,0.34676 2.96007,1.97331 0.53295,1.17279 0.61339,2.50569 0.61339,3.83822 z m -3.57346,-5.43717 c -0.66692,0 -1.68044,0.42579 -1.9742,2.05234 -0.18572,1.013 -0.18572,2.58468 -0.18572,3.59809 0,1.09241 0,2.21204 0.13256,3.11882 0.31964,2.02611 1.59963,2.18585 2.02736,2.18585 0.55992,0 1.68007,-0.32089 1.99971,-1.99882 0.18608,-0.95995 0.18608,-2.23969 0.18608,-3.30585 0,-1.27942 0,-2.4253 -0.18608,-3.5191 -0.26617,-1.62478 -1.22679,-2.13133 -1.99971,-2.13133 z"
       style="fill:#000000;fill-opacity:1;fill-rule:nonzero;stroke:none"
       id="path10187"
       inkscape:connector-curvature="0" /><path
       d="m 362.0746,147.33072 0,-4.55804 c 0,-0.747 -0.18572,-0.747 -1.33315,-0.747 l 0,-0.53242 c 0.61344,0.0259 1.46712,0.0532 1.9466,0.0532 0.42767,0 1.30764,-0.0273 1.89339,-0.0532 l 0,0.53242 c -1.14608,0 -1.33316,0 -1.33316,0.747 l 0,3.1447 c 0,1.75869 1.22684,2.71858 2.29388,2.71858 1.09287,0 1.28,-0.90538 1.28,-1.89255 l 0,-3.97073 c 0,-0.747 -0.18713,-0.747 -1.33352,-0.747 l 0,-0.53242 c 0.58752,0.0259 1.46744,0.0532 1.92067,0.0532 0.42632,0 1.33352,-0.0273 1.89339,-0.0532 l 0,0.53242 c -0.88091,0 -1.30723,0 -1.30723,0.50651 l 0,3.25273 c 0,1.46504 0,1.97191 -0.53263,2.58467 -0.24065,0.29366 -0.80057,0.64078 -1.78713,0.64078 -1.25406,0 -2.05323,-0.72117 -2.53411,-1.78629 l 0,1.78629 -2.40015,-0.18738 0,-0.53379 c 1.20101,0 1.33315,-0.10663 1.33315,-0.95848 z"
       style="fill:#000000;fill-opacity:1;fill-rule:nonzero;stroke:none"
       id="path10189"
       inkscape:connector-curvature="0" /><path
       d="m 371.52275,147.33072 0,-4.55804 c 0,-0.747 -0.18707,-0.747 -1.3331,-0.747 l 0,-0.53242 c 0.61339,0.0259 1.46566,0.0532 1.94655,0.0532 0.42632,0 1.30587,-0.0273 1.89344,-0.0532 l 0,0.53242 c -1.14749,0 -1.33316,0 -1.33316,0.747 l 0,3.1447 c 0,1.75869 1.22648,2.71858 2.29206,2.71858 1.09433,0 1.28005,-0.90538 1.28005,-1.89255 l 0,-3.97073 c 0,-0.747 -0.18572,-0.747 -1.33315,-0.747 l 0,-0.53242 c 0.58746,0.0259 1.46707,0.0532 1.92062,0.0532 0.42631,0 1.33352,-0.0273 1.89344,-0.0532 l 0,0.53242 c -1.12016,0 -1.30728,0 -1.30728,0.747 l 0,3.1447 c 0,1.75869 1.20101,2.71858 2.29352,2.71858 1.06699,0 1.25412,-0.90538 1.25412,-1.89255 l 0,-3.97073 c 0,-0.747 -0.18713,-0.747 -1.33316,-0.747 l 0,-0.53242 c 0.58616,0.0259 1.46572,0.0532 1.91932,0.0532 0.4536,0 1.33347,-0.0273 1.92067,-0.0532 l 0,0.53242 c -0.88096,0 -1.30728,0 -1.33461,0.50651 l 0,3.25273 c 0,1.46504 0,1.97191 -0.53259,2.58467 -0.2406,0.29366 -0.80047,0.64078 -1.78707,0.64078 -1.41256,0 -2.1872,-1.01342 -2.45331,-1.67965 -0.23919,1.49227 -1.49336,1.67965 -2.26655,1.67965 -1.25276,0 -2.05328,-0.72117 -2.53276,-1.78629 l 0,1.78629 -2.40015,-0.18738 0,-0.53379 c 1.19919,0 1.3331,-0.10663 1.3331,-0.95848 z"
       style="fill:#000000;fill-opacity:1;fill-rule:nonzero;stroke:none"
       id="path10191"
       inkscape:connector-curvature="0" /><text
       xml:space="preserve"
       style="font-style:normal;font-variant:normal;font-weight:normal;font-stretch:normal;font-size:10.90899754px;line-height:125%;font-family:'Latin Modern Roman';-inkscape-font-specification:'Latin Modern Roman, Normal';text-align:start;letter-spacing:0px;word-spacing:0px;writing-mode:lr-tb;text-anchor:start;fill:#000000;fill-opacity:1;stroke:none;stroke-width:1px;stroke-linecap:butt;stroke-linejoin:miter;stroke-opacity:1"
       x="51.098801"
       y="23.287905"
       id="text10989"
       sodipodi:linespacing="125%"
       transform="scale(1,-1)"><tspan
         sodipodi:role="line"
         id="tspan10991"
         x="51.098801"
         y="23.287905">Nearest-Neighbor Distance (nm)</tspan></text>
<text
       transform="scale(1,-1)"
       sodipodi:linespacing="125%"
       id="text10993"
       y="23.287905"
       x="266.86212"
       style="font-style:normal;font-variant:normal;font-weight:normal;font-stretch:normal;font-size:10.90899754px;line-height:125%;font-family:'Latin Modern Roman';-inkscape-font-specification:'Latin Modern Roman, Normal';text-align:start;letter-spacing:0px;word-spacing:0px;writing-mode:lr-tb;text-anchor:start;fill:#000000;fill-opacity:1;stroke:none;stroke-width:1px;stroke-linecap:butt;stroke-linejoin:miter;stroke-opacity:1"
       xml:space="preserve"><tspan
         y="23.287905"
         x="266.86212"
         id="tspan10995"
         sodipodi:role="line">Nearest-Neighbor Distance (nm)</tspan></text>
</g></svg>