<?xml version="1.0" encoding="UTF-8" standalone="no"?>
<!-- Created with Inkscape (http://www.inkscape.org/) -->

<svg
   xmlns:ns0="http://www.iki.fi/pav/software/textext/"
   xmlns:dc="http://purl.org/dc/elements/1.1/"
   xmlns:cc="http://creativecommons.org/ns#"
   xmlns:rdf="http://www.w3.org/1999/02/22-rdf-syntax-ns#"
   xmlns:svg="http://www.w3.org/2000/svg"
   xmlns="http://www.w3.org/2000/svg"
   xmlns:sodipodi="http://sodipodi.sourceforge.net/DTD/sodipodi-0.dtd"
   xmlns:inkscape="http://www.inkscape.org/namespaces/inkscape"
   id="svg11035"
   version="1.1"
   inkscape:version="0.91 r13725"
   xml:space="preserve"
   width="540"
   height="227.72728"
   viewBox="0 0 540 227.72728"
   sodipodi:docname="qs_limit.svg"><sodipodi:namedview
     pagecolor="#ffffff"
     bordercolor="#666666"
     borderopacity="1"
     objecttolerance="10"
     gridtolerance="10"
     guidetolerance="10"
     inkscape:pageopacity="0"
     inkscape:pageshadow="2"
     inkscape:window-width="1214"
     inkscape:window-height="672"
     id="namedview11037"
     showgrid="false"
     inkscape:zoom="0.63994738"
     inkscape:cx="480.46833"
     inkscape:cy="221.21317"
     inkscape:window-x="65"
     inkscape:window-y="24"
     inkscape:window-maximized="0"
     inkscape:current-layer="g11043"
     fit-margin-top="0"
     fit-margin-left="0"
     fit-margin-right="0"
     fit-margin-bottom="0" /><metadata
     id="metadata11041"><rdf:RDF><cc:Work
         rdf:about=""><dc:format>image/svg+xml</dc:format><dc:type
           rdf:resource="http://purl.org/dc/dcmitype/StillImage" /><dc:title></dc:title></cc:Work></rdf:RDF></metadata><defs
     id="defs11039"><clipPath
       id="clipPath11051"
       clipPathUnits="userSpaceOnUse"><path
         inkscape:connector-curvature="0"
         id="path11053"
         d="M 0,0 792,0 792,334 0,334 0,0 Z" /></clipPath><clipPath
       id="clipPath11061"
       clipPathUnits="userSpaceOnUse"><path
         inkscape:connector-curvature="0"
         id="path11063"
         d="m 0,0.4999695 791.9999,0 0,333.2504005 L 0,333.75037 0,0.4999695 Z" /></clipPath><clipPath
       id="clipPath11089"
       clipPathUnits="userSpaceOnUse"><path
         inkscape:connector-curvature="0"
         id="path11091"
         d="m 67.87118,56.20418 279.9686,0 0,206.25 -279.9686,0 0,-206.25 z" /></clipPath><clipPath
       id="clipPath11101"
       clipPathUnits="userSpaceOnUse"><path
         inkscape:connector-curvature="0"
         id="path11103"
         d="m 67.87118,52.80912 279.9686,0 0,206.25 -279.9686,0 0,-206.25 z" /></clipPath><clipPath
       id="clipPath11113"
       clipPathUnits="userSpaceOnUse"><path
         inkscape:connector-curvature="0"
         id="path11115"
         d="m 0,0.4999695 791.9999,0 0,333.2504005 L 0,333.75037 0,0.4999695 Z" /></clipPath><clipPath
       id="clipPath11157"
       clipPathUnits="userSpaceOnUse"><path
         inkscape:connector-curvature="0"
         id="path11159"
         d="m 474.2499,259.9078 279.1202,0 0,3.39505 -279.1202,0 0,-3.39505 z" /></clipPath><clipPath
       id="clipPath11169"
       clipPathUnits="userSpaceOnUse"><path
         inkscape:connector-curvature="0"
         id="path11171"
         d="m 474.2499,54.50665 279.1202,0 0,3.395061 -279.1202,0 0,-3.395061 z" /></clipPath><clipPath
       id="clipPath11181"
       clipPathUnits="userSpaceOnUse"><path
         inkscape:connector-curvature="0"
         id="path11183"
         d="m 0,0.4999695 791.9999,0 0,333.2504005 L 0,333.75037 0,0.4999695 Z" /></clipPath></defs><g
     transform="matrix(1.25,0,0,-1.25,8.9387184e-7,227.72727)"
     inkscape:label="qs_limit"
     inkscape:groupmode="layer"
     id="g11043"><g
       id="g11045" /><path
       inkscape:connector-curvature="0"
       id="path11055"
       style="fill:#ffffff;fill-opacity:0;fill-rule:evenodd;stroke:none"
       d="m 0,0 432,0 0,182.18182 -432,0 L 0,0 Z" /><g
       transform="matrix(0.46275802,0,0,-0.46296289,0,182.04567)"
       id="g11065"><path
         inkscape:connector-curvature="0"
         id="path11067"
         style="fill:none;stroke:#000000;stroke-width:3;stroke-linecap:butt;stroke-linejoin:round;stroke-miterlimit:10;stroke-dasharray:none;stroke-opacity:1"
         d="m 71.137,340.109 0,3.5" /></g><g
       transform="matrix(0.46275802,0,0,-0.46296289,0,182.04567)"
       id="g11069"><path
         inkscape:connector-curvature="0"
         id="path11071"
         style="fill:none;stroke:#000000;stroke-width:3;stroke-linecap:butt;stroke-linejoin:round;stroke-miterlimit:10;stroke-dasharray:none;stroke-opacity:1"
         d="m 239.059,340.109 0,3.5" /></g><g
       transform="matrix(0.46275802,0,0,-0.46296289,0,182.04567)"
       id="g11073"><path
         inkscape:connector-curvature="0"
         id="path11075"
         style="fill:none;stroke:#000000;stroke-width:3;stroke-linecap:butt;stroke-linejoin:round;stroke-miterlimit:10;stroke-dasharray:none;stroke-opacity:1"
         d="m 406.984,340.109 0,3.5" /></g><g
       transform="matrix(0.46275802,0,0,-0.46296289,0,182.04567)"
       id="g11077"><path
         inkscape:connector-curvature="0"
         id="path11079"
         style="fill:none;stroke:#000000;stroke-width:3;stroke-linecap:butt;stroke-linejoin:round;stroke-miterlimit:10;stroke-dasharray:none;stroke-opacity:1"
         d="m 66.098,302.492 -3.49999,0" /></g><g
       transform="matrix(0.46275802,0,0,-0.46296289,0,182.04567)"
       id="g11081"><path
         inkscape:connector-curvature="0"
         id="path11083"
         style="fill:none;stroke:#000000;stroke-width:3;stroke-linecap:butt;stroke-linejoin:round;stroke-miterlimit:10;stroke-dasharray:none;stroke-opacity:1"
         d="m 66.098,117.316 -3.49999,0" /></g><g
       transform="matrix(0.46275802,0,0,0.46296289,0,182.04567)"
       id="g11093"><path
         inkscape:connector-curvature="0"
         id="path11095"
         style="fill:none;stroke:#1f77b4;stroke-width:3;stroke-linecap:square;stroke-linejoin:round;stroke-miterlimit:10;stroke-dasharray:none;stroke-opacity:1"
         d="m 82.332,-86.09401 11.191,-0.69901 11.196,-1.16801 11.195,-1.64099 11.195,-2.11298 11.196,-2.59001 11.195,-3.074 11.195,-3.56599 11.196,-4.059 11.195,-4.57 11.195,-5.078 11.196,-5.606 11.195,-6.14 11.191,-6.684 11.196,-7.242 11.195,-7.817 11.195,-8.394 11.196,-8.992 11.195,-9.606 11.195,-10.226 11.195,-10.868 11.196,-11.511 11.195,-12.18 11.195,-12.852 11.196,-13.531 11.191,-14.23 11.195,-14.926 11.1961,-15.629 11.1949,-16.332 11.195,-17.039" /></g><g
       transform="matrix(0.46275802,0,0,0.46296289,0,182.04567)"
       id="g11105"><path
         inkscape:connector-curvature="0"
         id="path11107"
         style="fill:none;stroke:#ff7f0e;stroke-width:3;stroke-linecap:square;stroke-linejoin:round;stroke-miterlimit:10;stroke-dasharray:none;stroke-opacity:1"
         d="m 82.332,-89.96499 11.191,-0.69901 11.196,-1.16801 11.195,-1.637 11.195,-2.10899 11.196,-2.58602 11.195,-3.07398 11.195,-3.559 11.196,-4.055 11.195,-4.562 11.195,-5.074 11.196,-5.598 11.195,-6.133 11.191,-6.676 11.196,-7.234 11.195,-7.801 11.195,-8.386 11.196,-8.981 11.195,-9.594 11.195,-10.214 11.195,-10.848 11.196,-11.5 11.195,-12.164 11.195,-12.832 11.196,-13.516 11.191,-14.211 11.195,-14.906 11.1961,-15.606 11.1949,-16.312 11.195,-17.016" /></g><g
       transform="matrix(0.46275802,0,0,-0.46296289,0,182.04567)"
       id="g11117"><path
         inkscape:connector-curvature="0"
         id="path11119"
         style="fill:none;stroke:#000000;stroke-width:3;stroke-linecap:square;stroke-linejoin:miter;stroke-miterlimit:10;stroke-dasharray:none;stroke-opacity:1"
         d="m 66.098,340.109 0,-266.10901" /></g><g
       transform="matrix(0.46275802,0,0,-0.46296289,0,182.04567)"
       id="g11121"><path
         inkscape:connector-curvature="0"
         id="path11123"
         style="fill:none;stroke:#000000;stroke-width:3;stroke-linecap:square;stroke-linejoin:miter;stroke-miterlimit:10;stroke-dasharray:none;stroke-opacity:1"
         d="m 66.098,340.109 357.1211,0" /></g><g
       transform="matrix(0.46275802,0,0,-0.46296289,-2.0456227,269.32558)"
       id="g11125"><path
         inkscape:connector-curvature="0"
         id="path11127"
         style="fill:none;stroke:#1f77b4;stroke-width:3;stroke-linecap:square;stroke-linejoin:round;stroke-miterlimit:10;stroke-dasharray:none;stroke-opacity:1"
         d="m 87.30501,306.035 19.99999,0" /></g><g
       transform="matrix(0.46275802,0,0,-0.46296289,-2.0456227,267.58012)"
       id="g11129"><path
         inkscape:connector-curvature="0"
         id="path11131"
         style="fill:none;stroke:#ff7f0e;stroke-width:3;stroke-linecap:square;stroke-linejoin:round;stroke-miterlimit:10;stroke-dasharray:none;stroke-opacity:1"
         d="m 87.30501,320.707 19.99999,0" /></g><g
       transform="matrix(0.46275802,0,0,-0.46296289,0,182.04567)"
       id="g11133"><path
         inkscape:connector-curvature="0"
         id="path11135"
         style="fill:none;stroke:#000000;stroke-width:3;stroke-linecap:butt;stroke-linejoin:round;stroke-miterlimit:10;stroke-dasharray:none;stroke-opacity:1"
         d="m 549.7621,338.863 0,3.5" /></g><g
       transform="matrix(0.46275802,0,0,-0.46296289,0,182.04567)"
       id="g11137"><path
         inkscape:connector-curvature="0"
         id="path11139"
         style="fill:none;stroke:#000000;stroke-width:3;stroke-linecap:butt;stroke-linejoin:round;stroke-miterlimit:10;stroke-dasharray:none;stroke-opacity:1"
         d="m 717.6881,338.863 0,3.5" /></g><g
       transform="matrix(0.46275802,0,0,-0.46296289,0,182.04567)"
       id="g11141"><path
         inkscape:connector-curvature="0"
         id="path11143"
         style="fill:none;stroke:#000000;stroke-width:3;stroke-linecap:butt;stroke-linejoin:round;stroke-miterlimit:10;stroke-dasharray:none;stroke-opacity:1"
         d="m 885.6131,338.863 0,3.5" /></g><g
       transform="matrix(0.46275802,0,0,-0.46296289,0,182.04567)"
       id="g11145"><path
         inkscape:connector-curvature="0"
         id="path11147"
         style="fill:none;stroke:#000000;stroke-width:3;stroke-linecap:butt;stroke-linejoin:round;stroke-miterlimit:10;stroke-dasharray:none;stroke-opacity:1"
         d="m 544.723,330.234 -3.5,0" /></g><g
       transform="matrix(0.46275802,0,0,-0.46296289,0,182.04567)"
       id="g11149"><path
         inkscape:connector-curvature="0"
         id="path11151"
         style="fill:none;stroke:#000000;stroke-width:3;stroke-linecap:butt;stroke-linejoin:round;stroke-miterlimit:10;stroke-dasharray:none;stroke-opacity:1"
         d="m 544.723,84.664 -3.5,0" /></g><g
       transform="matrix(0.46275802,0,0,0.46296289,0,182.04567)"
       id="g11161"><path
         inkscape:connector-curvature="0"
         id="path11163"
         style="fill:none;stroke:#1f77b4;stroke-width:3;stroke-linecap:square;stroke-linejoin:round;stroke-miterlimit:10;stroke-dasharray:none;stroke-opacity:1"
         d="m 560.957,-84.84802 324.6561,0" /></g><g
       transform="matrix(0.46275802,0,0,0.46296289,0,182.04567)"
       id="g11173"><path
         inkscape:connector-curvature="0"
         id="path11175"
         style="fill:none;stroke:#ff7f0e;stroke-width:3;stroke-linecap:square;stroke-linejoin:round;stroke-miterlimit:10;stroke-dasharray:none;stroke-opacity:1"
         d="m 560.957,-326.77 324.6561,0" /></g><path
       d="m 252.07493,25.164679 0,123.198591"
       style="fill:none;stroke:#000000;stroke-width:1.3885814;stroke-linecap:square;stroke-linejoin:miter;stroke-miterlimit:10;stroke-dasharray:none;stroke-opacity:1"
       id="path11187"
       inkscape:connector-curvature="0" /><path
       d="m 252.07493,25.164679 165.26066,0"
       style="fill:none;stroke:#000000;stroke-width:1.3885814;stroke-linecap:square;stroke-linejoin:miter;stroke-miterlimit:10;stroke-dasharray:none;stroke-opacity:1"
       id="path11191"
       inkscape:connector-curvature="0" /><path
       d="m 260.19703,132.95315 9.25516,0"
       style="fill:none;stroke:#1f77b4;stroke-width:1.3885814;stroke-linecap:square;stroke-linejoin:round;stroke-miterlimit:10;stroke-dasharray:none;stroke-opacity:1"
       id="path11195"
       inkscape:connector-curvature="0" /><path
       d="m 260.19703,123.54238 9.25516,0"
       style="fill:none;stroke:#ff7f0e;stroke-width:1.3885814;stroke-linecap:square;stroke-linejoin:round;stroke-miterlimit:10;stroke-dasharray:none;stroke-opacity:1"
       id="path11199"
       inkscape:connector-curvature="0" /><text
       y="239.51511"
       x="57.483669"
       transform="matrix(0,1.0002213,0.99977873,0,0,0)"
       style="font-variant:normal;font-weight:normal;font-size:11.10865116px;font-family:LMRoman10;-inkscape-font-specification:LMRoman10-Regular;writing-mode:lr-tb;fill:#000000;fill-opacity:1;fill-rule:nonzero;stroke:none"
       id="text11203"><tspan
         x="57.483669 65.048653 71.191734 76.123985 80.478569 86.032906 91.898262 95.59745 99.918716 103.94004 112.27153"
         y="239.51511"
         sodipodi:role="line"
         id="tspan11205">Energy (eV)</tspan></text>
<text
       y="8.3314877"
       x="56.907036"
       transform="matrix(0,1.0002213,0.99977873,0,0,0)"
       style="font-variant:normal;font-weight:normal;font-size:11.10865116px;font-family:LMRoman10;-inkscape-font-specification:LMRoman10-Regular;writing-mode:lr-tb;fill:#000000;fill-opacity:1;fill-rule:nonzero;stroke:none"
       id="text11221"><tspan
         x="56.907036 64.472031 70.615112 75.547348 79.901939 85.456268 95.009705 99.330971 103.36341 111.6949"
         y="8.3314877"
         sodipodi:role="line"
         id="tspan11223">Energy(eV)</tspan></text>
<text
       y="-13.71283"
       x="30.1537"
       transform="scale(0.99977873,-1.0002213)"
       style="font-variant:normal;font-weight:normal;font-size:11.10865116px;font-family:LMRoman10;-inkscape-font-specification:LMRoman10-Regular;writing-mode:lr-tb;fill:#000000;fill-opacity:1;fill-rule:nonzero;stroke:none"
       id="text11239"><tspan
         x="30.1537"
         y="-13.71283"
         id="tspan11241">0</tspan></text>
<text
       y="-13.682319"
       x="104.93889"
       transform="scale(0.99977873,-1.0002213)"
       style="font-variant:normal;font-weight:normal;font-size:11.10865116px;font-family:LMRoman10;-inkscape-font-specification:LMRoman10-Regular;writing-mode:lr-tb;fill:#000000;fill-opacity:1;fill-rule:nonzero;stroke:none"
       id="text11245"><tspan
         x="104.93889 110.49321"
         y="-13.682319"
         sodipodi:role="line"
         id="tspan11247">15</tspan></text>
<text
       y="-14.289448"
       x="404.3725"
       transform="scale(0.99977873,-1.0002213)"
       style="font-variant:normal;font-weight:normal;font-size:11.10865116px;font-family:LMRoman10;-inkscape-font-specification:LMRoman10-Regular;writing-mode:lr-tb;fill:#000000;fill-opacity:1;fill-rule:nonzero;stroke:none"
       id="text11251"><tspan
         x="404.3725 409.92682"
         y="-14.289448"
         sodipodi:role="line"
         id="tspan11253">30</tspan></text>
<text
       y="-14.289448"
       x="251.69101"
       transform="scale(0.99977873,-1.0002213)"
       style="font-variant:normal;font-weight:normal;font-size:11.10865116px;font-family:LMRoman10;-inkscape-font-specification:LMRoman10-Regular;writing-mode:lr-tb;fill:#000000;fill-opacity:1;fill-rule:nonzero;stroke:none"
       id="text11257"><tspan
         x="251.69101"
         y="-14.289448"
         id="tspan11259">0</tspan></text>
<text
       y="-14.258936"
       x="326.47623"
       transform="scale(0.99977873,-1.0002213)"
       style="font-variant:normal;font-weight:normal;font-size:11.10865116px;font-family:LMRoman10;-inkscape-font-specification:LMRoman10-Regular;writing-mode:lr-tb;fill:#000000;fill-opacity:1;fill-rule:nonzero;stroke:none"
       id="text11263"><tspan
         x="326.47623 332.03055"
         y="-14.258936"
         sodipodi:role="line"
         id="tspan11265">15</tspan></text>
<text
       y="-13.712826"
       x="182.83521"
       transform="scale(0.99977873,-1.0002213)"
       style="font-variant:normal;font-weight:normal;font-size:11.10865116px;font-family:LMRoman10;-inkscape-font-specification:LMRoman10-Regular;writing-mode:lr-tb;fill:#000000;fill-opacity:1;fill-rule:nonzero;stroke:none"
       id="text11269"><tspan
         x="182.83521 188.38953"
         y="-13.712826"
         sodipodi:role="line"
         id="tspan11271">30</tspan></text>
<text
       y="-124.05388"
       x="7.7278576"
       transform="scale(0.99977873,-1.0002213)"
       style="font-variant:normal;font-weight:normal;font-size:11.10865116px;font-family:LMRoman10;-inkscape-font-specification:LMRoman10-Regular;writing-mode:lr-tb;fill:#000000;fill-opacity:1;fill-rule:nonzero;stroke:none"
       id="text11275"><tspan
         x="7.7278576 13.282183 16.370388"
         y="-124.05388"
         sodipodi:role="line"
         id="tspan11277">3.6</tspan></text>
<text
       y="-38.282406"
       x="7.6500883"
       transform="scale(0.99977873,-1.0002213)"
       style="font-variant:normal;font-weight:normal;font-size:11.10865116px;font-family:LMRoman10;-inkscape-font-specification:LMRoman10-Regular;writing-mode:lr-tb;fill:#000000;fill-opacity:1;fill-rule:nonzero;stroke:none"
       id="text11281"><tspan
         x="7.6500883 13.204413 16.292618"
         y="-38.282406"
         sodipodi:role="line"
         id="tspan11283">3.4</tspan></text>
<text
       y="-25.442741"
       x="221.44461"
       transform="scale(0.99977873,-1.0002213)"
       style="font-variant:normal;font-weight:normal;font-size:11.10865116px;font-family:LMRoman10;-inkscape-font-specification:LMRoman10-Regular;writing-mode:lr-tb;fill:#000000;fill-opacity:1;fill-rule:nonzero;stroke:none"
       id="text11287"><tspan
         x="221.44461 226.99893 230.08713 235.64146 241.19579"
         y="-25.442741"
         sodipodi:role="line"
         id="tspan11289">3.644</tspan></text>
<text
       y="-139.10725"
       x="221.49413"
       transform="scale(0.99977873,-1.0002213)"
       style="font-variant:normal;font-weight:normal;font-size:11.10865116px;font-family:LMRoman10;-inkscape-font-specification:LMRoman10-Regular;writing-mode:lr-tb;fill:#000000;fill-opacity:1;fill-rule:nonzero;stroke:none"
       id="text11293"><tspan
         x="221.49413 227.04845 230.13666 235.69099 241.24532"
         y="-139.10725"
         sodipodi:role="line"
         id="tspan11295">3.650</tspan></text>
<text
       y="-126.94583"
       x="52.6591"
       transform="scale(0.99977874,-1.0002213)"
       style="font-variant:normal;font-weight:normal;font-size:11.10865116px;font-family:LMRoman10;-inkscape-font-specification:LMRoman10-Regular;writing-mode:lr-tb;fill:#000000;fill-opacity:1;fill-rule:nonzero;stroke:none"
       id="text11299"><tspan
         x="52.6591"
         y="-126.94583"
         sodipodi:role="line"
         id="tspan11301">aN</tspan></text>
<text
       y="-116.13729"
       x="51.381397"
       transform="scale(0.99977874,-1.0002213)"
       style="font-variant:normal;font-weight:normal;font-size:11.10865116px;font-family:LMRoman10;-inkscape-font-specification:LMRoman10-Regular;writing-mode:lr-tb;fill:#000000;fill-opacity:1;fill-rule:nonzero;stroke:none"
       id="text11305"><tspan
         x="51.381397"
         y="-116.13729"
         sodipodi:role="line"
         id="tspan11307">NS</tspan></text>
<text
       y="-130.9968"
       x="274.37021"
       transform="scale(0.99977874,-1.0002213)"
       style="font-variant:normal;font-weight:normal;font-size:11.10865116px;font-family:LMRoman10;-inkscape-font-specification:LMRoman10-Regular;writing-mode:lr-tb;fill:#000000;fill-opacity:1;fill-rule:nonzero;stroke:none"
       id="text11311"><tspan
         x="274.37021"
         y="-130.9968"
         sodipodi:role="line"
         id="tspan11313">aN</tspan></text>
<text
       y="-119.87669"
       x="272.76862"
       transform="scale(0.99977874,-1.0002213)"
       style="font-variant:normal;font-weight:normal;font-size:11.10865116px;font-family:LMRoman10;-inkscape-font-specification:LMRoman10-Regular;writing-mode:lr-tb;fill:#000000;fill-opacity:1;fill-rule:nonzero;stroke:none"
       id="text11317"><tspan
         x="272.76862"
         y="-119.87669"
         sodipodi:role="line"
         id="tspan11319">NS</tspan></text>
<g
       transform="matrix(0.8483897,0,0,0.8487653,0,0.4999431)"
       id="g11327"><text
         id="text11329"
         style="font-variant:normal;font-weight:normal;font-size:31.2282505px;font-family:LMRoman10;-inkscape-font-specification:LMRoman10-Regular;writing-mode:lr-tb;fill:#000000;fill-opacity:1;fill-rule:nonzero;stroke:none"
         transform="matrix(1,0,0,-1,278.2623,369.0138)"><tspan
           id="tspan11331"
           y="0"
           x="0" /></text>
</g><g
       transform="matrix(0.8483897,0,0,0.8487653,0,0.4999431)"
       id="g11333"><text
         id="text11335"
         style="font-variant:normal;font-weight:normal;font-size:31.2282505px;font-family:LMRoman10;-inkscape-font-specification:LMRoman10-Regular;writing-mode:lr-tb;fill:#000000;fill-opacity:1;fill-rule:nonzero;stroke:none"
         transform="matrix(1,0,0,-1,295.6252,369.0138)"><tspan
           y="0"
           id="tspan11337"
           sodipodi:role="line"
           x="0" /></text>
</g><g
       transform="matrix(0.8483897,0,0,0.8487653,0,0.4999431)"
       id="g11351"><text
         id="text11353"
         style="font-variant:normal;font-weight:normal;font-size:31.2282505px;font-family:LMRoman10;-inkscape-font-specification:LMRoman10-Regular;writing-mode:lr-tb;fill:#000000;fill-opacity:1;fill-rule:nonzero;stroke:none"
         transform="matrix(1,0,0,-1,677.5641,355.4357)"><tspan
           id="tspan11355"
           y="0"
           x="0" /></text>
</g><text
       transform="scale(1,-1)"
       sodipodi:linespacing="125%"
       id="text12082"
       y="-168.42294"
       x="113.01656"
       style="font-style:normal;font-variant:normal;font-weight:normal;font-stretch:normal;font-size:9.81818199px;line-height:125%;font-family:'Latin Modern Roman';-inkscape-font-specification:'Latin Modern Roman, Normal';text-align:center;letter-spacing:0px;word-spacing:0px;writing-mode:lr-tb;text-anchor:middle;fill:#000000;fill-opacity:1;stroke:none;stroke-width:1px;stroke-linecap:butt;stroke-linejoin:miter;stroke-opacity:1"
       xml:space="preserve"><tspan
         y="-168.42294"
         x="113.01656"
         id="tspan12084"
         sodipodi:role="line">Quasistatic fields</tspan><tspan
         id="tspan12086"
         y="-156.15022"
         x="113.01656"
         sodipodi:role="line">Size-dependent plasmon frequency</tspan></text>
<text
       xml:space="preserve"
       style="font-style:normal;font-variant:normal;font-weight:normal;font-stretch:normal;font-size:9.81818199px;line-height:125%;font-family:'Latin Modern Roman';-inkscape-font-specification:'Latin Modern Roman, Normal';text-align:center;letter-spacing:0px;word-spacing:0px;writing-mode:lr-tb;text-anchor:middle;fill:#000000;fill-opacity:1;stroke:none;stroke-width:1px;stroke-linecap:butt;stroke-linejoin:miter;stroke-opacity:1"
       x="336.28964"
       y="-168.7231"
       id="text12088"
       sodipodi:linespacing="125%"
       transform="scale(1,-1)"><tspan
         sodipodi:role="line"
         x="336.28964"
         y="-168.7231"
         id="tspan12092">Completely Quasistatic</tspan></text>
<g
       ns0:preamble="/home/nick/tt_preamble.ini"
       ns0:text="$a$ nm"
       word-spacing="normal"
       letter-spacing="normal"
       font-size-adjust="none"
       font-stretch="normal"
       font-weight="normal"
       font-variant="normal"
       font-style="normal"
       stroke-miterlimit="10.433"
       xml:space="preserve"
       transform="matrix(1.532269,0,0,1.532269,-248.74361,-1004.7697)"
       id="content"
       style="font-style:normal;font-variant:normal;font-weight:normal;font-stretch:normal;letter-spacing:normal;word-spacing:normal;text-anchor:start;fill:none;fill-opacity:1;fill-rule:evenodd;stroke:#000000;stroke-linecap:butt;stroke-linejoin:miter;stroke-miterlimit:10.43299961;stroke-dasharray:none;stroke-dashoffset:0;stroke-opacity:1"><path
         id="path12323"
         d="m 227.15,661 -0.02,0.03 -0.02,0.04 -0.01,0.03 -0.02,0.03 -0.02,0.03 -0.02,0.03 -0.03,0.03 -0.02,0.03 -0.02,0.03 -0.02,0.03 -0.03,0.03 -0.02,0.02 -0.03,0.03 -0.02,0.02 -0.03,0.02 -0.03,0.03 -0.03,0.02 -0.03,0.02 -0.03,0.01 -0.03,0.02 -0.03,0.02 -0.03,0.01 -0.04,0.02 -0.03,0.01 -0.04,0.01 -0.03,0.01 -0.04,0.01 -0.04,0 -0.04,0.01 -0.04,0 -0.04,0.01 -0.04,0 0.01,-0.22 c 0.65,0 0.79,-0.82 0.79,-0.88 0,-0.06 -0.02,-0.12 -0.03,-0.17 l -0.5,-1.95 c -0.05,-0.18 -0.05,-0.2 -0.2,-0.37 -0.44,-0.55 -0.84,-0.71 -1.12,-0.71 -0.5,0 -0.64,0.55 -0.64,0.94 0,0.5 0.32,1.72 0.55,2.18 0.31,0.59 0.75,0.96 1.15,0.96 l -0.01,0.22 c -1.16,0 -2.4,-1.47 -2.4,-2.92 0,-0.94 0.55,-1.6 1.33,-1.6 0.19,0 0.69,0.04 1.29,0.75 0.08,-0.42 0.43,-0.75 0.91,-0.75 0.35,0 0.58,0.23 0.74,0.55 0.16,0.36 0.29,0.97 0.29,0.99 0,0.1 -0.09,0.1 -0.12,0.1 -0.09,0 -0.11,-0.04 -0.14,-0.18 -0.17,-0.65 -0.34,-1.24 -0.75,-1.24 -0.27,0 -0.3,0.26 -0.3,0.46 0,0.22 0.02,0.3 0.13,0.74 0.11,0.42 0.13,0.52 0.22,0.89 l 0.36,1.4 c 0.07,0.28 0.07,0.3 0.07,0.34 0,0.17 -0.12,0.27 -0.29,0.27 -0.24,0 -0.39,-0.22 -0.42,-0.44 z"
         inkscape:connector-curvature="0"
         style="fill:#000000;stroke-width:0" /><path
         id="path12325"
         d="m 233.12,660.66 0,-2.67 c 0,-0.45 -0.11,-0.45 -0.78,-0.45 l 0,-0.31 c 0.35,0.01 0.86,0.03 1.12,0.03 0.26,0 0.78,-0.02 1.12,-0.03 l 0,0.31 c -0.67,0 -0.78,0 -0.78,0.45 l 0,1.83 c 0,1.04 0.71,1.6 1.35,1.6 0.63,0 0.73,-0.54 0.73,-1.11 l 0,-2.32 c 0,-0.45 -0.1,-0.45 -0.77,-0.45 l 0,-0.31 c 0.35,0.01 0.85,0.03 1.12,0.03 0.26,0 0.78,-0.02 1.12,-0.03 l 0,0.31 c -0.52,0 -0.77,0 -0.78,0.3 l 0,1.9 c 0,0.86 0,1.17 -0.31,1.53 -0.14,0.17 -0.46,0.37 -1.04,0.37 -0.73,0 -1.2,-0.43 -1.48,-1.05 l 0,1.05 -1.4,-0.11 0,-0.31 c 0.7,0 0.78,-0.07 0.78,-0.56 z"
         inkscape:connector-curvature="0"
         style="fill:#000000;stroke-width:0" /><path
         id="path12327"
         d="m 238.65,660.66 0,-2.67 c 0,-0.45 -0.11,-0.45 -0.78,-0.45 l 0,-0.31 c 0.35,0.01 0.86,0.03 1.13,0.03 0.26,0 0.78,-0.02 1.12,-0.03 l 0,0.31 c -0.67,0 -0.78,0 -0.78,0.45 l 0,1.83 c 0,1.04 0.71,1.6 1.34,1.6 0.63,0 0.74,-0.54 0.74,-1.11 l 0,-2.32 c 0,-0.45 -0.11,-0.45 -0.78,-0.45 l 0,-0.31 c 0.35,0.01 0.86,0.03 1.13,0.03 0.26,0 0.78,-0.02 1.11,-0.03 l 0,0.31 c -0.66,0 -0.77,0 -0.77,0.45 l 0,1.83 c 0,1.04 0.71,1.6 1.34,1.6 0.63,0 0.74,-0.54 0.74,-1.11 l 0,-2.32 c 0,-0.45 -0.11,-0.45 -0.78,-0.45 l 0,-0.31 c 0.35,0.01 0.86,0.03 1.13,0.03 0.26,0 0.78,-0.02 1.11,-0.03 l 0,0.31 c -0.51,0 -0.76,0 -0.77,0.3 l 0,1.9 c 0,0.86 0,1.17 -0.31,1.53 -0.14,0.17 -0.47,0.37 -1.05,0.37 -0.83,0 -1.27,-0.6 -1.44,-0.98 -0.14,0.87 -0.88,0.98 -1.33,0.98 -0.72,0 -1.19,-0.43 -1.47,-1.05 l 0,1.05 -1.41,-0.11 0,-0.31 c 0.7,0 0.78,-0.07 0.78,-0.56 z"
         inkscape:connector-curvature="0"
         style="fill:#000000;stroke-width:0" /></g><g
       style="font-style:normal;font-variant:normal;font-weight:normal;font-stretch:normal;letter-spacing:normal;word-spacing:normal;text-anchor:start;fill:none;fill-opacity:1;fill-rule:evenodd;stroke:#000000;stroke-linecap:butt;stroke-linejoin:miter;stroke-miterlimit:10.43299961;stroke-dasharray:none;stroke-dashoffset:0;stroke-opacity:1"
       id="g12440"
       transform="matrix(1.532269,0,0,1.532269,-27.943615,-1004.7697)"
       xml:space="preserve"
       stroke-miterlimit="10.433"
       font-style="normal"
       font-variant="normal"
       font-weight="normal"
       font-stretch="normal"
       font-size-adjust="none"
       letter-spacing="normal"
       word-spacing="normal"
       ns0:text="$a$ nm"
       ns0:preamble="/home/nick/tt_preamble.ini"><path
         style="fill:#000000;stroke-width:0"
         inkscape:connector-curvature="0"
         d="m 227.15,661 -0.02,0.03 -0.02,0.04 -0.01,0.03 -0.02,0.03 -0.02,0.03 -0.02,0.03 -0.03,0.03 -0.02,0.03 -0.02,0.03 -0.02,0.03 -0.03,0.03 -0.02,0.02 -0.03,0.03 -0.02,0.02 -0.03,0.02 -0.03,0.03 -0.03,0.02 -0.03,0.02 -0.03,0.01 -0.03,0.02 -0.03,0.02 -0.03,0.01 -0.04,0.02 -0.03,0.01 -0.04,0.01 -0.03,0.01 -0.04,0.01 -0.04,0 -0.04,0.01 -0.04,0 -0.04,0.01 -0.04,0 0.01,-0.22 c 0.65,0 0.79,-0.82 0.79,-0.88 0,-0.06 -0.02,-0.12 -0.03,-0.17 l -0.5,-1.95 c -0.05,-0.18 -0.05,-0.2 -0.2,-0.37 -0.44,-0.55 -0.84,-0.71 -1.12,-0.71 -0.5,0 -0.64,0.55 -0.64,0.94 0,0.5 0.32,1.72 0.55,2.18 0.31,0.59 0.75,0.96 1.15,0.96 l -0.01,0.22 c -1.16,0 -2.4,-1.47 -2.4,-2.92 0,-0.94 0.55,-1.6 1.33,-1.6 0.19,0 0.69,0.04 1.29,0.75 0.08,-0.42 0.43,-0.75 0.91,-0.75 0.35,0 0.58,0.23 0.74,0.55 0.16,0.36 0.29,0.97 0.29,0.99 0,0.1 -0.09,0.1 -0.12,0.1 -0.09,0 -0.11,-0.04 -0.14,-0.18 -0.17,-0.65 -0.34,-1.24 -0.75,-1.24 -0.27,0 -0.3,0.26 -0.3,0.46 0,0.22 0.02,0.3 0.13,0.74 0.11,0.42 0.13,0.52 0.22,0.89 l 0.36,1.4 c 0.07,0.28 0.07,0.3 0.07,0.34 0,0.17 -0.12,0.27 -0.29,0.27 -0.24,0 -0.39,-0.22 -0.42,-0.44 z"
         id="path12442" /><path
         style="fill:#000000;stroke-width:0"
         inkscape:connector-curvature="0"
         d="m 233.12,660.66 0,-2.67 c 0,-0.45 -0.11,-0.45 -0.78,-0.45 l 0,-0.31 c 0.35,0.01 0.86,0.03 1.12,0.03 0.26,0 0.78,-0.02 1.12,-0.03 l 0,0.31 c -0.67,0 -0.78,0 -0.78,0.45 l 0,1.83 c 0,1.04 0.71,1.6 1.35,1.6 0.63,0 0.73,-0.54 0.73,-1.11 l 0,-2.32 c 0,-0.45 -0.1,-0.45 -0.77,-0.45 l 0,-0.31 c 0.35,0.01 0.85,0.03 1.12,0.03 0.26,0 0.78,-0.02 1.12,-0.03 l 0,0.31 c -0.52,0 -0.77,0 -0.78,0.3 l 0,1.9 c 0,0.86 0,1.17 -0.31,1.53 -0.14,0.17 -0.46,0.37 -1.04,0.37 -0.73,0 -1.2,-0.43 -1.48,-1.05 l 0,1.05 -1.4,-0.11 0,-0.31 c 0.7,0 0.78,-0.07 0.78,-0.56 z"
         id="path12444" /><path
         style="fill:#000000;stroke-width:0"
         inkscape:connector-curvature="0"
         d="m 238.65,660.66 0,-2.67 c 0,-0.45 -0.11,-0.45 -0.78,-0.45 l 0,-0.31 c 0.35,0.01 0.86,0.03 1.13,0.03 0.26,0 0.78,-0.02 1.12,-0.03 l 0,0.31 c -0.67,0 -0.78,0 -0.78,0.45 l 0,1.83 c 0,1.04 0.71,1.6 1.34,1.6 0.63,0 0.74,-0.54 0.74,-1.11 l 0,-2.32 c 0,-0.45 -0.11,-0.45 -0.78,-0.45 l 0,-0.31 c 0.35,0.01 0.86,0.03 1.13,0.03 0.26,0 0.78,-0.02 1.11,-0.03 l 0,0.31 c -0.66,0 -0.77,0 -0.77,0.45 l 0,1.83 c 0,1.04 0.71,1.6 1.34,1.6 0.63,0 0.74,-0.54 0.74,-1.11 l 0,-2.32 c 0,-0.45 -0.11,-0.45 -0.78,-0.45 l 0,-0.31 c 0.35,0.01 0.86,0.03 1.13,0.03 0.26,0 0.78,-0.02 1.11,-0.03 l 0,0.31 c -0.51,0 -0.76,0 -0.77,0.3 l 0,1.9 c 0,0.86 0,1.17 -0.31,1.53 -0.14,0.17 -0.47,0.37 -1.05,0.37 -0.83,0 -1.27,-0.6 -1.44,-0.98 -0.14,0.87 -0.88,0.98 -1.33,0.98 -0.72,0 -1.19,-0.43 -1.47,-1.05 l 0,1.05 -1.41,-0.11 0,-0.31 c 0.7,0 0.78,-0.07 0.78,-0.56 z"
         id="path12446" /></g><text
       xml:space="preserve"
       style="font-style:normal;font-variant:normal;font-weight:normal;font-stretch:normal;font-size:22.2158947px;line-height:125%;font-family:'Latin Modern Roman';-inkscape-font-specification:'Latin Modern Roman, Normal';text-align:start;letter-spacing:0px;word-spacing:0px;writing-mode:lr-tb;text-anchor:start;fill:#000000;fill-opacity:1;stroke:none;stroke-width:1px;stroke-linecap:butt;stroke-linejoin:miter;stroke-opacity:1"
       x="8.467639"
       y="-166.27814"
       id="text12448"
       sodipodi:linespacing="125%"
       transform="scale(1,-1)"><tspan
         sodipodi:role="line"
         id="tspan12450"
         x="8.467639"
         y="-166.27814">a.</tspan></text>
<text
       transform="scale(1,-1)"
       sodipodi:linespacing="125%"
       id="text12452"
       y="-165.40541"
       x="226.06525"
       style="font-style:normal;font-variant:normal;font-weight:normal;font-stretch:normal;font-size:22.2158947px;line-height:125%;font-family:'Latin Modern Roman';-inkscape-font-specification:'Latin Modern Roman, Normal';text-align:start;letter-spacing:0px;word-spacing:0px;writing-mode:lr-tb;text-anchor:start;fill:#000000;fill-opacity:1;stroke:none;stroke-width:1px;stroke-linecap:butt;stroke-linejoin:miter;stroke-opacity:1"
       xml:space="preserve"><tspan
         y="-165.40541"
         x="226.06525"
         id="tspan12454"
         sodipodi:role="line">b.</tspan></text>
</g></svg>