<?xml version="1.0" encoding="UTF-8" standalone="no"?>
<!-- Created with Inkscape (http://www.inkscape.org/) -->

<svg
   xmlns:ns0="http://www.iki.fi/pav/software/textext/"
   xmlns:dc="http://purl.org/dc/elements/1.1/"
   xmlns:cc="http://creativecommons.org/ns#"
   xmlns:rdf="http://www.w3.org/1999/02/22-rdf-syntax-ns#"
   xmlns:svg="http://www.w3.org/2000/svg"
   xmlns="http://www.w3.org/2000/svg"
   xmlns:sodipodi="http://sodipodi.sourceforge.net/DTD/sodipodi-0.dtd"
   xmlns:inkscape="http://www.inkscape.org/namespaces/inkscape"
   id="svg6357"
   version="1.1"
   inkscape:version="0.91 r13725"
   xml:space="preserve"
   width="539.99994"
   height="203.72379"
   viewBox="0 0 539.99994 203.72378"
   sodipodi:docname="spacing_2mer.svg"><sodipodi:namedview
     pagecolor="#ffffff"
     bordercolor="#666666"
     borderopacity="1"
     objecttolerance="10"
     gridtolerance="10"
     guidetolerance="10"
     inkscape:pageopacity="0"
     inkscape:pageshadow="2"
     inkscape:window-width="1301"
     inkscape:window-height="689"
     id="namedview6359"
     showgrid="false"
     inkscape:zoom="0.76539439"
     inkscape:cx="430.71088"
     inkscape:cy="130.29134"
     inkscape:window-x="65"
     inkscape:window-y="24"
     inkscape:window-maximized="0"
     inkscape:current-layer="g6365"
     fit-margin-top="0"
     fit-margin-left="0"
     fit-margin-right="0"
     fit-margin-bottom="0" /><metadata
     id="metadata6363"><rdf:RDF><cc:Work
         rdf:about=""><dc:format>image/svg+xml</dc:format><dc:type
           rdf:resource="http://purl.org/dc/dcmitype/StillImage" /><dc:title></dc:title></cc:Work></rdf:RDF></metadata><defs
     id="defs6361"><clipPath
       clipPathUnits="userSpaceOnUse"
       id="clipPath6373"><path
         d="M 0,0 789,0 789,330 0,330 0,0 Z"
         id="path6375"
         inkscape:connector-curvature="0" /></clipPath><clipPath
       clipPathUnits="userSpaceOnUse"
       id="clipPath6383"><path
         d="m 0.00789142,0.7500131 788.99209858,0 0,328.8748969 -788.99209858,0 0,-328.8748969 z"
         id="path6385"
         inkscape:connector-curvature="0" /></clipPath></defs><g
     id="g6365"
     inkscape:groupmode="layer"
     inkscape:label="spacing_2mer"
     transform="matrix(1.25,0,0,-1.25,-2068.4334,207.33314)"><g
       id="g6367" /><g
       id="g6387"
       transform="matrix(0.54190557,0,0,-0.54203126,1653.8797,185.92622)"><path
         d="m 61.46901,256.855 -3.29301,0"
         style="fill:none;stroke:#000000;stroke-width:2.25079393;stroke-linecap:butt;stroke-linejoin:round;stroke-miterlimit:10;stroke-dasharray:none;stroke-opacity:1"
         id="path6389"
         inkscape:connector-curvature="0" /></g><g
       id="g6391"
       transform="matrix(0.54190557,0,0,-0.54203126,1653.8797,185.92622)"><path
         d="m 61.46901,55.44901 -3.29301,0"
         style="fill:none;stroke:#000000;stroke-width:2.25079393;stroke-linecap:butt;stroke-linejoin:round;stroke-miterlimit:10;stroke-dasharray:none;stroke-opacity:1"
         id="path6393"
         inkscape:connector-curvature="0" /></g><g
       id="g6395"
       transform="matrix(0.54190557,0,0,-0.54203126,1653.8797,185.92622)"><path
         d="m 72.797,279.48 6.10901,-55.632 6.11399,-37.496 6.10901,-26.438 6.109,-19.344 6.11399,-14.613 6.109,-11.352 6.113,-9.046 6.11,-7.371 6.109,-6.122 6.113,-5.168 6.11,-4.40999 6.109,-3.80001 6.113,-3.29 6.11,-2.86701 6.113,-2.50398 6.109,-2.19502 6.11,-1.93398 6.113,-1.71401 6.109,-1.52402 6.11,-1.35098 6.113,-1.204 6.109,-1.054 6.11,-0.91399 6.113,-0.77001 6.109,-0.625 6.114,-0.492 6.109,-0.39101 6.109,-0.31199 6.114,-0.26998 12.218,-0.49201 6.114,-0.25401 6.109,-0.25802 6.109,-0.26099 6.114,-0.25 6.109,-0.22299 6.113,-0.18399 6.11,-0.14401 6.109,-0.12099 6.113,-0.10602 12.219,-0.21801 6.113,-0.11798 6.11,-0.128 6.113,-0.137 12.219,-0.28101 6.113,-0.12199 6.11,-0.10502 6.1091,-0.06998"
         style="fill:none;stroke:#1f77b4;stroke-width:2.82337594;stroke-linecap:square;stroke-linejoin:round;stroke-miterlimit:10;stroke-dasharray:none;stroke-opacity:1"
         id="path6397"
         inkscape:connector-curvature="0" /></g><g
       id="g6399"
       transform="matrix(0.54190557,0,0,-0.54203126,1653.8797,185.92622)"><path
         d="m 72.797,276.637 6.10901,-57.489 6.11399,-38.394 6.10901,-26.742 6.109,-19.246 6.11399,-14.223 6.109,-10.75 6.113,-8.277 6.11,-6.47701 6.109,-5.14399 6.113,-4.141 6.11,-3.37499 6.109,-2.79702 6.113,-2.35199 6.11,-2.01101 6.113,-1.758 6.109,-1.57 6.11,-1.42999 6.113,-1.33602 6.109,-1.27298 6.11,-1.231 6.113,-1.21101 6.109,-1.19899 6.11,-1.195 6.113,-1.192 6.109,-1.179 6.114,-1.168 6.109,-1.14501 6.109,-1.10901 6.114,-1.05897 6.109,-0.98402 6.109,-0.879 6.114,-0.742 6.109,-0.55501 6.109,-0.34398 6.114,-0.152 6.109,-0.012 6.113,0.074 6.11,0.12098 6.109,0.149 6.113,0.15204 6.11,0.14899 6.109,0.13599 6.113,0.11 6.11,0.08198 6.113,0.04302 6.1101,0 6.1089,-0.04302 6.113,-0.09799 6.11,-0.152 6.1091,-0.20298"
         style="fill:none;stroke:#ff7f0e;stroke-width:2.82369304;stroke-linecap:square;stroke-linejoin:round;stroke-miterlimit:10;stroke-dasharray:none;stroke-opacity:1"
         id="path6401"
         inkscape:connector-curvature="0" /></g><g
       id="g6403"
       transform="matrix(0.54190557,0,0,-0.54203126,1653.8797,185.92622)"><path
         d="m 57.52,290.867 0,-250.44499"
         style="fill:none;stroke:#000000;stroke-width:2.25079393;stroke-linecap:square;stroke-linejoin:miter;stroke-miterlimit:10;stroke-dasharray:none;stroke-opacity:1"
         id="path6405"
         inkscape:connector-curvature="0" /></g><g
       id="g6407"
       transform="matrix(0.54190557,0,0,-0.54203126,1653.8797,185.92622)"><path
         d="m 57.18,290.867 336.097,0"
         style="fill:none;stroke:#000000;stroke-width:2.25079393;stroke-linecap:square;stroke-linejoin:miter;stroke-miterlimit:10;stroke-dasharray:none;stroke-opacity:1"
         id="path6409"
         inkscape:connector-curvature="0" /></g><g
       id="g6411"
       transform="matrix(0.54190557,0,0,-0.54203126,1647.6477,185.92622)"><path
         d="m 476.73,279.898 -3.296,0"
         style="fill:none;stroke:#000000;stroke-width:2.25079393;stroke-linecap:butt;stroke-linejoin:round;stroke-miterlimit:10;stroke-dasharray:none;stroke-opacity:1"
         id="path6413"
         inkscape:connector-curvature="0" /></g><g
       id="g6415"
       transform="matrix(0.54190557,0,0,-0.54203126,1647.6477,185.92622)"><path
         d="m 476.73,44.625 -3.296,0"
         style="fill:none;stroke:#000000;stroke-width:2.25079393;stroke-linecap:butt;stroke-linejoin:round;stroke-miterlimit:10;stroke-dasharray:none;stroke-opacity:1"
         id="path6417"
         inkscape:connector-curvature="0" /></g><g
       id="g6419"
       transform="matrix(0.54190557,0,0,-0.54203126,1647.6477,185.92622)"><path
         d="m 488.0551,279.492 6.113,-46.105 6.1089,-34.453 6.1141,-26.95 6.1089,-21.394 6.109,-17.074 6.114,-13.758 6.109,-11.117 6.109,-8.703 6.1141,-6.22699 6.1089,-3.96901 6.109,-2.601 6.114,-2.14101 6.109,-2.18 6.113,-2.27698 6.1101,-2.03101 6.1089,-1.44201 6.1131,-1.03499 6.1099,-0.98399 6.109,-1.11001 6.113,-1.23401 6.1101,-1.195 6.1089,-0.85999 6.113,-0.37901 6.1101,-0.11698 6.1129,-0.12101 6.11,-0.30799 6.1091,-0.60203 6.1129,-0.95697 6.11,-1.36302 6.109,-1.797 6.1131,-2.23798 6.11,-2.65301 6.1129,-2.887 6.109,-2.375 6.11,-0.75 6.1131,0.25 6.1089,0.688 6.1101,0.87498 6.1129,0.88301 6.109,0.777 6.11,0.602 6.1131,0.38599 6.1089,0.14101 6.114,-0.12099 6.1091,-0.38699 6.109,-0.60902 6.114,-0.73799 6.109,-0.72299 6.1089,-0.66801 6.1141,-0.75801"
         style="fill:none;stroke:#1f77b4;stroke-width:2.82337594;stroke-linecap:square;stroke-linejoin:round;stroke-miterlimit:10;stroke-dasharray:none;stroke-opacity:1"
         id="path6421"
         inkscape:connector-curvature="0" /></g><g
       id="g6423"
       transform="matrix(0.54190557,0,0,-0.54203126,1647.6477,185.92622)"><path
         d="m 488.0551,263.898 6.113,-40.695 6.1089,-26.957 6.1141,-18.875 6.1089,-14.062 6.109,-11.305 6.114,-9.906 6.109,-9.414 6.109,-9.496 6.1141,-9.864 6.1089,-10.199 6.109,-10.14101 6.114,-9.20699 6.109,-6.715 6.113,-2.90599 6.1101,-0.17901 6.1089,0.91399 6.1131,1.218 6.1099,1.14901 6.109,0.84 6.113,0.336 6.1101,-0.35201 6.1089,-1.19099 6.113,-2.14102 6.1101,-3.05899 6.1129,-3.69899 6.11,-3.73 6.1091,-3.27399 6.1129,-2.78503 6.11,-2.20298 6.109,-1.105 6.1131,-0.075 6.11,0.15301 6.1129,0.02299 6.109,-0.14401 6.11,-0.04699 6.1131,0.51099 6.1089,0.87201 6.1101,0.76099 6.1129,0.39902 6.109,-0.11002 6.11,-0.66801 6.1131,-1.15998 6.1089,-1.44901 6.114,-1.37101 6.1091,-0.77799 6.109,0.45801 6.114,1.26101 6.109,1.481 6.1089,1.51098 6.1141,1.46101"
         style="fill:none;stroke:#ff7f0e;stroke-width:2.82337594;stroke-linecap:square;stroke-linejoin:round;stroke-miterlimit:10;stroke-dasharray:none;stroke-opacity:1"
         id="path6425"
         inkscape:connector-curvature="0" /></g><g
       id="g6427"
       transform="matrix(0.54190557,0,0,-0.54203126,1647.6477,185.92622)"><path
         d="m 472.777,290.875 0,-250.445"
         style="fill:none;stroke:#000000;stroke-width:2.25079393;stroke-linecap:square;stroke-linejoin:miter;stroke-miterlimit:10;stroke-dasharray:none;stroke-opacity:1"
         id="path6429"
         inkscape:connector-curvature="0" /></g><g
       id="g6431"
       transform="matrix(0.54190557,0,0,-0.54203126,1647.6477,185.92622)"><path
         d="m 472.555,290.875 336.093,0"
         style="fill:none;stroke:#000000;stroke-width:2.25079393;stroke-linecap:square;stroke-linejoin:miter;stroke-miterlimit:10;stroke-dasharray:none;stroke-opacity:1"
         id="path6433"
         inkscape:connector-curvature="0" /></g><g
       id="g6555"
       transform="matrix(0.54190557,0,0,0.54203126,1653.8797,-391.94415)"><text
         transform="matrix(0,1,1,0,22.76077,826.4071)"
         style="font-variant:normal;font-weight:normal;font-size:28.21435928px;font-family:LMRoman10;-inkscape-font-specification:LMRoman10-Regular;writing-mode:lr-tb;fill:#000000;fill-opacity:1;fill-rule:nonzero;stroke:none"
         id="text6557"><tspan
           x="0 19.21398 34.816521 47.343697 58.403725 72.510902 87.408089 96.803467 107.77885 117.99245 139.15323"
           y="0"
           sodipodi:role="line"
           id="tspan6559">Energy (eV)</tspan></text>
</g><g
       id="g6561"
       transform="matrix(0.54190557,0,0,0.54203126,1647.6477,-391.94415)"><text
         transform="matrix(0,1,1,0,443.1916,826.4068)"
         style="font-variant:normal;font-weight:normal;font-size:28.21435928px;font-family:LMRoman10;-inkscape-font-specification:LMRoman10-Regular;writing-mode:lr-tb;fill:#000000;fill-opacity:1;fill-rule:nonzero;stroke:none"
         id="text6563"><tspan
           x="0 19.21398 34.816521 47.343697 58.403725 72.510902 87.408089 96.803467 107.77885 117.99245 139.15323"
           y="0"
           sodipodi:role="line"
           id="tspan6565">Energy (eV)</tspan></text>
</g><g
       id="g6591"
       transform="matrix(0.54190557,0,0,0.54203126,1653.8797,-391.94415)"><text
         transform="matrix(1,0,0,-1,21.90955,1003.144)"
         style="font-variant:normal;font-weight:normal;font-size:22.57148933px;font-family:LMRoman10;-inkscape-font-specification:LMRoman10-Regular;writing-mode:lr-tb;fill:#000000;fill-opacity:1;fill-rule:nonzero;stroke:none"
         id="text6593"><tspan
           x="0 11.285745 17.560619"
           y="0"
           sodipodi:role="line"
           id="tspan6595">3.7</tspan></text>
</g><g
       id="g6597"
       transform="matrix(0.54190557,0,0,0.54203126,1653.8797,-391.94415)"><text
         transform="matrix(1,0,0,-1,22.24691,801.85)"
         style="font-variant:normal;font-weight:normal;font-size:22.57148933px;font-family:LMRoman10;-inkscape-font-specification:LMRoman10-Regular;writing-mode:lr-tb;fill:#000000;fill-opacity:1;fill-rule:nonzero;stroke:none"
         id="text6599"><tspan
           x="0 11.285745 17.560619"
           y="0"
           sodipodi:role="line"
           id="tspan6601">3.2</tspan></text>
</g><g
       id="g6627"
       transform="matrix(0.54190557,0,0,0.54203126,1647.6477,-391.94415)"><text
         transform="matrix(1,0,0,-1,437.566,1014.079)"
         style="font-variant:normal;font-weight:normal;font-size:22.57148933px;font-family:LMRoman10;-inkscape-font-specification:LMRoman10-Regular;writing-mode:lr-tb;fill:#000000;fill-opacity:1;fill-rule:nonzero;stroke:none"
         id="text6629"><tspan
           x="0 11.285745 17.560619"
           y="0"
           sodipodi:role="line"
           id="tspan6631">3.5</tspan></text>
</g><g
       id="g6633"
       transform="matrix(0.54190557,0,0,0.54203126,1647.6477,-391.94415)"><text
         transform="matrix(1,0,0,-1,437.4614,778.8045)"
         style="font-variant:normal;font-weight:normal;font-size:22.57148933px;font-family:LMRoman10;-inkscape-font-specification:LMRoman10-Regular;writing-mode:lr-tb;fill:#000000;fill-opacity:1;fill-rule:nonzero;stroke:none"
         id="text6635"><tspan
           x="0 11.285745 17.560619"
           y="0"
           sodipodi:role="line"
           id="tspan6637">2.8</tspan></text>
</g><g
       id="g6687"
       transform="matrix(0.54190557,0,0,-0.54203126,1696.7334,257.00069)"><path
         d="m 261.25,247.504 -16.93,0"
         style="fill:none;stroke:#ff7f0e;stroke-width:2.82143593;stroke-linecap:butt;stroke-linejoin:miter;stroke-miterlimit:4;stroke-dasharray:none;stroke-opacity:1"
         id="path6689"
         inkscape:connector-curvature="0" /></g><g
       id="g6691"
       transform="matrix(0.54190557,0,0,-0.54203126,1696.7334,257.00069)"><path
         d="m 261.25,272.535 -16.93,0"
         style="fill:none;stroke:#1f77b4;stroke-width:2.82143593;stroke-linecap:butt;stroke-linejoin:miter;stroke-miterlimit:4;stroke-dasharray:none;stroke-opacity:1"
         id="path6693"
         inkscape:connector-curvature="0" /></g><g
       id="g6695"
       transform="matrix(0.54190557,0,0,0.54203126,1696.7334,-320.86968)"><text
         transform="matrix(1,0,0,-1,264.8416,814.1123)"
         style="font-variant:normal;font-weight:normal;font-size:20.25715065px;font-family:LMRoman10;-inkscape-font-specification:LMRoman10-Regular;writing-mode:lr-tb;fill:#000000;fill-opacity:1;fill-rule:nonzero;stroke:none"
         id="text6697"><tspan
           x="0"
           y="0"
           sodipodi:role="line"
           id="tspan6699">NS</tspan></text>
</g><g
       id="g6701"
       transform="matrix(0.54190557,0,0,0.54203126,1696.7334,-320.86968)"><text
         transform="matrix(1,0,0,-1,264.8416,789.0804)"
         style="font-variant:normal;font-weight:normal;font-size:20.25715065px;font-family:LMRoman10;-inkscape-font-specification:LMRoman10-Regular;writing-mode:lr-tb;fill:#000000;fill-opacity:1;fill-rule:nonzero;stroke:none"
         id="text6703"><tspan
           x="0"
           y="0"
           sodipodi:role="line"
           id="tspan6705">aN</tspan></text>
</g><g
       id="g6757"
       transform="matrix(0.54190557,0,0,-0.54203126,1686.3206,255.95548)"><path
         d="m 676.773,245.844 -16.925,0"
         style="fill:none;stroke:#ff7f0e;stroke-width:2.82143593;stroke-linecap:butt;stroke-linejoin:miter;stroke-miterlimit:4;stroke-dasharray:none;stroke-opacity:1"
         id="path6759"
         inkscape:connector-curvature="0" /></g><g
       id="g6761"
       transform="matrix(0.54190557,0,0,-0.54203126,1686.3206,255.95548)"><path
         d="m 676.773,270.875 -16.925,0"
         style="fill:none;stroke:#1f77b4;stroke-width:2.82143593;stroke-linecap:butt;stroke-linejoin:miter;stroke-miterlimit:4;stroke-dasharray:none;stroke-opacity:1"
         id="path6763"
         inkscape:connector-curvature="0" /></g><g
       id="g6765"
       transform="matrix(0.54190557,0,0,0.54203126,1686.3206,-321.91489)"><text
         transform="matrix(1,0,0,-1,680.3676,815.7744)"
         style="font-variant:normal;font-weight:normal;font-size:20.25715065px;font-family:LMRoman10;-inkscape-font-specification:LMRoman10-Regular;writing-mode:lr-tb;fill:#000000;fill-opacity:1;fill-rule:nonzero;stroke:none"
         id="text6767"><tspan
           x="0"
           y="0"
           sodipodi:role="line"
           id="tspan6769">NS</tspan></text>
</g><g
       id="g6771"
       transform="matrix(0.54190557,0,0,0.54203126,1686.3206,-321.91489)"><text
         transform="matrix(1,0,0,-1,680.3676,790.7425)"
         style="font-variant:normal;font-weight:normal;font-size:20.25715065px;font-family:LMRoman10;-inkscape-font-specification:LMRoman10-Regular;writing-mode:lr-tb;fill:#000000;fill-opacity:1;fill-rule:nonzero;stroke:none"
         id="text6773"><tspan
           x="0"
           y="0"
           sodipodi:role="line"
           id="tspan6775">aN</tspan></text>
</g><g
       id="g6835"
       transform="matrix(0.54190557,0,0,-0.54203126,1653.8797,185.92622)"><path
         d="m 57.52,51.707 336.093,0"
         style="fill:none;stroke:#000000;stroke-width:2.82369304;stroke-linecap:square;stroke-linejoin:miter;stroke-miterlimit:10;stroke-dasharray:8.47108, 8.47108;stroke-dashoffset:0;stroke-opacity:1"
         id="path6837"
         inkscape:connector-curvature="0" /></g><g
       id="g6839"
       transform="matrix(0.54190557,0,0,-0.54203126,1647.6477,185.92622)"><path
         d="m 472.777,53.97299 336.0981,0"
         style="fill:none;stroke:#000000;stroke-width:2.82369304;stroke-linecap:square;stroke-linejoin:miter;stroke-miterlimit:10;stroke-dasharray:8.47108, 8.47108;stroke-dashoffset:0;stroke-opacity:1"
         id="path6841"
         inkscape:connector-curvature="0" /></g><g
       id="g6851"
       transform="matrix(0.54190557,0,0,0.54203126,1653.8797,-391.94415)"><text
         transform="matrix(1,0,0,-1,62.65999,999.7558)"
         style="font-variant:normal;font-weight:normal;font-size:14.10717964px;font-family:LMRoman10;-inkscape-font-specification:LMRoman10-Regular;writing-mode:lr-tb;fill:#000000;fill-opacity:1;fill-rule:nonzero;stroke:none"
         id="text6853"><tspan
           x="0 7.8435922 11.765388 19.60898 26.662571 30.584366 36.847954 41.545647 54.48193 65.062317"
           y="0"
           sodipodi:role="line"
           id="tspan6855">Single MNP</tspan></text>
</g><g
       id="g6857"
       transform="matrix(0.54190557,0,0,0.54203126,1653.8797,-391.94415)"><text
         transform="matrix(1,0,0,-1,62.65999,982.1218)"
         style="font-variant:normal;font-weight:normal;font-size:14.10717964px;font-family:LMRoman10;-inkscape-font-specification:LMRoman10-Regular;writing-mode:lr-tb;fill:#000000;fill-opacity:1;fill-rule:nonzero;stroke:none"
         id="text6859"><tspan
           x="0 8.0410929 13.571107 19.834696 27.283287 35.084557 41.348145 49.191738 55.413002"
           y="0"
           sodipodi:role="line"
           id="tspan6861">Frequency</tspan></text>
</g><g
       id="g6863"
       transform="matrix(0.54190557,0,0,0.54203126,1647.6477,-391.94415)"><text
         transform="matrix(1,0,0,-1,476.5238,999.7558)"
         style="font-variant:normal;font-weight:normal;font-size:14.10717964px;font-family:LMRoman10;-inkscape-font-specification:LMRoman10-Regular;writing-mode:lr-tb;fill:#000000;fill-opacity:1;fill-rule:nonzero;stroke:none"
         id="text6865"><tspan
           x="0 7.8435922 11.765388 19.60898 26.662571 30.584366 36.847954 41.545647 54.48193 65.062317"
           y="0"
           sodipodi:role="line"
           id="tspan6867">Single MNP</tspan></text>
</g><g
       id="g6869"
       transform="matrix(0.54190557,0,0,0.54203126,1647.6477,-391.94415)"><text
         transform="matrix(1,0,0,-1,476.5238,982.1218)"
         style="font-variant:normal;font-weight:normal;font-size:14.10717964px;font-family:LMRoman10;-inkscape-font-specification:LMRoman10-Regular;writing-mode:lr-tb;fill:#000000;fill-opacity:1;fill-rule:nonzero;stroke:none"
         id="text6871"><tspan
           x="0 8.0410929 13.571107 19.834696 27.283287 35.084557 41.348145 49.191738 55.413002"
           y="0"
           sodipodi:role="line"
           id="tspan6873">Frequency</tspan></text>
</g><g
       id="g7159"
       transform="matrix(0.54190557,0,0,-0.54203126,1653.8797,185.92622)"><path
         d="m 72.86701,285.66 0,3.293"
         style="fill:none;stroke:#000000;stroke-width:2.25079393;stroke-linecap:butt;stroke-linejoin:round;stroke-miterlimit:10;stroke-dasharray:none;stroke-opacity:1"
         id="path7161"
         inkscape:connector-curvature="0" /></g><g
       id="g7163"
       transform="matrix(0.54190557,0,0,-0.54203126,1653.8797,185.92622)"><path
         d="m 378.406,285.66 0,3.293"
         style="fill:none;stroke:#000000;stroke-width:2.25079393;stroke-linecap:butt;stroke-linejoin:round;stroke-miterlimit:10;stroke-dasharray:none;stroke-opacity:1"
         id="path7165"
         inkscape:connector-curvature="0" /></g><g
       id="g7167"
       transform="matrix(0.54190557,0,0,-0.54203126,1647.6477,185.92622)"><path
         d="m 487.852,285.543 0,3.293"
         style="fill:none;stroke:#000000;stroke-width:2.25079393;stroke-linecap:butt;stroke-linejoin:round;stroke-miterlimit:10;stroke-dasharray:none;stroke-opacity:1"
         id="path7169"
         inkscape:connector-curvature="0" /></g><g
       id="g7171"
       transform="matrix(0.54190557,0,0,-0.54203126,1647.6477,185.92622)"><path
         d="m 793.3911,285.543 0,3.293"
         style="fill:none;stroke:#000000;stroke-width:2.25079393;stroke-linecap:butt;stroke-linejoin:round;stroke-miterlimit:10;stroke-dasharray:none;stroke-opacity:1"
         id="path7173"
         inkscape:connector-curvature="0" /></g><g
       id="g7175"
       transform="matrix(0.54190557,0,0,0.54203126,1650.3186,-391.94415)"><text
         transform="matrix(1,0,0,-1,67.23372,754.1945)"
         style="font-variant:normal;font-weight:normal;font-size:22.57148933px;font-family:LMRoman10;-inkscape-font-specification:LMRoman10-Regular;writing-mode:lr-tb;fill:#000000;fill-opacity:1;fill-rule:nonzero;stroke:none"
         id="text7177"><tspan
           x="0"
           y="0"
           id="tspan7179">30</tspan></text>
</g><g
       id="g7181"
       transform="matrix(0.54190557,0,0,0.54203126,1650.3186,-391.94415)"><text
         transform="matrix(1,0,0,-1,366.7744,754.1945)"
         style="font-variant:normal;font-weight:normal;font-size:22.57148933px;font-family:LMRoman10;-inkscape-font-specification:LMRoman10-Regular;writing-mode:lr-tb;fill:#000000;fill-opacity:1;fill-rule:nonzero;stroke:none"
         id="text7183"><tspan
           x="0"
           y="0"
           sodipodi:role="line"
           id="tspan7185">180</tspan></text>
</g><g
       id="g7187"
       transform="matrix(0.54190557,0,0,0.54203126,1644.0866,-391.94415)"><text
         transform="matrix(1,0,0,-1,482.2171,754.3091)"
         style="font-variant:normal;font-weight:normal;font-size:22.57148933px;font-family:LMRoman10;-inkscape-font-specification:LMRoman10-Regular;writing-mode:lr-tb;fill:#000000;fill-opacity:1;fill-rule:nonzero;stroke:none"
         id="text7189"><tspan
           x="0"
           y="0"
           id="tspan7191">60</tspan></text>
</g><g
       id="g7193"
       transform="matrix(0.54190557,0,0,0.54203126,1644.9769,-391.94415)"><text
         transform="matrix(1,0,0,-1,781.7578,754.3091)"
         style="font-variant:normal;font-weight:normal;font-size:22.57148933px;font-family:LMRoman10;-inkscape-font-specification:LMRoman10-Regular;writing-mode:lr-tb;fill:#000000;fill-opacity:1;fill-rule:nonzero;stroke:none"
         id="text7195"><tspan
           x="0"
           y="0"
           sodipodi:role="line"
           id="tspan7197">360</tspan></text>
</g><g
       ns0:preamble="/home/nick/tt_preamble.ini"
       ns0:text="$a = 15$ nm"
       word-spacing="normal"
       letter-spacing="normal"
       font-size-adjust="none"
       font-stretch="normal"
       font-weight="normal"
       font-variant="normal"
       font-style="normal"
       stroke-miterlimit="10.433"
       xml:space="preserve"
       transform="matrix(1.7212803,0,0,1.7212803,1392.2652,-997.84886)"
       id="g9032"
       style="font-style:normal;font-variant:normal;font-weight:normal;font-stretch:normal;letter-spacing:normal;word-spacing:normal;text-anchor:start;fill:none;fill-opacity:1;fill-rule:evenodd;stroke:#000000;stroke-linecap:butt;stroke-linejoin:miter;stroke-miterlimit:10.43299961;stroke-dasharray:none;stroke-dashoffset:0;stroke-opacity:1"><path
         id="path9034"
         d="m 227.15,661 -0.02,0.03 -0.02,0.04 -0.01,0.03 -0.02,0.03 -0.02,0.03 -0.02,0.03 -0.03,0.03 -0.02,0.03 -0.02,0.03 -0.02,0.03 -0.03,0.03 -0.02,0.02 -0.03,0.03 -0.02,0.02 -0.03,0.02 -0.03,0.03 -0.03,0.02 -0.03,0.02 -0.03,0.01 -0.03,0.02 -0.03,0.02 -0.03,0.01 -0.04,0.02 -0.03,0.01 -0.04,0.01 -0.03,0.01 -0.04,0.01 -0.04,0 -0.04,0.01 -0.04,0 -0.04,0.01 -0.04,0 0.01,-0.22 c 0.65,0 0.79,-0.82 0.79,-0.88 0,-0.06 -0.02,-0.12 -0.03,-0.17 l -0.5,-1.95 c -0.05,-0.18 -0.05,-0.2 -0.2,-0.37 -0.44,-0.55 -0.84,-0.71 -1.12,-0.71 -0.5,0 -0.64,0.55 -0.64,0.94 0,0.5 0.32,1.72 0.55,2.18 0.31,0.59 0.75,0.96 1.15,0.96 l -0.01,0.22 c -1.16,0 -2.4,-1.47 -2.4,-2.92 0,-0.94 0.55,-1.6 1.33,-1.6 0.19,0 0.69,0.04 1.29,0.75 0.08,-0.42 0.43,-0.75 0.91,-0.75 0.35,0 0.58,0.23 0.74,0.55 0.16,0.36 0.29,0.97 0.29,0.99 0,0.1 -0.09,0.1 -0.12,0.1 -0.09,0 -0.11,-0.04 -0.14,-0.18 -0.17,-0.65 -0.34,-1.24 -0.75,-1.24 -0.27,0 -0.3,0.26 -0.3,0.46 0,0.22 0.02,0.3 0.13,0.74 0.11,0.42 0.13,0.52 0.22,0.89 l 0.36,1.4 c 0.07,0.28 0.07,0.3 0.07,0.34 0,0.17 -0.12,0.27 -0.29,0.27 -0.24,0 -0.39,-0.22 -0.42,-0.44 z"
         inkscape:connector-curvature="0"
         style="fill:#000000;stroke-width:0" /><path
         id="path9036"
         d="m 238.31,660.49 0.03,0 0.03,0 0.03,0 0.01,0 0.02,0 0.01,0 0.01,0.01 0.02,0 0.01,0 0.02,0 0.01,0.01 0.01,0 0.01,0 0.02,0.01 0.01,0.01 0.01,0 0.01,0.01 0.01,0.01 0.01,0 0.01,0.01 0.01,0.01 0,0.01 0,0.01 0.01,0 0,0.01 0,0 0.01,0.01 0,0.01 0,0 0,0.01 0,0.01 0,0.01 0.01,0 0,0.01 0,0.01 0,0.01 0,0.01 c 0,0.2 -0.19,0.2 -0.33,0.2 l -5.97,0 c -0.14,0 -0.33,0 -0.33,-0.2 0,-0.2 0.19,-0.2 0.34,-0.2 z"
         inkscape:connector-curvature="0"
         style="fill:#000000;stroke-width:0" /><path
         id="path9038"
         d="m 238.32,658.56 0.03,0 0.02,0 0.03,0 0.02,0 0.01,0 0.01,0 0.02,0 0.01,0.01 0.01,0 0.02,0 0.01,0 0.01,0.01 0.02,0 0.01,0.01 0.01,0 0.01,0.01 0.01,0.01 0.01,0 0.01,0.01 0.01,0.01 0,0.01 0.01,0 0,0.01 0,0 0.01,0.01 0,0 0,0.01 0.01,0.01 0,0 0,0.01 0,0.01 0,0.01 0,0 0.01,0.01 0,0.01 0,0.01 0,0.01 0,0.01 c 0,0.2 -0.19,0.2 -0.34,0.2 l -5.95,0 c -0.15,0 -0.34,0 -0.34,-0.2 0,-0.2 0.19,-0.2 0.33,-0.2 z"
         inkscape:connector-curvature="0"
         style="fill:#000000;stroke-width:0" /><path
         id="path9040"
         d="m 244.92,663.61 0,0.01 0,0.01 0,0.01 0,0.01 0,0.01 0,0.01 0,0.01 0,0.01 0,0.01 0,0.01 0,0 0,0.01 0,0.01 -0.01,0.01 0,0 0,0.01 0,0.01 0,0 0,0.01 0,0.02 -0.01,0.01 0,0.01 0,0 -0.01,0.01 0,0.01 -0.01,0 0,0.01 -0.01,0 -0.01,0.01 -0.01,0 0,0 -0.01,0.01 0,0 -0.01,0 0,0 -0.01,0 -0.01,0 0,0 -0.01,0 -0.01,0 0,0.01 -0.01,0 -0.01,0 -0.01,0 -0.01,0 0,0 -0.01,0 -0.01,0 -0.01,0 -0.01,0 -0.01,0 -0.01,0 c -0.62,-0.64 -1.5,-0.64 -1.82,-0.64 l 0,-0.31 c 0.2,0 0.79,0 1.31,0.26 l 0,-5.16 c 0,-0.36 -0.03,-0.48 -0.93,-0.48 l -0.32,0 0,-0.31 c 0.35,0.03 1.22,0.03 1.62,0.03 0.4,0 1.26,0 1.61,-0.03 l 0,0.31 -0.32,0 c -0.89,0 -0.92,0.11 -0.92,0.48 z"
         inkscape:connector-curvature="0"
         style="fill:#000000;stroke-width:0" /><path
         id="path9042"
         d="m 251.44,659.23 0,0.12 -0.01,0.1 -0.01,0.11 -0.02,0.11 -0.02,0.1 -0.02,0.11 -0.03,0.1 -0.03,0.1 -0.04,0.09 -0.04,0.1 -0.05,0.09 -0.04,0.09 -0.06,0.08 -0.05,0.09 -0.06,0.07 -0.06,0.08 -0.07,0.07 -0.07,0.07 -0.07,0.07 -0.07,0.06 -0.08,0.06 -0.08,0.05 -0.08,0.05 -0.08,0.04 -0.09,0.04 -0.09,0.04 -0.09,0.03 -0.09,0.02 -0.1,0.02 -0.09,0.02 -0.1,0 -0.1,0.01 c -0.48,0 -0.91,-0.16 -1.27,-0.51 l 0,1.94 c 0.2,-0.06 0.53,-0.13 0.85,-0.13 1.22,0 1.92,0.91 1.92,1.04 0,0.06 -0.03,0.11 -0.1,0.11 -0.01,0 -0.03,0 -0.08,-0.03 -0.2,-0.09 -0.69,-0.29 -1.35,-0.29 -0.4,0 -0.86,0.07 -1.33,0.28 -0.08,0.03 -0.1,0.03 -0.12,0.03 -0.1,0 -0.1,-0.08 -0.1,-0.24 l 0,-2.95 c 0,-0.18 0,-0.26 0.14,-0.26 0.07,0 0.09,0.03 0.13,0.09 0.11,0.16 0.48,0.7 1.29,0.7 0.52,0 0.76,-0.46 0.85,-0.64 0.15,-0.37 0.17,-0.76 0.17,-1.26 0,-0.34 0,-0.94 -0.23,-1.36 -0.24,-0.39 -0.61,-0.65 -1.07,-0.65 -0.73,0 -1.3,0.53 -1.47,1.12 0.03,-0.01 0.06,-0.02 0.17,-0.02 0.33,0 0.5,0.25 0.5,0.49 0,0.23 -0.17,0.48 -0.5,0.48 -0.14,0 -0.48,-0.07 -0.48,-0.52 0,-0.86 0.68,-1.83 1.8,-1.83 1.16,0 2.17,0.96 2.17,2.22 z"
         inkscape:connector-curvature="0"
         style="fill:#000000;stroke-width:0" /><path
         id="path9044"
         d="m 256.36,660.66 0,-2.67 c 0,-0.45 -0.11,-0.45 -0.78,-0.45 l 0,-0.31 c 0.35,0.01 0.86,0.03 1.13,0.03 0.26,0 0.77,-0.02 1.11,-0.03 l 0,0.31 c -0.67,0 -0.77,0 -0.77,0.45 l 0,1.83 c 0,1.04 0.7,1.6 1.34,1.6 0.63,0 0.74,-0.54 0.74,-1.11 l 0,-2.32 c 0,-0.45 -0.11,-0.45 -0.78,-0.45 l 0,-0.31 c 0.35,0.01 0.86,0.03 1.13,0.03 0.26,0 0.77,-0.02 1.11,-0.03 l 0,0.31 c -0.52,0 -0.76,0 -0.77,0.3 l 0,1.9 c 0,0.86 0,1.17 -0.31,1.53 -0.14,0.17 -0.47,0.37 -1.05,0.37 -0.73,0 -1.19,-0.43 -1.47,-1.05 l 0,1.05 -1.41,-0.11 0,-0.31 c 0.7,0 0.78,-0.07 0.78,-0.56 z"
         inkscape:connector-curvature="0"
         style="fill:#000000;stroke-width:0" /><path
         id="path9046"
         d="m 261.89,660.66 0,-2.67 c 0,-0.45 -0.11,-0.45 -0.77,-0.45 l 0,-0.31 c 0.34,0.01 0.85,0.03 1.12,0.03 0.26,0 0.78,-0.02 1.12,-0.03 l 0,0.31 c -0.67,0 -0.78,0 -0.78,0.45 l 0,1.83 c 0,1.04 0.71,1.6 1.35,1.6 0.62,0 0.73,-0.54 0.73,-1.11 l 0,-2.32 c 0,-0.45 -0.11,-0.45 -0.77,-0.45 l 0,-0.31 c 0.34,0.01 0.85,0.03 1.12,0.03 0.26,0 0.78,-0.02 1.12,-0.03 l 0,0.31 c -0.67,0 -0.78,0 -0.78,0.45 l 0,1.83 c 0,1.04 0.71,1.6 1.35,1.6 0.62,0 0.73,-0.54 0.73,-1.11 l 0,-2.32 c 0,-0.45 -0.11,-0.45 -0.77,-0.45 l 0,-0.31 c 0.34,0.01 0.85,0.03 1.12,0.03 0.26,0 0.78,-0.02 1.12,-0.03 l 0,0.31 c -0.52,0 -0.77,0 -0.78,0.3 l 0,1.9 c 0,0.86 0,1.17 -0.31,1.53 -0.14,0.17 -0.47,0.37 -1.04,0.37 -0.84,0 -1.28,-0.6 -1.45,-0.98 -0.14,0.87 -0.88,0.98 -1.33,0.98 -0.72,0 -1.19,-0.43 -1.47,-1.05 l 0,1.05 -1.4,-0.11 0,-0.31 c 0.69,0 0.77,-0.07 0.77,-0.56 z"
         inkscape:connector-curvature="0"
         style="fill:#000000;stroke-width:0" /></g><g
       id="g9318"
       transform="matrix(1.7212803,0,0,1.7212803,1607.9682,-998.8941)"
       xml:space="preserve"
       stroke-miterlimit="10.433"
       font-style="normal"
       font-variant="normal"
       font-weight="normal"
       font-stretch="normal"
       font-size-adjust="none"
       letter-spacing="normal"
       word-spacing="normal"
       ns0:text="$a = 30$ nm"
       ns0:preamble="/home/nick/tt_preamble.ini"
       style="font-style:normal;font-variant:normal;font-weight:normal;font-stretch:normal;letter-spacing:normal;word-spacing:normal;text-anchor:start;fill:none;fill-opacity:1;fill-rule:evenodd;stroke:#000000;stroke-linecap:butt;stroke-linejoin:miter;stroke-miterlimit:10.43299961;stroke-dasharray:none;stroke-dashoffset:0;stroke-opacity:1"><path
         d="m 227.15,661 -0.02,0.03 -0.02,0.04 -0.01,0.03 -0.02,0.03 -0.02,0.03 -0.02,0.03 -0.03,0.03 -0.02,0.03 -0.02,0.03 -0.02,0.03 -0.03,0.03 -0.02,0.02 -0.03,0.03 -0.02,0.02 -0.03,0.02 -0.03,0.03 -0.03,0.02 -0.03,0.02 -0.03,0.01 -0.03,0.02 -0.03,0.02 -0.03,0.01 -0.04,0.02 -0.03,0.01 -0.04,0.01 -0.03,0.01 -0.04,0.01 -0.04,0 -0.04,0.01 -0.04,0 -0.04,0.01 -0.04,0 0.01,-0.22 c 0.65,0 0.79,-0.82 0.79,-0.88 0,-0.06 -0.02,-0.12 -0.03,-0.17 l -0.5,-1.95 c -0.05,-0.18 -0.05,-0.2 -0.2,-0.37 -0.44,-0.55 -0.84,-0.71 -1.12,-0.71 -0.5,0 -0.64,0.55 -0.64,0.94 0,0.5 0.32,1.72 0.55,2.18 0.31,0.59 0.75,0.96 1.15,0.96 l -0.01,0.22 c -1.16,0 -2.4,-1.47 -2.4,-2.92 0,-0.94 0.55,-1.6 1.33,-1.6 0.19,0 0.69,0.04 1.29,0.75 0.08,-0.42 0.43,-0.75 0.91,-0.75 0.35,0 0.58,0.23 0.74,0.55 0.16,0.36 0.29,0.97 0.29,0.99 0,0.1 -0.09,0.1 -0.12,0.1 -0.09,0 -0.11,-0.04 -0.14,-0.18 -0.17,-0.65 -0.34,-1.24 -0.75,-1.24 -0.27,0 -0.3,0.26 -0.3,0.46 0,0.22 0.02,0.3 0.13,0.74 0.11,0.42 0.13,0.52 0.22,0.89 l 0.36,1.4 c 0.07,0.28 0.07,0.3 0.07,0.34 0,0.17 -0.12,0.27 -0.29,0.27 -0.24,0 -0.39,-0.22 -0.42,-0.44 z"
         id="path9320"
         inkscape:connector-curvature="0"
         style="fill:#000000;stroke-width:0" /><path
         d="m 238.31,660.49 0.03,0 0.03,0 0.03,0 0.01,0 0.02,0 0.01,0 0.01,0.01 0.02,0 0.01,0 0.02,0 0.01,0.01 0.01,0 0.01,0 0.02,0.01 0.01,0.01 0.01,0 0.01,0.01 0.01,0.01 0.01,0 0.01,0.01 0.01,0.01 0,0.01 0,0.01 0.01,0 0,0.01 0,0 0.01,0.01 0,0.01 0,0 0,0.01 0,0.01 0,0.01 0.01,0 0,0.01 0,0.01 0,0.01 0,0.01 c 0,0.2 -0.19,0.2 -0.33,0.2 l -5.97,0 c -0.14,0 -0.33,0 -0.33,-0.2 0,-0.2 0.19,-0.2 0.34,-0.2 z"
         id="path9322"
         inkscape:connector-curvature="0"
         style="fill:#000000;stroke-width:0" /><path
         d="m 238.32,658.56 0.03,0 0.02,0 0.03,0 0.02,0 0.01,0 0.01,0 0.02,0 0.01,0.01 0.01,0 0.02,0 0.01,0 0.01,0.01 0.02,0 0.01,0.01 0.01,0 0.01,0.01 0.01,0.01 0.01,0 0.01,0.01 0.01,0.01 0,0.01 0.01,0 0,0.01 0,0 0.01,0.01 0,0 0,0.01 0.01,0.01 0,0 0,0.01 0,0.01 0,0.01 0,0 0.01,0.01 0,0.01 0,0.01 0,0.01 0,0.01 c 0,0.2 -0.19,0.2 -0.34,0.2 l -5.95,0 c -0.15,0 -0.34,0 -0.34,-0.2 0,-0.2 0.19,-0.2 0.33,-0.2 z"
         id="path9324"
         inkscape:connector-curvature="0"
         style="fill:#000000;stroke-width:0" /><path
         d="m 244.88,660.74 0.07,0.03 0.08,0.02 0.07,0.04 0.07,0.03 0.07,0.04 0.07,0.03 0.07,0.04 0.06,0.05 0.06,0.04 0.06,0.05 0.06,0.04 0.06,0.05 0.05,0.06 0.05,0.05 0.05,0.06 0.05,0.05 0.05,0.06 0.04,0.06 0.04,0.06 0.04,0.06 0.03,0.07 0.03,0.06 0.03,0.07 0.03,0.06 0.02,0.07 0.02,0.07 0.02,0.07 0.01,0.07 0.02,0.07 0,0.08 0.01,0.07 0,0.07 c 0,0.82 -0.87,1.38 -1.83,1.38 -1.01,0 -1.76,-0.6 -1.76,-1.36 0,-0.33 0.21,-0.52 0.5,-0.52 0.31,0 0.51,0.22 0.51,0.51 0,0.5 -0.47,0.5 -0.62,0.5 0.31,0.49 0.97,0.62 1.33,0.62 0.41,0 0.95,-0.22 0.95,-1.12 0,-0.12 -0.01,-0.7 -0.27,-1.13 -0.3,-0.48 -0.64,-0.51 -0.89,-0.52 -0.08,-0.01 -0.32,-0.03 -0.39,-0.03 -0.08,-0.01 -0.15,-0.02 -0.15,-0.12 0,-0.11 0.07,-0.11 0.24,-0.11 l 0.44,0 c 0.82,0 1.18,-0.68 1.18,-1.65 0,-1.36 -0.68,-1.65 -1.12,-1.65 -0.43,0 -1.18,0.17 -1.53,0.76 0.35,-0.05 0.66,0.17 0.66,0.55 0,0.36 -0.27,0.56 -0.56,0.56 -0.23,0 -0.55,-0.14 -0.55,-0.58 0,-0.91 0.92,-1.57 2.01,-1.57 1.21,0 2.12,0.91 2.12,1.93 0,0.81 -0.63,1.59 -1.66,1.8 z"
         id="path9326"
         inkscape:connector-curvature="0"
         style="fill:#000000;stroke-width:0" /><path
         d="m 251.55,660.42 0,0.15 0,0.15 -0.01,0.15 0,0.15 -0.01,0.15 -0.01,0.14 -0.02,0.15 -0.02,0.15 -0.02,0.15 -0.03,0.14 -0.03,0.15 -0.04,0.14 -0.04,0.14 -0.05,0.14 -0.06,0.14 -0.03,0.07 -0.03,0.07 c -0.46,0.96 -1.27,1.12 -1.69,1.12 -0.6,0 -1.33,-0.26 -1.73,-1.19 -0.32,-0.69 -0.37,-1.46 -0.37,-2.26 0,-0.75 0.04,-1.64 0.44,-2.4 0.43,-0.81 1.16,-1.01 1.65,-1.01 l 0,0.22 c -0.39,0 -0.98,0.25 -1.16,1.21 -0.11,0.6 -0.11,1.51 -0.11,2.1 0,0.64 0,1.3 0.08,1.83 0.19,1.19 0.94,1.28 1.19,1.28 0.33,0 0.98,-0.18 1.17,-1.17 0.1,-0.56 0.1,-1.31 0.1,-1.94 0,-0.75 0,-1.43 -0.11,-2.06 -0.15,-0.95 -0.71,-1.25 -1.16,-1.25 l 0,0 0,-0.22 c 0.54,0 1.29,0.21 1.73,1.16 0.32,0.69 0.37,1.46 0.37,2.25 z"
         id="path9328"
         inkscape:connector-curvature="0"
         style="fill:#000000;stroke-width:0" /><path
         d="m 256.36,660.66 0,-2.67 c 0,-0.45 -0.11,-0.45 -0.78,-0.45 l 0,-0.31 c 0.35,0.01 0.86,0.03 1.13,0.03 0.26,0 0.77,-0.02 1.11,-0.03 l 0,0.31 c -0.67,0 -0.77,0 -0.77,0.45 l 0,1.83 c 0,1.04 0.7,1.6 1.34,1.6 0.63,0 0.74,-0.54 0.74,-1.11 l 0,-2.32 c 0,-0.45 -0.11,-0.45 -0.78,-0.45 l 0,-0.31 c 0.35,0.01 0.86,0.03 1.13,0.03 0.26,0 0.77,-0.02 1.11,-0.03 l 0,0.31 c -0.52,0 -0.76,0 -0.77,0.3 l 0,1.9 c 0,0.86 0,1.17 -0.31,1.53 -0.14,0.17 -0.47,0.37 -1.05,0.37 -0.73,0 -1.19,-0.43 -1.47,-1.05 l 0,1.05 -1.41,-0.11 0,-0.31 c 0.7,0 0.78,-0.07 0.78,-0.56 z"
         id="path9330"
         inkscape:connector-curvature="0"
         style="fill:#000000;stroke-width:0" /><path
         d="m 261.89,660.66 0,-2.67 c 0,-0.45 -0.11,-0.45 -0.77,-0.45 l 0,-0.31 c 0.34,0.01 0.85,0.03 1.12,0.03 0.26,0 0.78,-0.02 1.12,-0.03 l 0,0.31 c -0.67,0 -0.78,0 -0.78,0.45 l 0,1.83 c 0,1.04 0.71,1.6 1.35,1.6 0.62,0 0.73,-0.54 0.73,-1.11 l 0,-2.32 c 0,-0.45 -0.11,-0.45 -0.77,-0.45 l 0,-0.31 c 0.34,0.01 0.85,0.03 1.12,0.03 0.26,0 0.78,-0.02 1.12,-0.03 l 0,0.31 c -0.67,0 -0.78,0 -0.78,0.45 l 0,1.83 c 0,1.04 0.71,1.6 1.35,1.6 0.62,0 0.73,-0.54 0.73,-1.11 l 0,-2.32 c 0,-0.45 -0.11,-0.45 -0.77,-0.45 l 0,-0.31 c 0.34,0.01 0.85,0.03 1.12,0.03 0.26,0 0.78,-0.02 1.12,-0.03 l 0,0.31 c -0.52,0 -0.77,0 -0.78,0.3 l 0,1.9 c 0,0.86 0,1.17 -0.31,1.53 -0.14,0.17 -0.47,0.37 -1.04,0.37 -0.84,0 -1.28,-0.6 -1.45,-0.98 -0.14,0.87 -0.88,0.98 -1.33,0.98 -0.72,0 -1.19,-0.43 -1.47,-1.05 l 0,1.05 -1.4,-0.11 0,-0.31 c 0.69,0 0.77,-0.07 0.77,-0.56 z"
         id="path9332"
         inkscape:connector-curvature="0"
         style="fill:#000000;stroke-width:0" /></g><text
       xml:space="preserve"
       style="font-style:normal;font-variant:normal;font-weight:normal;font-stretch:normal;font-size:11.58709049px;line-height:125%;font-family:'Latin Modern Roman';-inkscape-font-specification:'Latin Modern Roman, Normal';text-align:start;letter-spacing:0px;word-spacing:0px;writing-mode:lr-tb;text-anchor:start;fill:#000000;fill-opacity:1;stroke:none;stroke-width:1px;stroke-linecap:butt;stroke-linejoin:miter;stroke-opacity:1"
       x="1695.9872"
       y="-5.7842546"
       id="text9809"
       sodipodi:linespacing="125%"
       transform="scale(1,-1)"><tspan
         sodipodi:role="line"
         id="tspan9811"
         x="1695.9872"
         y="-5.7842546">Nearest-neighbor distance (nm)</tspan></text>
<text
       transform="scale(1,-1)"
       sodipodi:linespacing="125%"
       id="text9813"
       y="-5.7842546"
       x="1914.1056"
       style="font-style:normal;font-variant:normal;font-weight:normal;font-stretch:normal;font-size:11.58709049px;line-height:125%;font-family:'Latin Modern Roman';-inkscape-font-specification:'Latin Modern Roman, Normal';text-align:start;letter-spacing:0px;word-spacing:0px;writing-mode:lr-tb;text-anchor:start;fill:#000000;fill-opacity:1;stroke:none;stroke-width:1px;stroke-linecap:butt;stroke-linejoin:miter;stroke-opacity:1"
       xml:space="preserve"><tspan
         y="-5.7842546"
         x="1914.1056"
         id="tspan9815"
         sodipodi:role="line">Nearest-neighbor distance (nm)</tspan></text>
</g></svg>